%TF.GenerationSoftware,KiCad,Pcbnew,(6.0.11)*%
%TF.CreationDate,2023-04-03T18:30:39-05:00*%
%TF.ProjectId,SlidePlate,536c6964-6550-46c6-9174-652e6b696361,rev?*%
%TF.SameCoordinates,Original*%
%TF.FileFunction,Legend,Bot*%
%TF.FilePolarity,Positive*%
%FSLAX46Y46*%
G04 Gerber Fmt 4.6, Leading zero omitted, Abs format (unit mm)*
G04 Created by KiCad (PCBNEW (6.0.11)) date 2023-04-03 18:30:39*
%MOMM*%
%LPD*%
G01*
G04 APERTURE LIST*
%ADD10C,0.150000*%
G04 APERTURE END LIST*
D10*
X57190476Y-21452380D02*
X57000000Y-21452380D01*
X56904761Y-21404761D01*
X56857142Y-21357142D01*
X56761904Y-21214285D01*
X56714285Y-21023809D01*
X56714285Y-20642857D01*
X56761904Y-20547619D01*
X56809523Y-20500000D01*
X56904761Y-20452380D01*
X57095238Y-20452380D01*
X57190476Y-20500000D01*
X57238095Y-20547619D01*
X57285714Y-20642857D01*
X57285714Y-20880952D01*
X57238095Y-20976190D01*
X57190476Y-21023809D01*
X57095238Y-21071428D01*
X56904761Y-21071428D01*
X56809523Y-21023809D01*
X56761904Y-20976190D01*
X56714285Y-20880952D01*
X51190476Y-21452380D02*
X51761904Y-21452380D01*
X51476190Y-21452380D02*
X51476190Y-20452380D01*
X51571428Y-20595238D01*
X51666666Y-20690476D01*
X51761904Y-20738095D01*
X50809523Y-20547619D02*
X50761904Y-20500000D01*
X50666666Y-20452380D01*
X50428571Y-20452380D01*
X50333333Y-20500000D01*
X50285714Y-20547619D01*
X50238095Y-20642857D01*
X50238095Y-20738095D01*
X50285714Y-20880952D01*
X50857142Y-21452380D01*
X50238095Y-21452380D01*
X59095238Y-20880952D02*
X59190476Y-20833333D01*
X59238095Y-20785714D01*
X59285714Y-20690476D01*
X59285714Y-20642857D01*
X59238095Y-20547619D01*
X59190476Y-20500000D01*
X59095238Y-20452380D01*
X58904761Y-20452380D01*
X58809523Y-20500000D01*
X58761904Y-20547619D01*
X58714285Y-20642857D01*
X58714285Y-20690476D01*
X58761904Y-20785714D01*
X58809523Y-20833333D01*
X58904761Y-20880952D01*
X59095238Y-20880952D01*
X59190476Y-20928571D01*
X59238095Y-20976190D01*
X59285714Y-21071428D01*
X59285714Y-21261904D01*
X59238095Y-21357142D01*
X59190476Y-21404761D01*
X59095238Y-21452380D01*
X58904761Y-21452380D01*
X58809523Y-21404761D01*
X58761904Y-21357142D01*
X58714285Y-21261904D01*
X58714285Y-21071428D01*
X58761904Y-20976190D01*
X58809523Y-20928571D01*
X58904761Y-20880952D01*
X61333333Y-20452380D02*
X60666666Y-20452380D01*
X61095238Y-21452380D01*
X64761904Y-20452380D02*
X65238095Y-20452380D01*
X65285714Y-20928571D01*
X65238095Y-20880952D01*
X65142857Y-20833333D01*
X64904761Y-20833333D01*
X64809523Y-20880952D01*
X64761904Y-20928571D01*
X64714285Y-21023809D01*
X64714285Y-21261904D01*
X64761904Y-21357142D01*
X64809523Y-21404761D01*
X64904761Y-21452380D01*
X65142857Y-21452380D01*
X65238095Y-21404761D01*
X65285714Y-21357142D01*
X62809523Y-20452380D02*
X63000000Y-20452380D01*
X63095238Y-20500000D01*
X63142857Y-20547619D01*
X63238095Y-20690476D01*
X63285714Y-20880952D01*
X63285714Y-21261904D01*
X63238095Y-21357142D01*
X63190476Y-21404761D01*
X63095238Y-21452380D01*
X62904761Y-21452380D01*
X62809523Y-21404761D01*
X62761904Y-21357142D01*
X62714285Y-21261904D01*
X62714285Y-21023809D01*
X62761904Y-20928571D01*
X62809523Y-20880952D01*
X62904761Y-20833333D01*
X63095238Y-20833333D01*
X63190476Y-20880952D01*
X63238095Y-20928571D01*
X63285714Y-21023809D01*
X69333333Y-20452380D02*
X68714285Y-20452380D01*
X69047619Y-20833333D01*
X68904761Y-20833333D01*
X68809523Y-20880952D01*
X68761904Y-20928571D01*
X68714285Y-21023809D01*
X68714285Y-21261904D01*
X68761904Y-21357142D01*
X68809523Y-21404761D01*
X68904761Y-21452380D01*
X69190476Y-21452380D01*
X69285714Y-21404761D01*
X69333333Y-21357142D01*
X75047619Y-20452380D02*
X74952380Y-20452380D01*
X74857142Y-20500000D01*
X74809523Y-20547619D01*
X74761904Y-20642857D01*
X74714285Y-20833333D01*
X74714285Y-21071428D01*
X74761904Y-21261904D01*
X74809523Y-21357142D01*
X74857142Y-21404761D01*
X74952380Y-21452380D01*
X75047619Y-21452380D01*
X75142857Y-21404761D01*
X75190476Y-21357142D01*
X75238095Y-21261904D01*
X75285714Y-21071428D01*
X75285714Y-20833333D01*
X75238095Y-20642857D01*
X75190476Y-20547619D01*
X75142857Y-20500000D01*
X75047619Y-20452380D01*
X66809523Y-20785714D02*
X66809523Y-21452380D01*
X67047619Y-20404761D02*
X67285714Y-21119047D01*
X66666666Y-21119047D01*
X71285714Y-20547619D02*
X71238095Y-20500000D01*
X71142857Y-20452380D01*
X70904761Y-20452380D01*
X70809523Y-20500000D01*
X70761904Y-20547619D01*
X70714285Y-20642857D01*
X70714285Y-20738095D01*
X70761904Y-20880952D01*
X71333333Y-21452380D01*
X70714285Y-21452380D01*
X72714285Y-21452380D02*
X73285714Y-21452380D01*
X73000000Y-21452380D02*
X73000000Y-20452380D01*
X73095238Y-20595238D01*
X73190476Y-20690476D01*
X73285714Y-20738095D01*
X55190476Y-21452380D02*
X55761904Y-21452380D01*
X55476190Y-21452380D02*
X55476190Y-20452380D01*
X55571428Y-20595238D01*
X55666666Y-20690476D01*
X55761904Y-20738095D01*
X54571428Y-20452380D02*
X54476190Y-20452380D01*
X54380952Y-20500000D01*
X54333333Y-20547619D01*
X54285714Y-20642857D01*
X54238095Y-20833333D01*
X54238095Y-21071428D01*
X54285714Y-21261904D01*
X54333333Y-21357142D01*
X54380952Y-21404761D01*
X54476190Y-21452380D01*
X54571428Y-21452380D01*
X54666666Y-21404761D01*
X54714285Y-21357142D01*
X54761904Y-21261904D01*
X54809523Y-21071428D01*
X54809523Y-20833333D01*
X54761904Y-20642857D01*
X54714285Y-20547619D01*
X54666666Y-20500000D01*
X54571428Y-20452380D01*
X53190476Y-21452380D02*
X53761904Y-21452380D01*
X53476190Y-21452380D02*
X53476190Y-20452380D01*
X53571428Y-20595238D01*
X53666666Y-20690476D01*
X53761904Y-20738095D01*
X52238095Y-21452380D02*
X52809523Y-21452380D01*
X52523809Y-21452380D02*
X52523809Y-20452380D01*
X52619047Y-20595238D01*
X52714285Y-20690476D01*
X52809523Y-20738095D01*
X55190476Y-119452380D02*
X55761904Y-119452380D01*
X55476190Y-119452380D02*
X55476190Y-118452380D01*
X55571428Y-118595238D01*
X55666666Y-118690476D01*
X55761904Y-118738095D01*
X54571428Y-118452380D02*
X54476190Y-118452380D01*
X54380952Y-118500000D01*
X54333333Y-118547619D01*
X54285714Y-118642857D01*
X54238095Y-118833333D01*
X54238095Y-119071428D01*
X54285714Y-119261904D01*
X54333333Y-119357142D01*
X54380952Y-119404761D01*
X54476190Y-119452380D01*
X54571428Y-119452380D01*
X54666666Y-119404761D01*
X54714285Y-119357142D01*
X54761904Y-119261904D01*
X54809523Y-119071428D01*
X54809523Y-118833333D01*
X54761904Y-118642857D01*
X54714285Y-118547619D01*
X54666666Y-118500000D01*
X54571428Y-118452380D01*
X51190476Y-119452380D02*
X51761904Y-119452380D01*
X51476190Y-119452380D02*
X51476190Y-118452380D01*
X51571428Y-118595238D01*
X51666666Y-118690476D01*
X51761904Y-118738095D01*
X50809523Y-118547619D02*
X50761904Y-118500000D01*
X50666666Y-118452380D01*
X50428571Y-118452380D01*
X50333333Y-118500000D01*
X50285714Y-118547619D01*
X50238095Y-118642857D01*
X50238095Y-118738095D01*
X50285714Y-118880952D01*
X50857142Y-119452380D01*
X50238095Y-119452380D01*
X53190476Y-119452380D02*
X53761904Y-119452380D01*
X53476190Y-119452380D02*
X53476190Y-118452380D01*
X53571428Y-118595238D01*
X53666666Y-118690476D01*
X53761904Y-118738095D01*
X52238095Y-119452380D02*
X52809523Y-119452380D01*
X52523809Y-119452380D02*
X52523809Y-118452380D01*
X52619047Y-118595238D01*
X52714285Y-118690476D01*
X52809523Y-118738095D01*
X59095238Y-118880952D02*
X59190476Y-118833333D01*
X59238095Y-118785714D01*
X59285714Y-118690476D01*
X59285714Y-118642857D01*
X59238095Y-118547619D01*
X59190476Y-118500000D01*
X59095238Y-118452380D01*
X58904761Y-118452380D01*
X58809523Y-118500000D01*
X58761904Y-118547619D01*
X58714285Y-118642857D01*
X58714285Y-118690476D01*
X58761904Y-118785714D01*
X58809523Y-118833333D01*
X58904761Y-118880952D01*
X59095238Y-118880952D01*
X59190476Y-118928571D01*
X59238095Y-118976190D01*
X59285714Y-119071428D01*
X59285714Y-119261904D01*
X59238095Y-119357142D01*
X59190476Y-119404761D01*
X59095238Y-119452380D01*
X58904761Y-119452380D01*
X58809523Y-119404761D01*
X58761904Y-119357142D01*
X58714285Y-119261904D01*
X58714285Y-119071428D01*
X58761904Y-118976190D01*
X58809523Y-118928571D01*
X58904761Y-118880952D01*
X61333333Y-118452380D02*
X60666666Y-118452380D01*
X61095238Y-119452380D01*
X57190476Y-119452380D02*
X57000000Y-119452380D01*
X56904761Y-119404761D01*
X56857142Y-119357142D01*
X56761904Y-119214285D01*
X56714285Y-119023809D01*
X56714285Y-118642857D01*
X56761904Y-118547619D01*
X56809523Y-118500000D01*
X56904761Y-118452380D01*
X57095238Y-118452380D01*
X57190476Y-118500000D01*
X57238095Y-118547619D01*
X57285714Y-118642857D01*
X57285714Y-118880952D01*
X57238095Y-118976190D01*
X57190476Y-119023809D01*
X57095238Y-119071428D01*
X56904761Y-119071428D01*
X56809523Y-119023809D01*
X56761904Y-118976190D01*
X56714285Y-118880952D01*
X64761904Y-118452380D02*
X65238095Y-118452380D01*
X65285714Y-118928571D01*
X65238095Y-118880952D01*
X65142857Y-118833333D01*
X64904761Y-118833333D01*
X64809523Y-118880952D01*
X64761904Y-118928571D01*
X64714285Y-119023809D01*
X64714285Y-119261904D01*
X64761904Y-119357142D01*
X64809523Y-119404761D01*
X64904761Y-119452380D01*
X65142857Y-119452380D01*
X65238095Y-119404761D01*
X65285714Y-119357142D01*
X62809523Y-118452380D02*
X63000000Y-118452380D01*
X63095238Y-118500000D01*
X63142857Y-118547619D01*
X63238095Y-118690476D01*
X63285714Y-118880952D01*
X63285714Y-119261904D01*
X63238095Y-119357142D01*
X63190476Y-119404761D01*
X63095238Y-119452380D01*
X62904761Y-119452380D01*
X62809523Y-119404761D01*
X62761904Y-119357142D01*
X62714285Y-119261904D01*
X62714285Y-119023809D01*
X62761904Y-118928571D01*
X62809523Y-118880952D01*
X62904761Y-118833333D01*
X63095238Y-118833333D01*
X63190476Y-118880952D01*
X63238095Y-118928571D01*
X63285714Y-119023809D01*
X69333333Y-118452380D02*
X68714285Y-118452380D01*
X69047619Y-118833333D01*
X68904761Y-118833333D01*
X68809523Y-118880952D01*
X68761904Y-118928571D01*
X68714285Y-119023809D01*
X68714285Y-119261904D01*
X68761904Y-119357142D01*
X68809523Y-119404761D01*
X68904761Y-119452380D01*
X69190476Y-119452380D01*
X69285714Y-119404761D01*
X69333333Y-119357142D01*
X66809523Y-118785714D02*
X66809523Y-119452380D01*
X67047619Y-118404761D02*
X67285714Y-119119047D01*
X66666666Y-119119047D01*
X75047619Y-118452380D02*
X74952380Y-118452380D01*
X74857142Y-118500000D01*
X74809523Y-118547619D01*
X74761904Y-118642857D01*
X74714285Y-118833333D01*
X74714285Y-119071428D01*
X74761904Y-119261904D01*
X74809523Y-119357142D01*
X74857142Y-119404761D01*
X74952380Y-119452380D01*
X75047619Y-119452380D01*
X75142857Y-119404761D01*
X75190476Y-119357142D01*
X75238095Y-119261904D01*
X75285714Y-119071428D01*
X75285714Y-118833333D01*
X75238095Y-118642857D01*
X75190476Y-118547619D01*
X75142857Y-118500000D01*
X75047619Y-118452380D01*
X71285714Y-118547619D02*
X71238095Y-118500000D01*
X71142857Y-118452380D01*
X70904761Y-118452380D01*
X70809523Y-118500000D01*
X70761904Y-118547619D01*
X70714285Y-118642857D01*
X70714285Y-118738095D01*
X70761904Y-118880952D01*
X71333333Y-119452380D01*
X70714285Y-119452380D01*
X72714285Y-119452380D02*
X73285714Y-119452380D01*
X73000000Y-119452380D02*
X73000000Y-118452380D01*
X73095238Y-118595238D01*
X73190476Y-118690476D01*
X73285714Y-118738095D01*
X41190476Y-119452380D02*
X41761904Y-119452380D01*
X41476190Y-119452380D02*
X41476190Y-118452380D01*
X41571428Y-118595238D01*
X41666666Y-118690476D01*
X41761904Y-118738095D01*
X40571428Y-118452380D02*
X40476190Y-118452380D01*
X40380952Y-118500000D01*
X40333333Y-118547619D01*
X40285714Y-118642857D01*
X40238095Y-118833333D01*
X40238095Y-119071428D01*
X40285714Y-119261904D01*
X40333333Y-119357142D01*
X40380952Y-119404761D01*
X40476190Y-119452380D01*
X40571428Y-119452380D01*
X40666666Y-119404761D01*
X40714285Y-119357142D01*
X40761904Y-119261904D01*
X40809523Y-119071428D01*
X40809523Y-118833333D01*
X40761904Y-118642857D01*
X40714285Y-118547619D01*
X40666666Y-118500000D01*
X40571428Y-118452380D01*
X45190476Y-119452380D02*
X45761904Y-119452380D01*
X45476190Y-119452380D02*
X45476190Y-118452380D01*
X45571428Y-118595238D01*
X45666666Y-118690476D01*
X45761904Y-118738095D01*
X44809523Y-118547619D02*
X44761904Y-118500000D01*
X44666666Y-118452380D01*
X44428571Y-118452380D01*
X44333333Y-118500000D01*
X44285714Y-118547619D01*
X44238095Y-118642857D01*
X44238095Y-118738095D01*
X44285714Y-118880952D01*
X44857142Y-119452380D01*
X44238095Y-119452380D01*
X43190476Y-119452380D02*
X43761904Y-119452380D01*
X43476190Y-119452380D02*
X43476190Y-118452380D01*
X43571428Y-118595238D01*
X43666666Y-118690476D01*
X43761904Y-118738095D01*
X42238095Y-119452380D02*
X42809523Y-119452380D01*
X42523809Y-119452380D02*
X42523809Y-118452380D01*
X42619047Y-118595238D01*
X42714285Y-118690476D01*
X42809523Y-118738095D01*
X37095238Y-118880952D02*
X37190476Y-118833333D01*
X37238095Y-118785714D01*
X37285714Y-118690476D01*
X37285714Y-118642857D01*
X37238095Y-118547619D01*
X37190476Y-118500000D01*
X37095238Y-118452380D01*
X36904761Y-118452380D01*
X36809523Y-118500000D01*
X36761904Y-118547619D01*
X36714285Y-118642857D01*
X36714285Y-118690476D01*
X36761904Y-118785714D01*
X36809523Y-118833333D01*
X36904761Y-118880952D01*
X37095238Y-118880952D01*
X37190476Y-118928571D01*
X37238095Y-118976190D01*
X37285714Y-119071428D01*
X37285714Y-119261904D01*
X37238095Y-119357142D01*
X37190476Y-119404761D01*
X37095238Y-119452380D01*
X36904761Y-119452380D01*
X36809523Y-119404761D01*
X36761904Y-119357142D01*
X36714285Y-119261904D01*
X36714285Y-119071428D01*
X36761904Y-118976190D01*
X36809523Y-118928571D01*
X36904761Y-118880952D01*
X35333333Y-118452380D02*
X34666666Y-118452380D01*
X35095238Y-119452380D01*
X39190476Y-119452380D02*
X39000000Y-119452380D01*
X38904761Y-119404761D01*
X38857142Y-119357142D01*
X38761904Y-119214285D01*
X38714285Y-119023809D01*
X38714285Y-118642857D01*
X38761904Y-118547619D01*
X38809523Y-118500000D01*
X38904761Y-118452380D01*
X39095238Y-118452380D01*
X39190476Y-118500000D01*
X39238095Y-118547619D01*
X39285714Y-118642857D01*
X39285714Y-118880952D01*
X39238095Y-118976190D01*
X39190476Y-119023809D01*
X39095238Y-119071428D01*
X38904761Y-119071428D01*
X38809523Y-119023809D01*
X38761904Y-118976190D01*
X38714285Y-118880952D01*
X30761904Y-118452380D02*
X31238095Y-118452380D01*
X31285714Y-118928571D01*
X31238095Y-118880952D01*
X31142857Y-118833333D01*
X30904761Y-118833333D01*
X30809523Y-118880952D01*
X30761904Y-118928571D01*
X30714285Y-119023809D01*
X30714285Y-119261904D01*
X30761904Y-119357142D01*
X30809523Y-119404761D01*
X30904761Y-119452380D01*
X31142857Y-119452380D01*
X31238095Y-119404761D01*
X31285714Y-119357142D01*
X32809523Y-118452380D02*
X33000000Y-118452380D01*
X33095238Y-118500000D01*
X33142857Y-118547619D01*
X33238095Y-118690476D01*
X33285714Y-118880952D01*
X33285714Y-119261904D01*
X33238095Y-119357142D01*
X33190476Y-119404761D01*
X33095238Y-119452380D01*
X32904761Y-119452380D01*
X32809523Y-119404761D01*
X32761904Y-119357142D01*
X32714285Y-119261904D01*
X32714285Y-119023809D01*
X32761904Y-118928571D01*
X32809523Y-118880952D01*
X32904761Y-118833333D01*
X33095238Y-118833333D01*
X33190476Y-118880952D01*
X33238095Y-118928571D01*
X33285714Y-119023809D01*
X27333333Y-118452380D02*
X26714285Y-118452380D01*
X27047619Y-118833333D01*
X26904761Y-118833333D01*
X26809523Y-118880952D01*
X26761904Y-118928571D01*
X26714285Y-119023809D01*
X26714285Y-119261904D01*
X26761904Y-119357142D01*
X26809523Y-119404761D01*
X26904761Y-119452380D01*
X27190476Y-119452380D01*
X27285714Y-119404761D01*
X27333333Y-119357142D01*
X28809523Y-118785714D02*
X28809523Y-119452380D01*
X29047619Y-118404761D02*
X29285714Y-119119047D01*
X28666666Y-119119047D01*
X21047619Y-118452380D02*
X20952380Y-118452380D01*
X20857142Y-118500000D01*
X20809523Y-118547619D01*
X20761904Y-118642857D01*
X20714285Y-118833333D01*
X20714285Y-119071428D01*
X20761904Y-119261904D01*
X20809523Y-119357142D01*
X20857142Y-119404761D01*
X20952380Y-119452380D01*
X21047619Y-119452380D01*
X21142857Y-119404761D01*
X21190476Y-119357142D01*
X21238095Y-119261904D01*
X21285714Y-119071428D01*
X21285714Y-118833333D01*
X21238095Y-118642857D01*
X21190476Y-118547619D01*
X21142857Y-118500000D01*
X21047619Y-118452380D01*
X25285714Y-118547619D02*
X25238095Y-118500000D01*
X25142857Y-118452380D01*
X24904761Y-118452380D01*
X24809523Y-118500000D01*
X24761904Y-118547619D01*
X24714285Y-118642857D01*
X24714285Y-118738095D01*
X24761904Y-118880952D01*
X25333333Y-119452380D01*
X24714285Y-119452380D01*
X22714285Y-119452380D02*
X23285714Y-119452380D01*
X23000000Y-119452380D02*
X23000000Y-118452380D01*
X23095238Y-118595238D01*
X23190476Y-118690476D01*
X23285714Y-118738095D01*
X45190476Y-21452380D02*
X45761904Y-21452380D01*
X45476190Y-21452380D02*
X45476190Y-20452380D01*
X45571428Y-20595238D01*
X45666666Y-20690476D01*
X45761904Y-20738095D01*
X44809523Y-20547619D02*
X44761904Y-20500000D01*
X44666666Y-20452380D01*
X44428571Y-20452380D01*
X44333333Y-20500000D01*
X44285714Y-20547619D01*
X44238095Y-20642857D01*
X44238095Y-20738095D01*
X44285714Y-20880952D01*
X44857142Y-21452380D01*
X44238095Y-21452380D01*
X43190476Y-21452380D02*
X43761904Y-21452380D01*
X43476190Y-21452380D02*
X43476190Y-20452380D01*
X43571428Y-20595238D01*
X43666666Y-20690476D01*
X43761904Y-20738095D01*
X42238095Y-21452380D02*
X42809523Y-21452380D01*
X42523809Y-21452380D02*
X42523809Y-20452380D01*
X42619047Y-20595238D01*
X42714285Y-20690476D01*
X42809523Y-20738095D01*
X41190476Y-21452380D02*
X41761904Y-21452380D01*
X41476190Y-21452380D02*
X41476190Y-20452380D01*
X41571428Y-20595238D01*
X41666666Y-20690476D01*
X41761904Y-20738095D01*
X40571428Y-20452380D02*
X40476190Y-20452380D01*
X40380952Y-20500000D01*
X40333333Y-20547619D01*
X40285714Y-20642857D01*
X40238095Y-20833333D01*
X40238095Y-21071428D01*
X40285714Y-21261904D01*
X40333333Y-21357142D01*
X40380952Y-21404761D01*
X40476190Y-21452380D01*
X40571428Y-21452380D01*
X40666666Y-21404761D01*
X40714285Y-21357142D01*
X40761904Y-21261904D01*
X40809523Y-21071428D01*
X40809523Y-20833333D01*
X40761904Y-20642857D01*
X40714285Y-20547619D01*
X40666666Y-20500000D01*
X40571428Y-20452380D01*
X39190476Y-21452380D02*
X39000000Y-21452380D01*
X38904761Y-21404761D01*
X38857142Y-21357142D01*
X38761904Y-21214285D01*
X38714285Y-21023809D01*
X38714285Y-20642857D01*
X38761904Y-20547619D01*
X38809523Y-20500000D01*
X38904761Y-20452380D01*
X39095238Y-20452380D01*
X39190476Y-20500000D01*
X39238095Y-20547619D01*
X39285714Y-20642857D01*
X39285714Y-20880952D01*
X39238095Y-20976190D01*
X39190476Y-21023809D01*
X39095238Y-21071428D01*
X38904761Y-21071428D01*
X38809523Y-21023809D01*
X38761904Y-20976190D01*
X38714285Y-20880952D01*
X37095238Y-20880952D02*
X37190476Y-20833333D01*
X37238095Y-20785714D01*
X37285714Y-20690476D01*
X37285714Y-20642857D01*
X37238095Y-20547619D01*
X37190476Y-20500000D01*
X37095238Y-20452380D01*
X36904761Y-20452380D01*
X36809523Y-20500000D01*
X36761904Y-20547619D01*
X36714285Y-20642857D01*
X36714285Y-20690476D01*
X36761904Y-20785714D01*
X36809523Y-20833333D01*
X36904761Y-20880952D01*
X37095238Y-20880952D01*
X37190476Y-20928571D01*
X37238095Y-20976190D01*
X37285714Y-21071428D01*
X37285714Y-21261904D01*
X37238095Y-21357142D01*
X37190476Y-21404761D01*
X37095238Y-21452380D01*
X36904761Y-21452380D01*
X36809523Y-21404761D01*
X36761904Y-21357142D01*
X36714285Y-21261904D01*
X36714285Y-21071428D01*
X36761904Y-20976190D01*
X36809523Y-20928571D01*
X36904761Y-20880952D01*
X35333333Y-20452380D02*
X34666666Y-20452380D01*
X35095238Y-21452380D01*
X32809523Y-20452380D02*
X33000000Y-20452380D01*
X33095238Y-20500000D01*
X33142857Y-20547619D01*
X33238095Y-20690476D01*
X33285714Y-20880952D01*
X33285714Y-21261904D01*
X33238095Y-21357142D01*
X33190476Y-21404761D01*
X33095238Y-21452380D01*
X32904761Y-21452380D01*
X32809523Y-21404761D01*
X32761904Y-21357142D01*
X32714285Y-21261904D01*
X32714285Y-21023809D01*
X32761904Y-20928571D01*
X32809523Y-20880952D01*
X32904761Y-20833333D01*
X33095238Y-20833333D01*
X33190476Y-20880952D01*
X33238095Y-20928571D01*
X33285714Y-21023809D01*
X30761904Y-20452380D02*
X31238095Y-20452380D01*
X31285714Y-20928571D01*
X31238095Y-20880952D01*
X31142857Y-20833333D01*
X30904761Y-20833333D01*
X30809523Y-20880952D01*
X30761904Y-20928571D01*
X30714285Y-21023809D01*
X30714285Y-21261904D01*
X30761904Y-21357142D01*
X30809523Y-21404761D01*
X30904761Y-21452380D01*
X31142857Y-21452380D01*
X31238095Y-21404761D01*
X31285714Y-21357142D01*
X28809523Y-20785714D02*
X28809523Y-21452380D01*
X29047619Y-20404761D02*
X29285714Y-21119047D01*
X28666666Y-21119047D01*
X27333333Y-20452380D02*
X26714285Y-20452380D01*
X27047619Y-20833333D01*
X26904761Y-20833333D01*
X26809523Y-20880952D01*
X26761904Y-20928571D01*
X26714285Y-21023809D01*
X26714285Y-21261904D01*
X26761904Y-21357142D01*
X26809523Y-21404761D01*
X26904761Y-21452380D01*
X27190476Y-21452380D01*
X27285714Y-21404761D01*
X27333333Y-21357142D01*
X25285714Y-20547619D02*
X25238095Y-20500000D01*
X25142857Y-20452380D01*
X24904761Y-20452380D01*
X24809523Y-20500000D01*
X24761904Y-20547619D01*
X24714285Y-20642857D01*
X24714285Y-20738095D01*
X24761904Y-20880952D01*
X25333333Y-21452380D01*
X24714285Y-21452380D01*
X22714285Y-21452380D02*
X23285714Y-21452380D01*
X23000000Y-21452380D02*
X23000000Y-20452380D01*
X23095238Y-20595238D01*
X23190476Y-20690476D01*
X23285714Y-20738095D01*
X21047619Y-20452380D02*
X20952380Y-20452380D01*
X20857142Y-20500000D01*
X20809523Y-20547619D01*
X20761904Y-20642857D01*
X20714285Y-20833333D01*
X20714285Y-21071428D01*
X20761904Y-21261904D01*
X20809523Y-21357142D01*
X20857142Y-21404761D01*
X20952380Y-21452380D01*
X21047619Y-21452380D01*
X21142857Y-21404761D01*
X21190476Y-21357142D01*
X21238095Y-21261904D01*
X21285714Y-21071428D01*
X21285714Y-20833333D01*
X21238095Y-20642857D01*
X21190476Y-20547619D01*
X21142857Y-20500000D01*
X21047619Y-20452380D01*
X50000000Y-120000000D02*
X50000000Y-20000000D01*
X52000000Y-120000000D02*
X50000000Y-120000000D01*
X52000000Y-20000000D02*
X52000000Y-120000000D01*
X54000000Y-20000000D02*
X52000000Y-20000000D01*
X54000000Y-120000000D02*
X54000000Y-20000000D01*
X56000000Y-120000000D02*
X54000000Y-120000000D01*
X56000000Y-20000000D02*
X56000000Y-120000000D01*
X58000000Y-20000000D02*
X56000000Y-20000000D01*
X58000000Y-120000000D02*
X58000000Y-20000000D01*
X60000000Y-120000000D02*
X58000000Y-120000000D01*
X60000000Y-20000000D02*
X60000000Y-120000000D01*
X62000000Y-20000000D02*
X60000000Y-20000000D01*
X62000000Y-120000000D02*
X62000000Y-20000000D01*
X64000000Y-120000000D02*
X62000000Y-120000000D01*
X64000000Y-20000000D02*
X64000000Y-120000000D01*
X66000000Y-20000000D02*
X64000000Y-20000000D01*
X66000000Y-120000000D02*
X66000000Y-20000000D01*
X68000000Y-120000000D02*
X66000000Y-120000000D01*
X68000000Y-20000000D02*
X68000000Y-120000000D01*
X70000000Y-20000000D02*
X68000000Y-20000000D01*
X70000000Y-120000000D02*
X70000000Y-20000000D01*
X72000000Y-120000000D02*
X70000000Y-120000000D01*
X72000000Y-20000000D02*
X72000000Y-120000000D01*
X74000000Y-20000000D02*
X72000000Y-20000000D01*
X74000000Y-120000000D02*
X74000000Y-20000000D01*
X46000000Y-20000000D02*
X46000000Y-120000000D01*
X44000000Y-20000000D02*
X46000000Y-20000000D01*
X44000000Y-120000000D02*
X44000000Y-20000000D01*
X42000000Y-120000000D02*
X44000000Y-120000000D01*
X42000000Y-20000000D02*
X42000000Y-120000000D01*
X40000000Y-20000000D02*
X42000000Y-20000000D01*
X40000000Y-120000000D02*
X40000000Y-20000000D01*
X38000000Y-120000000D02*
X40000000Y-120000000D01*
X38000000Y-20000000D02*
X38000000Y-120000000D01*
X36000000Y-20000000D02*
X38000000Y-20000000D01*
X36000000Y-120000000D02*
X36000000Y-20000000D01*
X34000000Y-120000000D02*
X36000000Y-120000000D01*
X34000000Y-20000000D02*
X34000000Y-120000000D01*
X32000000Y-20000000D02*
X34000000Y-20000000D01*
X32000000Y-120000000D02*
X32000000Y-20000000D01*
X30000000Y-120000000D02*
X32000000Y-120000000D01*
X30000000Y-20000000D02*
X30000000Y-120000000D01*
X28000000Y-20000000D02*
X30000000Y-20000000D01*
X28000000Y-120000000D02*
X28000000Y-20000000D01*
X26000000Y-120000000D02*
X28000000Y-120000000D01*
X26000000Y-20000000D02*
X26000000Y-120000000D01*
X24000000Y-20000000D02*
X26000000Y-20000000D01*
X24000000Y-120000000D02*
X24000000Y-20000000D01*
X22000000Y-120000000D02*
X24000000Y-120000000D01*
X22000000Y-20000000D02*
X22000000Y-120000000D01*
X48000000Y-20000000D02*
X48000000Y-120000000D01*
M02*
