%TF.GenerationSoftware,KiCad,Pcbnew,(6.0.11)*%
%TF.CreationDate,2023-05-02T21:30:37-05:00*%
%TF.ProjectId,TMatchPCB,544d6174-6368-4504-9342-2e6b69636164,rev?*%
%TF.SameCoordinates,Original*%
%TF.FileFunction,Copper,L2,Bot*%
%TF.FilePolarity,Positive*%
%FSLAX46Y46*%
G04 Gerber Fmt 4.6, Leading zero omitted, Abs format (unit mm)*
G04 Created by KiCad (PCBNEW (6.0.11)) date 2023-05-02 21:30:37*
%MOMM*%
%LPD*%
G01*
G04 APERTURE LIST*
%TA.AperFunction,ComponentPad*%
%ADD10C,1.600000*%
%TD*%
%TA.AperFunction,ComponentPad*%
%ADD11O,1.600000X1.600000*%
%TD*%
%TA.AperFunction,ComponentPad*%
%ADD12C,1.524000*%
%TD*%
%TA.AperFunction,ComponentPad*%
%ADD13C,2.500000*%
%TD*%
%TA.AperFunction,ComponentPad*%
%ADD14C,1.500000*%
%TD*%
%TA.AperFunction,ComponentPad*%
%ADD15R,3.000000X3.000000*%
%TD*%
%TA.AperFunction,ComponentPad*%
%ADD16C,3.000000*%
%TD*%
%TA.AperFunction,ComponentPad*%
%ADD17R,1.800000X1.800000*%
%TD*%
%TA.AperFunction,ComponentPad*%
%ADD18C,1.800000*%
%TD*%
%TA.AperFunction,WasherPad*%
%ADD19R,25.000000X3.200000*%
%TD*%
%TA.AperFunction,ComponentPad*%
%ADD20R,1.600000X1.600000*%
%TD*%
%TA.AperFunction,ViaPad*%
%ADD21C,0.800000*%
%TD*%
%TA.AperFunction,Conductor*%
%ADD22C,0.500000*%
%TD*%
G04 APERTURE END LIST*
D10*
%TO.P,R2,1*%
%TO.N,Net-(R1-Pad2)*%
X75438000Y-38862000D03*
D11*
%TO.P,R2,2*%
%TO.N,GND*%
X88138000Y-38862000D03*
%TD*%
D10*
%TO.P,R1,1*%
%TO.N,Net-(R1-Pad1)*%
X68072000Y-30988000D03*
D11*
%TO.P,R1,2*%
%TO.N,Net-(R1-Pad2)*%
X68072000Y-43688000D03*
%TD*%
D10*
%TO.P,R6,1*%
%TO.N,Net-(D2-Pad2)*%
X51860000Y-32240000D03*
D11*
%TO.P,R6,2*%
%TO.N,Net-(R1-Pad1)*%
X64560000Y-32240000D03*
%TD*%
D12*
%TO.P,SW3,1*%
%TO.N,N/C*%
X68580000Y-61254000D03*
X72080000Y-61254000D03*
%TO.P,SW3,2,2*%
%TO.N,GND*%
X72080000Y-63754000D03*
X68580000Y-63754000D03*
%TO.P,SW3,3,3*%
%TO.N,Net-(J1-Pad1)*%
X68580000Y-66254000D03*
X72080000Y-66254000D03*
%TD*%
D13*
%TO.P,J3,*%
%TO.N,*%
X52420000Y-22800000D03*
X62580000Y-22800000D03*
D14*
%TO.P,J3,1,In*%
%TO.N,Net-(J3-Pad1)*%
X57500000Y-27880000D03*
D15*
X59786000Y-25152000D03*
D16*
%TO.P,J3,2,Ext*%
%TO.N,GND*%
X54706000Y-25152000D03*
D14*
X54960000Y-27880000D03*
%TD*%
D12*
%TO.P,SW11,1,A*%
%TO.N,Net-(D2-Pad2)*%
X81000000Y-35250000D03*
%TO.P,SW11,2,B*%
%TO.N,Net-(J5-Pad1)*%
X83500000Y-35250000D03*
%TO.P,SW11,3,C*%
%TO.N,Net-(SW11-Pad3)*%
X86000000Y-35250000D03*
%TO.P,SW11,4,A*%
%TO.N,Net-(R1-Pad1)*%
X81000000Y-31750000D03*
%TO.P,SW11,5,B*%
%TO.N,Net-(J6-Pad1)*%
X83500000Y-31750000D03*
%TO.P,SW11,6,C*%
%TO.N,Net-(SW11-Pad3)*%
X86000000Y-31750000D03*
%TD*%
%TO.P,SW10,1*%
%TO.N,N/C*%
X84963000Y-49316000D03*
X88463000Y-49316000D03*
%TO.P,SW10,2,2*%
%TO.N,GND*%
X84963000Y-51816000D03*
X88463000Y-51816000D03*
%TO.P,SW10,3,3*%
%TO.N,Net-(J1-Pad1)*%
X88463000Y-54316000D03*
X84963000Y-54316000D03*
%TD*%
%TO.P,SW8,1*%
%TO.N,N/C*%
X80335000Y-49316000D03*
X76835000Y-49316000D03*
%TO.P,SW8,2,2*%
%TO.N,GND*%
X80335000Y-51816000D03*
X76835000Y-51816000D03*
%TO.P,SW8,3,3*%
%TO.N,Net-(J1-Pad1)*%
X76835000Y-54316000D03*
X80335000Y-54316000D03*
%TD*%
%TO.P,SW2,1*%
%TO.N,N/C*%
X60198000Y-61254000D03*
X63698000Y-61254000D03*
%TO.P,SW2,2,2*%
%TO.N,GND*%
X60198000Y-63754000D03*
X63698000Y-63754000D03*
%TO.P,SW2,3,3*%
%TO.N,Net-(J1-Pad1)*%
X60198000Y-66254000D03*
X63698000Y-66254000D03*
%TD*%
D17*
%TO.P,D2,1,K*%
%TO.N,Net-(D2-Pad1)*%
X63246000Y-43180000D03*
D18*
%TO.P,D2,2,A*%
%TO.N,Net-(D2-Pad2)*%
X63246000Y-40640000D03*
%TD*%
D12*
%TO.P,SW7,1*%
%TO.N,N/C*%
X72080000Y-49316000D03*
X68580000Y-49316000D03*
%TO.P,SW7,2,2*%
%TO.N,GND*%
X72080000Y-51816000D03*
X68580000Y-51816000D03*
%TO.P,SW7,3,3*%
%TO.N,Net-(J1-Pad1)*%
X68580000Y-54316000D03*
X72080000Y-54316000D03*
%TD*%
%TO.P,SW5,1*%
%TO.N,N/C*%
X55570000Y-49316000D03*
X52070000Y-49316000D03*
%TO.P,SW5,2,2*%
%TO.N,GND*%
X55570000Y-51816000D03*
X52070000Y-51816000D03*
%TO.P,SW5,3,3*%
%TO.N,Net-(J1-Pad1)*%
X52070000Y-54316000D03*
X55570000Y-54316000D03*
%TD*%
D10*
%TO.P,R5,1*%
%TO.N,Net-(D2-Pad2)*%
X51816000Y-36322000D03*
D11*
%TO.P,R5,2*%
%TO.N,Net-(R1-Pad1)*%
X64516000Y-36322000D03*
%TD*%
D10*
%TO.P,R4,1*%
%TO.N,Net-(R1-Pad2)*%
X75184000Y-42926000D03*
D11*
%TO.P,R4,2*%
%TO.N,GND*%
X87884000Y-42926000D03*
%TD*%
D13*
%TO.P,J6,*%
%TO.N,*%
X87080000Y-22670000D03*
X76920000Y-22670000D03*
D15*
%TO.P,J6,1,In*%
%TO.N,Net-(J6-Pad1)*%
X84286000Y-25022000D03*
D14*
X82000000Y-27750000D03*
D16*
%TO.P,J6,2,Ext*%
%TO.N,GND*%
X79206000Y-25022000D03*
D14*
X79460000Y-27750000D03*
%TD*%
D19*
%TO.P,H1,*%
%TO.N,*%
X34770000Y-70090000D03*
%TD*%
%TO.P,H2,*%
%TO.N,*%
X105540000Y-70180000D03*
%TD*%
D12*
%TO.P,SW6,1*%
%TO.N,N/C*%
X63698000Y-49316000D03*
X60198000Y-49316000D03*
%TO.P,SW6,2,2*%
%TO.N,GND*%
X63698000Y-51816000D03*
X60198000Y-51816000D03*
%TO.P,SW6,3,3*%
%TO.N,Net-(J1-Pad1)*%
X60198000Y-54316000D03*
X63698000Y-54316000D03*
%TD*%
D10*
%TO.P,R3,1*%
%TO.N,Net-(R1-Pad1)*%
X72136000Y-30988000D03*
D11*
%TO.P,R3,2*%
%TO.N,Net-(R1-Pad2)*%
X72136000Y-43688000D03*
%TD*%
D10*
%TO.P,R7,1*%
%TO.N,Net-(R1-Pad2)*%
X51816000Y-42926000D03*
D11*
%TO.P,R7,2*%
%TO.N,Net-(D2-Pad1)*%
X59436000Y-42926000D03*
%TD*%
D20*
%TO.P,D1,1,K*%
%TO.N,Net-(D2-Pad2)*%
X51816000Y-39624000D03*
D11*
%TO.P,D1,2,A*%
%TO.N,Net-(R1-Pad2)*%
X59436000Y-39624000D03*
%TD*%
D12*
%TO.P,SW1,1*%
%TO.N,N/C*%
X55570000Y-61254000D03*
X52070000Y-61254000D03*
%TO.P,SW1,2,2*%
%TO.N,GND*%
X55570000Y-63754000D03*
X52070000Y-63754000D03*
%TO.P,SW1,3,3*%
%TO.N,Net-(J1-Pad1)*%
X55570000Y-66254000D03*
X52070000Y-66254000D03*
%TD*%
%TO.P,SW4,1*%
%TO.N,N/C*%
X80335000Y-61127000D03*
X76835000Y-61127000D03*
%TO.P,SW4,2,2*%
%TO.N,GND*%
X76835000Y-63627000D03*
X80335000Y-63627000D03*
%TO.P,SW4,3,3*%
%TO.N,Net-(J1-Pad1)*%
X76835000Y-66127000D03*
X80335000Y-66127000D03*
%TD*%
%TO.P,SW9,1*%
%TO.N,N/C*%
X88590000Y-61000000D03*
X85090000Y-61000000D03*
%TO.P,SW9,2,2*%
%TO.N,GND*%
X88590000Y-63500000D03*
X85090000Y-63500000D03*
%TO.P,SW9,3,3*%
%TO.N,Net-(J1-Pad1)*%
X85090000Y-66000000D03*
X88590000Y-66000000D03*
%TD*%
D21*
%TO.N,Net-(J1-Pad1)*%
X76940000Y-78000000D03*
X74740000Y-81000000D03*
X66360000Y-76000000D03*
X68510000Y-74000000D03*
X60340000Y-71000000D03*
X57880000Y-72000000D03*
X49540000Y-70000000D03*
X70000000Y-93000000D03*
X77000000Y-86230000D03*
%TD*%
D22*
%TO.N,Net-(J1-Pad1)*%
X76835000Y-77895000D02*
X76940000Y-78000000D01*
X76835000Y-66127000D02*
X76835000Y-77895000D01*
X74650000Y-80910000D02*
X74740000Y-81000000D01*
X74650000Y-56501000D02*
X74650000Y-80910000D01*
X76835000Y-54316000D02*
X74650000Y-56501000D01*
X66410000Y-75950000D02*
X66360000Y-76000000D01*
X66410000Y-56486000D02*
X66410000Y-75950000D01*
X68580000Y-54316000D02*
X66410000Y-56486000D01*
X68580000Y-73930000D02*
X68510000Y-74000000D01*
X68580000Y-66254000D02*
X68580000Y-73930000D01*
X60350000Y-70990000D02*
X60340000Y-71000000D01*
X60350000Y-66406000D02*
X60350000Y-70990000D01*
X60198000Y-66254000D02*
X60350000Y-66406000D01*
X57890000Y-71990000D02*
X57880000Y-72000000D01*
X57890000Y-56624000D02*
X57890000Y-71990000D01*
X60198000Y-54316000D02*
X57890000Y-56624000D01*
X49540000Y-70000000D02*
X49540000Y-56846000D01*
X49540000Y-56846000D02*
X52070000Y-54316000D01*
%TO.N,Net-(J3-Pad1)*%
X57500000Y-27880000D02*
X57500000Y-27438000D01*
X57500000Y-27438000D02*
X59786000Y-25152000D01*
%TO.N,Net-(J6-Pad1)*%
X82000000Y-27750000D02*
X83750000Y-27750000D01*
X83750000Y-27750000D02*
X84286000Y-28286000D01*
X84286000Y-30824000D02*
X83500000Y-31610000D01*
X84286000Y-28286000D02*
X84286000Y-30824000D01*
X84286000Y-25022000D02*
X84286000Y-28286000D01*
%TO.N,Net-(R1-Pad2)*%
X56896000Y-39370000D02*
X54102000Y-42164000D01*
X66802000Y-44958000D02*
X68072000Y-43688000D01*
X72898000Y-42926000D02*
X72136000Y-43688000D01*
X75438000Y-42672000D02*
X75184000Y-42926000D01*
X75184000Y-42926000D02*
X72898000Y-42926000D01*
X68072000Y-43688000D02*
X72136000Y-43688000D01*
X75438000Y-38862000D02*
X75438000Y-42672000D01*
X52578000Y-42164000D02*
X51816000Y-42926000D01*
X59436000Y-39624000D02*
X59182000Y-39370000D01*
X54102000Y-42164000D02*
X52578000Y-42164000D01*
X59182000Y-39370000D02*
X56896000Y-39370000D01*
X54102000Y-42164000D02*
X56896000Y-44958000D01*
X56896000Y-44958000D02*
X66802000Y-44958000D01*
%TO.N,Net-(D2-Pad1)*%
X59690000Y-43180000D02*
X59436000Y-42926000D01*
X63246000Y-43180000D02*
X59690000Y-43180000D01*
%TO.N,Net-(R1-Pad1)*%
X68326000Y-30734000D02*
X68072000Y-30988000D01*
X67818000Y-30734000D02*
X66066000Y-30734000D01*
X64262000Y-32538000D02*
X64262000Y-36068000D01*
X72898000Y-31750000D02*
X72136000Y-30988000D01*
X64262000Y-36068000D02*
X64516000Y-36322000D01*
X72136000Y-30988000D02*
X71882000Y-30734000D01*
X81000000Y-31750000D02*
X72898000Y-31750000D01*
X64560000Y-32240000D02*
X64262000Y-32538000D01*
X68072000Y-30988000D02*
X67818000Y-30734000D01*
X71882000Y-30734000D02*
X68326000Y-30734000D01*
X66066000Y-30734000D02*
X64560000Y-32240000D01*
%TO.N,Net-(D2-Pad2)*%
X51562000Y-39370000D02*
X51816000Y-39624000D01*
X63246000Y-40640000D02*
X63246000Y-36890000D01*
X51562000Y-36576000D02*
X51562000Y-39370000D01*
X61916000Y-35560000D02*
X52578000Y-35560000D01*
X51860000Y-32240000D02*
X51562000Y-32538000D01*
X51562000Y-32538000D02*
X51562000Y-36068000D01*
X63246000Y-36890000D02*
X61916000Y-35560000D01*
X63560000Y-40640000D02*
X63246000Y-40640000D01*
X68950000Y-35250000D02*
X63560000Y-40640000D01*
X51562000Y-36068000D02*
X51816000Y-36322000D01*
X51816000Y-36322000D02*
X51562000Y-36576000D01*
X52578000Y-35560000D02*
X51816000Y-36322000D01*
X81000000Y-35250000D02*
X68950000Y-35250000D01*
%TO.N,Net-(SW11-Pad3)*%
X86000000Y-31610000D02*
X86000000Y-35110000D01*
%TO.N,Net-(J1-Pad1)*%
X70000000Y-93000000D02*
X69990000Y-92990000D01*
X69990000Y-90980000D02*
X82400000Y-78570000D01*
X82400000Y-78570000D02*
X82400000Y-56879000D01*
X72588000Y-66254000D02*
X69088000Y-66254000D01*
X80335000Y-54316000D02*
X76835000Y-54316000D01*
X88463000Y-54316000D02*
X84963000Y-54316000D01*
X85090000Y-78170000D02*
X85090000Y-66000000D01*
X88590000Y-66000000D02*
X85090000Y-66000000D01*
X80335000Y-66127000D02*
X76835000Y-66127000D01*
X55570000Y-54316000D02*
X52070000Y-54316000D01*
X63698000Y-66254000D02*
X60198000Y-66254000D01*
X82400000Y-56879000D02*
X84963000Y-54316000D01*
X72080000Y-54316000D02*
X68580000Y-54316000D01*
X77030000Y-86230000D02*
X85090000Y-78170000D01*
X69990000Y-92990000D02*
X69990000Y-90980000D01*
X63698000Y-54316000D02*
X60198000Y-54316000D01*
X55570000Y-66254000D02*
X52070000Y-66254000D01*
X77000000Y-86230000D02*
X77030000Y-86230000D01*
%TD*%
M02*
