%TF.GenerationSoftware,KiCad,Pcbnew,(6.0.11)*%
%TF.CreationDate,2023-04-04T09:39:12-05:00*%
%TF.ProjectId,TMatchPCB,544d6174-6368-4504-9342-2e6b69636164,rev?*%
%TF.SameCoordinates,Original*%
%TF.FileFunction,Legend,Top*%
%TF.FilePolarity,Positive*%
%FSLAX46Y46*%
G04 Gerber Fmt 4.6, Leading zero omitted, Abs format (unit mm)*
G04 Created by KiCad (PCBNEW (6.0.11)) date 2023-04-04 09:39:12*
%MOMM*%
%LPD*%
G01*
G04 APERTURE LIST*
%ADD10C,0.150000*%
%ADD11C,0.200000*%
%ADD12C,0.120000*%
%ADD13C,0.300000*%
%ADD14C,1.500000*%
G04 APERTURE END LIST*
D10*
X48666666Y-27071428D02*
X48666666Y-26595238D01*
X48952380Y-27166666D02*
X47952380Y-26833333D01*
X48952380Y-26500000D01*
X48952380Y-26166666D02*
X47952380Y-26166666D01*
X48952380Y-25595238D01*
X47952380Y-25595238D01*
X47952380Y-25261904D02*
X47952380Y-24690476D01*
X48952380Y-24976190D02*
X47952380Y-24976190D01*
X48428571Y-24357142D02*
X48428571Y-24023809D01*
X48952380Y-23880952D02*
X48952380Y-24357142D01*
X47952380Y-24357142D01*
X47952380Y-23880952D01*
X48952380Y-23452380D02*
X47952380Y-23452380D01*
X48952380Y-22880952D01*
X47952380Y-22880952D01*
X48952380Y-22404761D02*
X47952380Y-22404761D01*
X48952380Y-21833333D01*
X47952380Y-21833333D01*
X48666666Y-21404761D02*
X48666666Y-20928571D01*
X48952380Y-21500000D02*
X47952380Y-21166666D01*
X48952380Y-20833333D01*
X89428571Y-34217142D02*
X89476190Y-34074285D01*
X89523809Y-34026666D01*
X89619047Y-33979047D01*
X89761904Y-33979047D01*
X89857142Y-34026666D01*
X89904761Y-34074285D01*
X89952380Y-34169523D01*
X89952380Y-34550476D01*
X88952380Y-34550476D01*
X88952380Y-34217142D01*
X89000000Y-34121904D01*
X89047619Y-34074285D01*
X89142857Y-34026666D01*
X89238095Y-34026666D01*
X89333333Y-34074285D01*
X89380952Y-34121904D01*
X89428571Y-34217142D01*
X89428571Y-34550476D01*
X89476190Y-33360000D02*
X89952380Y-33360000D01*
X88952380Y-33693333D02*
X89476190Y-33360000D01*
X88952380Y-33026666D01*
X89952380Y-32693333D02*
X88952380Y-32693333D01*
X88952380Y-32312380D01*
X89000000Y-32217142D01*
X89047619Y-32169523D01*
X89142857Y-32121904D01*
X89285714Y-32121904D01*
X89380952Y-32169523D01*
X89428571Y-32217142D01*
X89476190Y-32312380D01*
X89476190Y-32693333D01*
X89072380Y-50929047D02*
X88072380Y-50929047D01*
X88072380Y-50548095D01*
X88120000Y-50452857D01*
X88167619Y-50405238D01*
X88262857Y-50357619D01*
X88405714Y-50357619D01*
X88500952Y-50405238D01*
X88548571Y-50452857D01*
X88596190Y-50548095D01*
X88596190Y-50929047D01*
X88977142Y-49357619D02*
X89024761Y-49405238D01*
X89072380Y-49548095D01*
X89072380Y-49643333D01*
X89024761Y-49786190D01*
X88929523Y-49881428D01*
X88834285Y-49929047D01*
X88643809Y-49976666D01*
X88500952Y-49976666D01*
X88310476Y-49929047D01*
X88215238Y-49881428D01*
X88120000Y-49786190D01*
X88072380Y-49643333D01*
X88072380Y-49548095D01*
X88120000Y-49405238D01*
X88167619Y-49357619D01*
X88548571Y-48595714D02*
X88596190Y-48452857D01*
X88643809Y-48405238D01*
X88739047Y-48357619D01*
X88881904Y-48357619D01*
X88977142Y-48405238D01*
X89024761Y-48452857D01*
X89072380Y-48548095D01*
X89072380Y-48929047D01*
X88072380Y-48929047D01*
X88072380Y-48595714D01*
X88120000Y-48500476D01*
X88167619Y-48452857D01*
X88262857Y-48405238D01*
X88358095Y-48405238D01*
X88453333Y-48452857D01*
X88500952Y-48500476D01*
X88548571Y-48595714D01*
X88548571Y-48929047D01*
X88072380Y-47310000D02*
X88072380Y-46738571D01*
X89072380Y-47024285D02*
X88072380Y-47024285D01*
X89072380Y-45643333D02*
X88072380Y-45643333D01*
X88786666Y-45310000D01*
X88072380Y-44976666D01*
X89072380Y-44976666D01*
X88786666Y-44548095D02*
X88786666Y-44071904D01*
X89072380Y-44643333D02*
X88072380Y-44310000D01*
X89072380Y-43976666D01*
X88072380Y-43786190D02*
X88072380Y-43214761D01*
X89072380Y-43500476D02*
X88072380Y-43500476D01*
X88977142Y-42310000D02*
X89024761Y-42357619D01*
X89072380Y-42500476D01*
X89072380Y-42595714D01*
X89024761Y-42738571D01*
X88929523Y-42833809D01*
X88834285Y-42881428D01*
X88643809Y-42929047D01*
X88500952Y-42929047D01*
X88310476Y-42881428D01*
X88215238Y-42833809D01*
X88120000Y-42738571D01*
X88072380Y-42595714D01*
X88072380Y-42500476D01*
X88120000Y-42357619D01*
X88167619Y-42310000D01*
X89072380Y-41881428D02*
X88072380Y-41881428D01*
X88548571Y-41881428D02*
X88548571Y-41310000D01*
X89072380Y-41310000D02*
X88072380Y-41310000D01*
X88548571Y-39738571D02*
X88596190Y-39595714D01*
X88643809Y-39548095D01*
X88739047Y-39500476D01*
X88881904Y-39500476D01*
X88977142Y-39548095D01*
X89024761Y-39595714D01*
X89072380Y-39690952D01*
X89072380Y-40071904D01*
X88072380Y-40071904D01*
X88072380Y-39738571D01*
X88120000Y-39643333D01*
X88167619Y-39595714D01*
X88262857Y-39548095D01*
X88358095Y-39548095D01*
X88453333Y-39595714D01*
X88500952Y-39643333D01*
X88548571Y-39738571D01*
X88548571Y-40071904D01*
X88596190Y-38881428D02*
X89072380Y-38881428D01*
X88072380Y-39214761D02*
X88596190Y-38881428D01*
X88072380Y-38548095D01*
X90682380Y-52524285D02*
X89682380Y-52524285D01*
X89682380Y-52286190D01*
X89730000Y-52143333D01*
X89825238Y-52048095D01*
X89920476Y-52000476D01*
X90110952Y-51952857D01*
X90253809Y-51952857D01*
X90444285Y-52000476D01*
X90539523Y-52048095D01*
X90634761Y-52143333D01*
X90682380Y-52286190D01*
X90682380Y-52524285D01*
X90396666Y-51571904D02*
X90396666Y-51095714D01*
X90682380Y-51667142D02*
X89682380Y-51333809D01*
X90682380Y-51000476D01*
X90682380Y-50667142D02*
X89682380Y-50667142D01*
X90682380Y-50095714D01*
X89682380Y-50095714D01*
X90682380Y-49619523D02*
X89682380Y-49619523D01*
X90158571Y-49143333D02*
X90158571Y-48810000D01*
X90682380Y-48667142D02*
X90682380Y-49143333D01*
X89682380Y-49143333D01*
X89682380Y-48667142D01*
X90682380Y-47762380D02*
X90682380Y-48238571D01*
X89682380Y-48238571D01*
X90682380Y-46667142D02*
X89682380Y-46667142D01*
X90396666Y-46333809D01*
X89682380Y-46000476D01*
X90682380Y-46000476D01*
X90396666Y-45571904D02*
X90396666Y-45095714D01*
X90682380Y-45667142D02*
X89682380Y-45333809D01*
X90682380Y-45000476D01*
X90682380Y-44095714D02*
X90206190Y-44429047D01*
X90682380Y-44667142D02*
X89682380Y-44667142D01*
X89682380Y-44286190D01*
X89730000Y-44190952D01*
X89777619Y-44143333D01*
X89872857Y-44095714D01*
X90015714Y-44095714D01*
X90110952Y-44143333D01*
X90158571Y-44190952D01*
X90206190Y-44286190D01*
X90206190Y-44667142D01*
X90682380Y-43667142D02*
X89682380Y-43667142D01*
X90682380Y-43095714D02*
X90110952Y-43524285D01*
X89682380Y-43095714D02*
X90253809Y-43667142D01*
X90634761Y-42714761D02*
X90682380Y-42571904D01*
X90682380Y-42333809D01*
X90634761Y-42238571D01*
X90587142Y-42190952D01*
X90491904Y-42143333D01*
X90396666Y-42143333D01*
X90301428Y-42190952D01*
X90253809Y-42238571D01*
X90206190Y-42333809D01*
X90158571Y-42524285D01*
X90110952Y-42619523D01*
X90063333Y-42667142D01*
X89968095Y-42714761D01*
X89872857Y-42714761D01*
X89777619Y-42667142D01*
X89730000Y-42619523D01*
X89682380Y-42524285D01*
X89682380Y-42286190D01*
X89730000Y-42143333D01*
X90682380Y-40952857D02*
X89682380Y-40952857D01*
X90682380Y-40381428D02*
X90110952Y-40810000D01*
X89682380Y-40381428D02*
X90253809Y-40952857D01*
X89682380Y-40048095D02*
X90682380Y-39810000D01*
X89968095Y-39619523D01*
X90682380Y-39429047D01*
X89682380Y-39190952D01*
X90015714Y-38381428D02*
X90682380Y-38381428D01*
X89634761Y-38619523D02*
X90349047Y-38857619D01*
X90349047Y-38238571D01*
X89682380Y-38000476D02*
X89682380Y-37429047D01*
X90682380Y-37714761D02*
X89682380Y-37714761D01*
X90682380Y-37095714D02*
X89682380Y-37095714D01*
X92197142Y-49643333D02*
X92244761Y-49690952D01*
X92292380Y-49833809D01*
X92292380Y-49929047D01*
X92244761Y-50071904D01*
X92149523Y-50167142D01*
X92054285Y-50214761D01*
X91863809Y-50262380D01*
X91720952Y-50262380D01*
X91530476Y-50214761D01*
X91435238Y-50167142D01*
X91340000Y-50071904D01*
X91292380Y-49929047D01*
X91292380Y-49833809D01*
X91340000Y-49690952D01*
X91387619Y-49643333D01*
X92197142Y-48643333D02*
X92244761Y-48690952D01*
X92292380Y-48833809D01*
X92292380Y-48929047D01*
X92244761Y-49071904D01*
X92149523Y-49167142D01*
X92054285Y-49214761D01*
X91863809Y-49262380D01*
X91720952Y-49262380D01*
X91530476Y-49214761D01*
X91435238Y-49167142D01*
X91340000Y-49071904D01*
X91292380Y-48929047D01*
X91292380Y-48833809D01*
X91340000Y-48690952D01*
X91387619Y-48643333D01*
X91911428Y-48214761D02*
X91911428Y-47452857D01*
X91768571Y-46643333D02*
X91816190Y-46500476D01*
X91863809Y-46452857D01*
X91959047Y-46405238D01*
X92101904Y-46405238D01*
X92197142Y-46452857D01*
X92244761Y-46500476D01*
X92292380Y-46595714D01*
X92292380Y-46976666D01*
X91292380Y-46976666D01*
X91292380Y-46643333D01*
X91340000Y-46548095D01*
X91387619Y-46500476D01*
X91482857Y-46452857D01*
X91578095Y-46452857D01*
X91673333Y-46500476D01*
X91720952Y-46548095D01*
X91768571Y-46643333D01*
X91768571Y-46976666D01*
X91816190Y-45786190D02*
X92292380Y-45786190D01*
X91292380Y-46119523D02*
X91816190Y-45786190D01*
X91292380Y-45452857D01*
X91911428Y-45119523D02*
X91911428Y-44357619D01*
X92244761Y-43929047D02*
X92292380Y-43786190D01*
X92292380Y-43548095D01*
X92244761Y-43452857D01*
X92197142Y-43405238D01*
X92101904Y-43357619D01*
X92006666Y-43357619D01*
X91911428Y-43405238D01*
X91863809Y-43452857D01*
X91816190Y-43548095D01*
X91768571Y-43738571D01*
X91720952Y-43833809D01*
X91673333Y-43881428D01*
X91578095Y-43929047D01*
X91482857Y-43929047D01*
X91387619Y-43881428D01*
X91340000Y-43833809D01*
X91292380Y-43738571D01*
X91292380Y-43500476D01*
X91340000Y-43357619D01*
X92006666Y-42976666D02*
X92006666Y-42500476D01*
X92292380Y-43071904D02*
X91292380Y-42738571D01*
X92292380Y-42405238D01*
X91625714Y-40881428D02*
X92292380Y-40881428D01*
X91244761Y-41119523D02*
X91959047Y-41357619D01*
X91959047Y-40738571D01*
X92197142Y-40357619D02*
X92244761Y-40310000D01*
X92292380Y-40357619D01*
X92244761Y-40405238D01*
X92197142Y-40357619D01*
X92292380Y-40357619D01*
X91292380Y-39690952D02*
X91292380Y-39595714D01*
X91340000Y-39500476D01*
X91387619Y-39452857D01*
X91482857Y-39405238D01*
X91673333Y-39357619D01*
X91911428Y-39357619D01*
X92101904Y-39405238D01*
X92197142Y-39452857D01*
X92244761Y-39500476D01*
X92292380Y-39595714D01*
X92292380Y-39690952D01*
X92244761Y-39786190D01*
X92197142Y-39833809D01*
X92101904Y-39881428D01*
X91911428Y-39929047D01*
X91673333Y-39929047D01*
X91482857Y-39881428D01*
X91387619Y-39833809D01*
X91340000Y-39786190D01*
X91292380Y-39690952D01*
X52092380Y-59710000D02*
X51092380Y-59710000D01*
X52092380Y-59233809D02*
X51092380Y-59233809D01*
X52092380Y-58662380D01*
X51092380Y-58662380D01*
X52092380Y-58186190D02*
X51092380Y-58186190D01*
X51092380Y-57948095D01*
X51140000Y-57805238D01*
X51235238Y-57710000D01*
X51330476Y-57662380D01*
X51520952Y-57614761D01*
X51663809Y-57614761D01*
X51854285Y-57662380D01*
X51949523Y-57710000D01*
X52044761Y-57805238D01*
X52092380Y-57948095D01*
X52092380Y-58186190D01*
X51187619Y-57233809D02*
X51140000Y-57186190D01*
X51092380Y-57090952D01*
X51092380Y-56852857D01*
X51140000Y-56757619D01*
X51187619Y-56710000D01*
X51282857Y-56662380D01*
X51378095Y-56662380D01*
X51520952Y-56710000D01*
X52092380Y-57281428D01*
X52092380Y-56662380D01*
X69742380Y-70560000D02*
X68742380Y-70560000D01*
X69742380Y-70083809D02*
X68742380Y-70083809D01*
X69742380Y-69512380D01*
X68742380Y-69512380D01*
X69742380Y-69036190D02*
X68742380Y-69036190D01*
X68742380Y-68798095D01*
X68790000Y-68655238D01*
X68885238Y-68560000D01*
X68980476Y-68512380D01*
X69170952Y-68464761D01*
X69313809Y-68464761D01*
X69504285Y-68512380D01*
X69599523Y-68560000D01*
X69694761Y-68655238D01*
X69742380Y-68798095D01*
X69742380Y-69036190D01*
X68742380Y-67560000D02*
X68742380Y-68036190D01*
X69218571Y-68083809D01*
X69170952Y-68036190D01*
X69123333Y-67940952D01*
X69123333Y-67702857D01*
X69170952Y-67607619D01*
X69218571Y-67560000D01*
X69313809Y-67512380D01*
X69551904Y-67512380D01*
X69647142Y-67560000D01*
X69694761Y-67607619D01*
X69742380Y-67702857D01*
X69742380Y-67940952D01*
X69694761Y-68036190D01*
X69647142Y-68083809D01*
X60882380Y-70770000D02*
X59882380Y-70770000D01*
X60882380Y-70293809D02*
X59882380Y-70293809D01*
X60882380Y-69722380D01*
X59882380Y-69722380D01*
X60882380Y-69246190D02*
X59882380Y-69246190D01*
X59882380Y-69008095D01*
X59930000Y-68865238D01*
X60025238Y-68770000D01*
X60120476Y-68722380D01*
X60310952Y-68674761D01*
X60453809Y-68674761D01*
X60644285Y-68722380D01*
X60739523Y-68770000D01*
X60834761Y-68865238D01*
X60882380Y-69008095D01*
X60882380Y-69246190D01*
X59882380Y-68341428D02*
X59882380Y-67722380D01*
X60263333Y-68055714D01*
X60263333Y-67912857D01*
X60310952Y-67817619D01*
X60358571Y-67770000D01*
X60453809Y-67722380D01*
X60691904Y-67722380D01*
X60787142Y-67770000D01*
X60834761Y-67817619D01*
X60882380Y-67912857D01*
X60882380Y-68198571D01*
X60834761Y-68293809D01*
X60787142Y-68341428D01*
X60812380Y-59710000D02*
X59812380Y-59710000D01*
X60812380Y-59233809D02*
X59812380Y-59233809D01*
X60812380Y-58662380D01*
X59812380Y-58662380D01*
X60812380Y-58186190D02*
X59812380Y-58186190D01*
X59812380Y-57948095D01*
X59860000Y-57805238D01*
X59955238Y-57710000D01*
X60050476Y-57662380D01*
X60240952Y-57614761D01*
X60383809Y-57614761D01*
X60574285Y-57662380D01*
X60669523Y-57710000D01*
X60764761Y-57805238D01*
X60812380Y-57948095D01*
X60812380Y-58186190D01*
X60145714Y-56757619D02*
X60812380Y-56757619D01*
X59764761Y-56995714D02*
X60479047Y-57233809D01*
X60479047Y-56614761D01*
X78702380Y-59640000D02*
X77702380Y-59640000D01*
X78702380Y-59163809D02*
X77702380Y-59163809D01*
X78702380Y-58592380D01*
X77702380Y-58592380D01*
X78702380Y-58116190D02*
X77702380Y-58116190D01*
X77702380Y-57878095D01*
X77750000Y-57735238D01*
X77845238Y-57640000D01*
X77940476Y-57592380D01*
X78130952Y-57544761D01*
X78273809Y-57544761D01*
X78464285Y-57592380D01*
X78559523Y-57640000D01*
X78654761Y-57735238D01*
X78702380Y-57878095D01*
X78702380Y-58116190D01*
X78130952Y-56973333D02*
X78083333Y-57068571D01*
X78035714Y-57116190D01*
X77940476Y-57163809D01*
X77892857Y-57163809D01*
X77797619Y-57116190D01*
X77750000Y-57068571D01*
X77702380Y-56973333D01*
X77702380Y-56782857D01*
X77750000Y-56687619D01*
X77797619Y-56640000D01*
X77892857Y-56592380D01*
X77940476Y-56592380D01*
X78035714Y-56640000D01*
X78083333Y-56687619D01*
X78130952Y-56782857D01*
X78130952Y-56973333D01*
X78178571Y-57068571D01*
X78226190Y-57116190D01*
X78321428Y-57163809D01*
X78511904Y-57163809D01*
X78607142Y-57116190D01*
X78654761Y-57068571D01*
X78702380Y-56973333D01*
X78702380Y-56782857D01*
X78654761Y-56687619D01*
X78607142Y-56640000D01*
X78511904Y-56592380D01*
X78321428Y-56592380D01*
X78226190Y-56640000D01*
X78178571Y-56687619D01*
X78130952Y-56782857D01*
X69852380Y-59640000D02*
X68852380Y-59640000D01*
X69852380Y-59163809D02*
X68852380Y-59163809D01*
X69852380Y-58592380D01*
X68852380Y-58592380D01*
X69852380Y-58116190D02*
X68852380Y-58116190D01*
X68852380Y-57878095D01*
X68900000Y-57735238D01*
X68995238Y-57640000D01*
X69090476Y-57592380D01*
X69280952Y-57544761D01*
X69423809Y-57544761D01*
X69614285Y-57592380D01*
X69709523Y-57640000D01*
X69804761Y-57735238D01*
X69852380Y-57878095D01*
X69852380Y-58116190D01*
X68852380Y-56687619D02*
X68852380Y-56878095D01*
X68900000Y-56973333D01*
X68947619Y-57020952D01*
X69090476Y-57116190D01*
X69280952Y-57163809D01*
X69661904Y-57163809D01*
X69757142Y-57116190D01*
X69804761Y-57068571D01*
X69852380Y-56973333D01*
X69852380Y-56782857D01*
X69804761Y-56687619D01*
X69757142Y-56640000D01*
X69661904Y-56592380D01*
X69423809Y-56592380D01*
X69328571Y-56640000D01*
X69280952Y-56687619D01*
X69233333Y-56782857D01*
X69233333Y-56973333D01*
X69280952Y-57068571D01*
X69328571Y-57116190D01*
X69423809Y-57163809D01*
X52192380Y-70810000D02*
X51192380Y-70810000D01*
X52192380Y-70333809D02*
X51192380Y-70333809D01*
X52192380Y-69762380D01*
X51192380Y-69762380D01*
X52192380Y-69286190D02*
X51192380Y-69286190D01*
X51192380Y-69048095D01*
X51240000Y-68905238D01*
X51335238Y-68810000D01*
X51430476Y-68762380D01*
X51620952Y-68714761D01*
X51763809Y-68714761D01*
X51954285Y-68762380D01*
X52049523Y-68810000D01*
X52144761Y-68905238D01*
X52192380Y-69048095D01*
X52192380Y-69286190D01*
X52192380Y-67762380D02*
X52192380Y-68333809D01*
X52192380Y-68048095D02*
X51192380Y-68048095D01*
X51335238Y-68143333D01*
X51430476Y-68238571D01*
X51478095Y-68333809D01*
X78772380Y-70320000D02*
X77772380Y-70320000D01*
X78772380Y-69843809D02*
X77772380Y-69843809D01*
X78772380Y-69272380D01*
X77772380Y-69272380D01*
X78772380Y-68796190D02*
X77772380Y-68796190D01*
X77772380Y-68558095D01*
X77820000Y-68415238D01*
X77915238Y-68320000D01*
X78010476Y-68272380D01*
X78200952Y-68224761D01*
X78343809Y-68224761D01*
X78534285Y-68272380D01*
X78629523Y-68320000D01*
X78724761Y-68415238D01*
X78772380Y-68558095D01*
X78772380Y-68796190D01*
X77772380Y-67891428D02*
X77772380Y-67224761D01*
X78772380Y-67653333D01*
X77952380Y-34910476D02*
X76952380Y-34910476D01*
X77666666Y-34577142D01*
X76952380Y-34243809D01*
X77952380Y-34243809D01*
X77428571Y-33767619D02*
X77428571Y-33434285D01*
X77952380Y-33291428D02*
X77952380Y-33767619D01*
X76952380Y-33767619D01*
X76952380Y-33291428D01*
X77666666Y-32910476D02*
X77666666Y-32434285D01*
X77952380Y-33005714D02*
X76952380Y-32672380D01*
X77952380Y-32339047D01*
X77904761Y-32053333D02*
X77952380Y-31910476D01*
X77952380Y-31672380D01*
X77904761Y-31577142D01*
X77857142Y-31529523D01*
X77761904Y-31481904D01*
X77666666Y-31481904D01*
X77571428Y-31529523D01*
X77523809Y-31577142D01*
X77476190Y-31672380D01*
X77428571Y-31862857D01*
X77380952Y-31958095D01*
X77333333Y-32005714D01*
X77238095Y-32053333D01*
X77142857Y-32053333D01*
X77047619Y-32005714D01*
X77000000Y-31958095D01*
X76952380Y-31862857D01*
X76952380Y-31624761D01*
X77000000Y-31481904D01*
X90452380Y-29785714D02*
X90452380Y-29214285D01*
X91452380Y-29500000D02*
X90452380Y-29500000D01*
X91452380Y-28309523D02*
X90976190Y-28642857D01*
X91452380Y-28880952D02*
X90452380Y-28880952D01*
X90452380Y-28500000D01*
X90500000Y-28404761D01*
X90547619Y-28357142D01*
X90642857Y-28309523D01*
X90785714Y-28309523D01*
X90880952Y-28357142D01*
X90928571Y-28404761D01*
X90976190Y-28500000D01*
X90976190Y-28880952D01*
X91166666Y-27928571D02*
X91166666Y-27452380D01*
X91452380Y-28023809D02*
X90452380Y-27690476D01*
X91452380Y-27357142D01*
X91452380Y-27023809D02*
X90452380Y-27023809D01*
X91452380Y-26452380D01*
X90452380Y-26452380D01*
X91404761Y-26023809D02*
X91452380Y-25880952D01*
X91452380Y-25642857D01*
X91404761Y-25547619D01*
X91357142Y-25500000D01*
X91261904Y-25452380D01*
X91166666Y-25452380D01*
X91071428Y-25500000D01*
X91023809Y-25547619D01*
X90976190Y-25642857D01*
X90928571Y-25833333D01*
X90880952Y-25928571D01*
X90833333Y-25976190D01*
X90738095Y-26023809D01*
X90642857Y-26023809D01*
X90547619Y-25976190D01*
X90500000Y-25928571D01*
X90452380Y-25833333D01*
X90452380Y-25595238D01*
X90500000Y-25452380D01*
X91357142Y-24452380D02*
X91404761Y-24500000D01*
X91452380Y-24642857D01*
X91452380Y-24738095D01*
X91404761Y-24880952D01*
X91309523Y-24976190D01*
X91214285Y-25023809D01*
X91023809Y-25071428D01*
X90880952Y-25071428D01*
X90690476Y-25023809D01*
X90595238Y-24976190D01*
X90500000Y-24880952D01*
X90452380Y-24738095D01*
X90452380Y-24642857D01*
X90500000Y-24500000D01*
X90547619Y-24452380D01*
X90928571Y-24023809D02*
X90928571Y-23690476D01*
X91452380Y-23547619D02*
X91452380Y-24023809D01*
X90452380Y-24023809D01*
X90452380Y-23547619D01*
X91452380Y-23119047D02*
X90452380Y-23119047D01*
X90452380Y-22785714D02*
X91452380Y-22452380D01*
X90452380Y-22119047D01*
X90928571Y-21785714D02*
X90928571Y-21452380D01*
X91452380Y-21309523D02*
X91452380Y-21785714D01*
X90452380Y-21785714D01*
X90452380Y-21309523D01*
X91452380Y-20309523D02*
X90976190Y-20642857D01*
X91452380Y-20880952D02*
X90452380Y-20880952D01*
X90452380Y-20500000D01*
X90500000Y-20404761D01*
X90547619Y-20357142D01*
X90642857Y-20309523D01*
X90785714Y-20309523D01*
X90880952Y-20357142D01*
X90928571Y-20404761D01*
X90976190Y-20500000D01*
X90976190Y-20880952D01*
%TO.C,R2*%
X81262380Y-44786666D02*
X80786190Y-45120000D01*
X81262380Y-45358095D02*
X80262380Y-45358095D01*
X80262380Y-44977142D01*
X80310000Y-44881904D01*
X80357619Y-44834285D01*
X80452857Y-44786666D01*
X80595714Y-44786666D01*
X80690952Y-44834285D01*
X80738571Y-44881904D01*
X80786190Y-44977142D01*
X80786190Y-45358095D01*
X80357619Y-44405714D02*
X80310000Y-44358095D01*
X80262380Y-44262857D01*
X80262380Y-44024761D01*
X80310000Y-43929523D01*
X80357619Y-43881904D01*
X80452857Y-43834285D01*
X80548095Y-43834285D01*
X80690952Y-43881904D01*
X81262380Y-44453333D01*
X81262380Y-43834285D01*
%TO.C,R1*%
X72992380Y-44896666D02*
X72516190Y-45230000D01*
X72992380Y-45468095D02*
X71992380Y-45468095D01*
X71992380Y-45087142D01*
X72040000Y-44991904D01*
X72087619Y-44944285D01*
X72182857Y-44896666D01*
X72325714Y-44896666D01*
X72420952Y-44944285D01*
X72468571Y-44991904D01*
X72516190Y-45087142D01*
X72516190Y-45468095D01*
X72992380Y-43944285D02*
X72992380Y-44515714D01*
X72992380Y-44230000D02*
X71992380Y-44230000D01*
X72135238Y-44325238D01*
X72230476Y-44420476D01*
X72278095Y-44515714D01*
%TO.C,R6*%
X67832380Y-38226666D02*
X67356190Y-38560000D01*
X67832380Y-38798095D02*
X66832380Y-38798095D01*
X66832380Y-38417142D01*
X66880000Y-38321904D01*
X66927619Y-38274285D01*
X67022857Y-38226666D01*
X67165714Y-38226666D01*
X67260952Y-38274285D01*
X67308571Y-38321904D01*
X67356190Y-38417142D01*
X67356190Y-38798095D01*
X66832380Y-37369523D02*
X66832380Y-37560000D01*
X66880000Y-37655238D01*
X66927619Y-37702857D01*
X67070476Y-37798095D01*
X67260952Y-37845714D01*
X67641904Y-37845714D01*
X67737142Y-37798095D01*
X67784761Y-37750476D01*
X67832380Y-37655238D01*
X67832380Y-37464761D01*
X67784761Y-37369523D01*
X67737142Y-37321904D01*
X67641904Y-37274285D01*
X67403809Y-37274285D01*
X67308571Y-37321904D01*
X67260952Y-37369523D01*
X67213333Y-37464761D01*
X67213333Y-37655238D01*
X67260952Y-37750476D01*
X67308571Y-37798095D01*
X67403809Y-37845714D01*
%TO.C,SW3*%
X73095238Y-67666666D02*
X73047619Y-67809523D01*
X73047619Y-68047619D01*
X73095238Y-68142857D01*
X73142857Y-68190476D01*
X73238095Y-68238095D01*
X73333333Y-68238095D01*
X73428571Y-68190476D01*
X73476190Y-68142857D01*
X73523809Y-68047619D01*
X73571428Y-67857142D01*
X73619047Y-67761904D01*
X73666666Y-67714285D01*
X73761904Y-67666666D01*
X73857142Y-67666666D01*
X73952380Y-67714285D01*
X74000000Y-67761904D01*
X74047619Y-67857142D01*
X74047619Y-68095238D01*
X74000000Y-68238095D01*
X74047619Y-68571428D02*
X73047619Y-68809523D01*
X73761904Y-69000000D01*
X73047619Y-69190476D01*
X74047619Y-69428571D01*
X74047619Y-69714285D02*
X74047619Y-70333333D01*
X73666666Y-70000000D01*
X73666666Y-70142857D01*
X73619047Y-70238095D01*
X73571428Y-70285714D01*
X73476190Y-70333333D01*
X73238095Y-70333333D01*
X73142857Y-70285714D01*
X73095238Y-70238095D01*
X73047619Y-70142857D01*
X73047619Y-69857142D01*
X73095238Y-69761904D01*
X73142857Y-69714285D01*
D11*
%TO.C,J3*%
X57166666Y-22064380D02*
X57166666Y-22778666D01*
X57119047Y-22921523D01*
X57023809Y-23016761D01*
X56880952Y-23064380D01*
X56785714Y-23064380D01*
X57547619Y-22064380D02*
X58166666Y-22064380D01*
X57833333Y-22445333D01*
X57976190Y-22445333D01*
X58071428Y-22492952D01*
X58119047Y-22540571D01*
X58166666Y-22635809D01*
X58166666Y-22873904D01*
X58119047Y-22969142D01*
X58071428Y-23016761D01*
X57976190Y-23064380D01*
X57690476Y-23064380D01*
X57595238Y-23016761D01*
X57547619Y-22969142D01*
D10*
%TO.C,SW8*%
X82095238Y-56666666D02*
X82047619Y-56809523D01*
X82047619Y-57047619D01*
X82095238Y-57142857D01*
X82142857Y-57190476D01*
X82238095Y-57238095D01*
X82333333Y-57238095D01*
X82428571Y-57190476D01*
X82476190Y-57142857D01*
X82523809Y-57047619D01*
X82571428Y-56857142D01*
X82619047Y-56761904D01*
X82666666Y-56714285D01*
X82761904Y-56666666D01*
X82857142Y-56666666D01*
X82952380Y-56714285D01*
X83000000Y-56761904D01*
X83047619Y-56857142D01*
X83047619Y-57095238D01*
X83000000Y-57238095D01*
X83047619Y-57571428D02*
X82047619Y-57809523D01*
X82761904Y-58000000D01*
X82047619Y-58190476D01*
X83047619Y-58428571D01*
X82619047Y-58952380D02*
X82666666Y-58857142D01*
X82714285Y-58809523D01*
X82809523Y-58761904D01*
X82857142Y-58761904D01*
X82952380Y-58809523D01*
X83000000Y-58857142D01*
X83047619Y-58952380D01*
X83047619Y-59142857D01*
X83000000Y-59238095D01*
X82952380Y-59285714D01*
X82857142Y-59333333D01*
X82809523Y-59333333D01*
X82714285Y-59285714D01*
X82666666Y-59238095D01*
X82619047Y-59142857D01*
X82619047Y-58952380D01*
X82571428Y-58857142D01*
X82523809Y-58809523D01*
X82428571Y-58761904D01*
X82238095Y-58761904D01*
X82142857Y-58809523D01*
X82095238Y-58857142D01*
X82047619Y-58952380D01*
X82047619Y-59142857D01*
X82095238Y-59238095D01*
X82142857Y-59285714D01*
X82238095Y-59333333D01*
X82428571Y-59333333D01*
X82523809Y-59285714D01*
X82571428Y-59238095D01*
X82619047Y-59142857D01*
%TO.C,SW2*%
X64095238Y-67666666D02*
X64047619Y-67809523D01*
X64047619Y-68047619D01*
X64095238Y-68142857D01*
X64142857Y-68190476D01*
X64238095Y-68238095D01*
X64333333Y-68238095D01*
X64428571Y-68190476D01*
X64476190Y-68142857D01*
X64523809Y-68047619D01*
X64571428Y-67857142D01*
X64619047Y-67761904D01*
X64666666Y-67714285D01*
X64761904Y-67666666D01*
X64857142Y-67666666D01*
X64952380Y-67714285D01*
X65000000Y-67761904D01*
X65047619Y-67857142D01*
X65047619Y-68095238D01*
X65000000Y-68238095D01*
X65047619Y-68571428D02*
X64047619Y-68809523D01*
X64761904Y-69000000D01*
X64047619Y-69190476D01*
X65047619Y-69428571D01*
X64952380Y-69761904D02*
X65000000Y-69809523D01*
X65047619Y-69904761D01*
X65047619Y-70142857D01*
X65000000Y-70238095D01*
X64952380Y-70285714D01*
X64857142Y-70333333D01*
X64761904Y-70333333D01*
X64619047Y-70285714D01*
X64047619Y-69714285D01*
X64047619Y-70333333D01*
%TO.C,D2*%
X65591904Y-51997380D02*
X65591904Y-50997380D01*
X65830000Y-50997380D01*
X65972857Y-51045000D01*
X66068095Y-51140238D01*
X66115714Y-51235476D01*
X66163333Y-51425952D01*
X66163333Y-51568809D01*
X66115714Y-51759285D01*
X66068095Y-51854523D01*
X65972857Y-51949761D01*
X65830000Y-51997380D01*
X65591904Y-51997380D01*
X66544285Y-51092619D02*
X66591904Y-51045000D01*
X66687142Y-50997380D01*
X66925238Y-50997380D01*
X67020476Y-51045000D01*
X67068095Y-51092619D01*
X67115714Y-51187857D01*
X67115714Y-51283095D01*
X67068095Y-51425952D01*
X66496666Y-51997380D01*
X67115714Y-51997380D01*
%TO.C,SW7*%
X73095238Y-56666666D02*
X73047619Y-56809523D01*
X73047619Y-57047619D01*
X73095238Y-57142857D01*
X73142857Y-57190476D01*
X73238095Y-57238095D01*
X73333333Y-57238095D01*
X73428571Y-57190476D01*
X73476190Y-57142857D01*
X73523809Y-57047619D01*
X73571428Y-56857142D01*
X73619047Y-56761904D01*
X73666666Y-56714285D01*
X73761904Y-56666666D01*
X73857142Y-56666666D01*
X73952380Y-56714285D01*
X74000000Y-56761904D01*
X74047619Y-56857142D01*
X74047619Y-57095238D01*
X74000000Y-57238095D01*
X74047619Y-57571428D02*
X73047619Y-57809523D01*
X73761904Y-58000000D01*
X73047619Y-58190476D01*
X74047619Y-58428571D01*
X74047619Y-58714285D02*
X74047619Y-59380952D01*
X73047619Y-58952380D01*
%TO.C,SW5*%
X55345238Y-56666666D02*
X55297619Y-56809523D01*
X55297619Y-57047619D01*
X55345238Y-57142857D01*
X55392857Y-57190476D01*
X55488095Y-57238095D01*
X55583333Y-57238095D01*
X55678571Y-57190476D01*
X55726190Y-57142857D01*
X55773809Y-57047619D01*
X55821428Y-56857142D01*
X55869047Y-56761904D01*
X55916666Y-56714285D01*
X56011904Y-56666666D01*
X56107142Y-56666666D01*
X56202380Y-56714285D01*
X56250000Y-56761904D01*
X56297619Y-56857142D01*
X56297619Y-57095238D01*
X56250000Y-57238095D01*
X56297619Y-57571428D02*
X55297619Y-57809523D01*
X56011904Y-58000000D01*
X55297619Y-58190476D01*
X56297619Y-58428571D01*
X56297619Y-59285714D02*
X56297619Y-58809523D01*
X55821428Y-58761904D01*
X55869047Y-58809523D01*
X55916666Y-58904761D01*
X55916666Y-59142857D01*
X55869047Y-59238095D01*
X55821428Y-59285714D01*
X55726190Y-59333333D01*
X55488095Y-59333333D01*
X55392857Y-59285714D01*
X55345238Y-59238095D01*
X55297619Y-59142857D01*
X55297619Y-58904761D01*
X55345238Y-58809523D01*
X55392857Y-58761904D01*
%TO.C,R5*%
X63502380Y-38196666D02*
X63026190Y-38530000D01*
X63502380Y-38768095D02*
X62502380Y-38768095D01*
X62502380Y-38387142D01*
X62550000Y-38291904D01*
X62597619Y-38244285D01*
X62692857Y-38196666D01*
X62835714Y-38196666D01*
X62930952Y-38244285D01*
X62978571Y-38291904D01*
X63026190Y-38387142D01*
X63026190Y-38768095D01*
X62502380Y-37291904D02*
X62502380Y-37768095D01*
X62978571Y-37815714D01*
X62930952Y-37768095D01*
X62883333Y-37672857D01*
X62883333Y-37434761D01*
X62930952Y-37339523D01*
X62978571Y-37291904D01*
X63073809Y-37244285D01*
X63311904Y-37244285D01*
X63407142Y-37291904D01*
X63454761Y-37339523D01*
X63502380Y-37434761D01*
X63502380Y-37672857D01*
X63454761Y-37768095D01*
X63407142Y-37815714D01*
%TO.C,R4*%
X85342380Y-44786666D02*
X84866190Y-45120000D01*
X85342380Y-45358095D02*
X84342380Y-45358095D01*
X84342380Y-44977142D01*
X84390000Y-44881904D01*
X84437619Y-44834285D01*
X84532857Y-44786666D01*
X84675714Y-44786666D01*
X84770952Y-44834285D01*
X84818571Y-44881904D01*
X84866190Y-44977142D01*
X84866190Y-45358095D01*
X84675714Y-43929523D02*
X85342380Y-43929523D01*
X84294761Y-44167619D02*
X85009047Y-44405714D01*
X85009047Y-43786666D01*
D11*
%TO.C,J6*%
X81666666Y-21934380D02*
X81666666Y-22648666D01*
X81619047Y-22791523D01*
X81523809Y-22886761D01*
X81380952Y-22934380D01*
X81285714Y-22934380D01*
X82571428Y-21934380D02*
X82380952Y-21934380D01*
X82285714Y-21982000D01*
X82238095Y-22029619D01*
X82142857Y-22172476D01*
X82095238Y-22362952D01*
X82095238Y-22743904D01*
X82142857Y-22839142D01*
X82190476Y-22886761D01*
X82285714Y-22934380D01*
X82476190Y-22934380D01*
X82571428Y-22886761D01*
X82619047Y-22839142D01*
X82666666Y-22743904D01*
X82666666Y-22505809D01*
X82619047Y-22410571D01*
X82571428Y-22362952D01*
X82476190Y-22315333D01*
X82285714Y-22315333D01*
X82190476Y-22362952D01*
X82142857Y-22410571D01*
X82095238Y-22505809D01*
D10*
%TO.C,SW6*%
X64095238Y-56666666D02*
X64047619Y-56809523D01*
X64047619Y-57047619D01*
X64095238Y-57142857D01*
X64142857Y-57190476D01*
X64238095Y-57238095D01*
X64333333Y-57238095D01*
X64428571Y-57190476D01*
X64476190Y-57142857D01*
X64523809Y-57047619D01*
X64571428Y-56857142D01*
X64619047Y-56761904D01*
X64666666Y-56714285D01*
X64761904Y-56666666D01*
X64857142Y-56666666D01*
X64952380Y-56714285D01*
X65000000Y-56761904D01*
X65047619Y-56857142D01*
X65047619Y-57095238D01*
X65000000Y-57238095D01*
X65047619Y-57571428D02*
X64047619Y-57809523D01*
X64761904Y-58000000D01*
X64047619Y-58190476D01*
X65047619Y-58428571D01*
X65047619Y-59238095D02*
X65047619Y-59047619D01*
X65000000Y-58952380D01*
X64952380Y-58904761D01*
X64809523Y-58809523D01*
X64619047Y-58761904D01*
X64238095Y-58761904D01*
X64142857Y-58809523D01*
X64095238Y-58857142D01*
X64047619Y-58952380D01*
X64047619Y-59142857D01*
X64095238Y-59238095D01*
X64142857Y-59285714D01*
X64238095Y-59333333D01*
X64476190Y-59333333D01*
X64571428Y-59285714D01*
X64619047Y-59238095D01*
X64666666Y-59142857D01*
X64666666Y-58952380D01*
X64619047Y-58857142D01*
X64571428Y-58809523D01*
X64476190Y-58761904D01*
%TO.C,R3*%
X77142380Y-44896666D02*
X76666190Y-45230000D01*
X77142380Y-45468095D02*
X76142380Y-45468095D01*
X76142380Y-45087142D01*
X76190000Y-44991904D01*
X76237619Y-44944285D01*
X76332857Y-44896666D01*
X76475714Y-44896666D01*
X76570952Y-44944285D01*
X76618571Y-44991904D01*
X76666190Y-45087142D01*
X76666190Y-45468095D01*
X76142380Y-44563333D02*
X76142380Y-43944285D01*
X76523333Y-44277619D01*
X76523333Y-44134761D01*
X76570952Y-44039523D01*
X76618571Y-43991904D01*
X76713809Y-43944285D01*
X76951904Y-43944285D01*
X77047142Y-43991904D01*
X77094761Y-44039523D01*
X77142380Y-44134761D01*
X77142380Y-44420476D01*
X77094761Y-44515714D01*
X77047142Y-44563333D01*
%TO.C,R7*%
X57642380Y-46986666D02*
X57166190Y-47320000D01*
X57642380Y-47558095D02*
X56642380Y-47558095D01*
X56642380Y-47177142D01*
X56690000Y-47081904D01*
X56737619Y-47034285D01*
X56832857Y-46986666D01*
X56975714Y-46986666D01*
X57070952Y-47034285D01*
X57118571Y-47081904D01*
X57166190Y-47177142D01*
X57166190Y-47558095D01*
X56642380Y-46653333D02*
X56642380Y-45986666D01*
X57642380Y-46415238D01*
%TO.C,D1*%
X57682380Y-36418095D02*
X56682380Y-36418095D01*
X56682380Y-36180000D01*
X56730000Y-36037142D01*
X56825238Y-35941904D01*
X56920476Y-35894285D01*
X57110952Y-35846666D01*
X57253809Y-35846666D01*
X57444285Y-35894285D01*
X57539523Y-35941904D01*
X57634761Y-36037142D01*
X57682380Y-36180000D01*
X57682380Y-36418095D01*
X57682380Y-34894285D02*
X57682380Y-35465714D01*
X57682380Y-35180000D02*
X56682380Y-35180000D01*
X56825238Y-35275238D01*
X56920476Y-35370476D01*
X56968095Y-35465714D01*
%TO.C,SW1*%
X55345238Y-67666666D02*
X55297619Y-67809523D01*
X55297619Y-68047619D01*
X55345238Y-68142857D01*
X55392857Y-68190476D01*
X55488095Y-68238095D01*
X55583333Y-68238095D01*
X55678571Y-68190476D01*
X55726190Y-68142857D01*
X55773809Y-68047619D01*
X55821428Y-67857142D01*
X55869047Y-67761904D01*
X55916666Y-67714285D01*
X56011904Y-67666666D01*
X56107142Y-67666666D01*
X56202380Y-67714285D01*
X56250000Y-67761904D01*
X56297619Y-67857142D01*
X56297619Y-68095238D01*
X56250000Y-68238095D01*
X56297619Y-68571428D02*
X55297619Y-68809523D01*
X56011904Y-69000000D01*
X55297619Y-69190476D01*
X56297619Y-69428571D01*
X55297619Y-70333333D02*
X55297619Y-69761904D01*
X55297619Y-70047619D02*
X56297619Y-70047619D01*
X56154761Y-69952380D01*
X56059523Y-69857142D01*
X56011904Y-69761904D01*
%TO.C,SW4*%
X82095238Y-67666666D02*
X82047619Y-67809523D01*
X82047619Y-68047619D01*
X82095238Y-68142857D01*
X82142857Y-68190476D01*
X82238095Y-68238095D01*
X82333333Y-68238095D01*
X82428571Y-68190476D01*
X82476190Y-68142857D01*
X82523809Y-68047619D01*
X82571428Y-67857142D01*
X82619047Y-67761904D01*
X82666666Y-67714285D01*
X82761904Y-67666666D01*
X82857142Y-67666666D01*
X82952380Y-67714285D01*
X83000000Y-67761904D01*
X83047619Y-67857142D01*
X83047619Y-68095238D01*
X83000000Y-68238095D01*
X83047619Y-68571428D02*
X82047619Y-68809523D01*
X82761904Y-69000000D01*
X82047619Y-69190476D01*
X83047619Y-69428571D01*
X82714285Y-70238095D02*
X82047619Y-70238095D01*
X83095238Y-70000000D02*
X82380952Y-69761904D01*
X82380952Y-70380952D01*
%TO.C,SW9*%
X82166666Y-34014761D02*
X82309523Y-34062380D01*
X82547619Y-34062380D01*
X82642857Y-34014761D01*
X82690476Y-33967142D01*
X82738095Y-33871904D01*
X82738095Y-33776666D01*
X82690476Y-33681428D01*
X82642857Y-33633809D01*
X82547619Y-33586190D01*
X82357142Y-33538571D01*
X82261904Y-33490952D01*
X82214285Y-33443333D01*
X82166666Y-33348095D01*
X82166666Y-33252857D01*
X82214285Y-33157619D01*
X82261904Y-33110000D01*
X82357142Y-33062380D01*
X82595238Y-33062380D01*
X82738095Y-33110000D01*
X83071428Y-33062380D02*
X83309523Y-34062380D01*
X83500000Y-33348095D01*
X83690476Y-34062380D01*
X83928571Y-33062380D01*
X84357142Y-34062380D02*
X84547619Y-34062380D01*
X84642857Y-34014761D01*
X84690476Y-33967142D01*
X84785714Y-33824285D01*
X84833333Y-33633809D01*
X84833333Y-33252857D01*
X84785714Y-33157619D01*
X84738095Y-33110000D01*
X84642857Y-33062380D01*
X84452380Y-33062380D01*
X84357142Y-33110000D01*
X84309523Y-33157619D01*
X84261904Y-33252857D01*
X84261904Y-33490952D01*
X84309523Y-33586190D01*
X84357142Y-33633809D01*
X84452380Y-33681428D01*
X84642857Y-33681428D01*
X84738095Y-33633809D01*
X84785714Y-33586190D01*
X84833333Y-33490952D01*
D12*
%TO.C,R2*%
X79090000Y-40000000D02*
X79090000Y-49240000D01*
X82530000Y-40000000D02*
X79090000Y-40000000D01*
X79090000Y-49240000D02*
X82530000Y-49240000D01*
X82530000Y-49240000D02*
X82530000Y-40000000D01*
X80810000Y-39310000D02*
X80810000Y-40000000D01*
X80810000Y-49930000D02*
X80810000Y-49240000D01*
%TO.C,R1*%
X70820000Y-40110000D02*
X70820000Y-49350000D01*
X70820000Y-49350000D02*
X74260000Y-49350000D01*
X72540000Y-50040000D02*
X72540000Y-49350000D01*
X72540000Y-39420000D02*
X72540000Y-40110000D01*
X74260000Y-49350000D02*
X74260000Y-40110000D01*
X74260000Y-40110000D02*
X70820000Y-40110000D01*
%TO.C,R6*%
X67380000Y-32750000D02*
X67380000Y-33440000D01*
X65660000Y-42680000D02*
X69100000Y-42680000D01*
X65660000Y-33440000D02*
X65660000Y-42680000D01*
X67380000Y-43370000D02*
X67380000Y-42680000D01*
X69100000Y-33440000D02*
X65660000Y-33440000D01*
X69100000Y-42680000D02*
X69100000Y-33440000D01*
%TO.C,SW3*%
X77000000Y-74000000D02*
X70500000Y-74000000D01*
X70500000Y-74000000D02*
X70500000Y-64000000D01*
X77000000Y-64000000D02*
X77000000Y-74000000D01*
X70500000Y-64000000D02*
X77000000Y-64000000D01*
D13*
%TO.C,J3*%
X50100000Y-15500000D02*
X50100000Y-29200000D01*
X64900000Y-15500000D02*
X50100000Y-15500000D01*
X64900000Y-29200000D02*
X64900000Y-15500000D01*
X64900000Y-29200000D02*
X50100000Y-29200000D01*
D12*
%TO.C,SW8*%
X79500000Y-53000000D02*
X86000000Y-53000000D01*
X86000000Y-63000000D02*
X79500000Y-63000000D01*
X86000000Y-53000000D02*
X86000000Y-63000000D01*
X79500000Y-63000000D02*
X79500000Y-53000000D01*
%TO.C,SW2*%
X61500000Y-74000000D02*
X61500000Y-64000000D01*
X61500000Y-64000000D02*
X68000000Y-64000000D01*
X68000000Y-64000000D02*
X68000000Y-74000000D01*
X68000000Y-74000000D02*
X61500000Y-74000000D01*
%TO.C,D2*%
X64834000Y-49890000D02*
X64990000Y-49890000D01*
X67150000Y-49890000D02*
X67306000Y-49890000D01*
X67305516Y-49890000D02*
G75*
G03*
X67148608Y-46657665I-1235516J1560000D01*
G01*
X64991392Y-46657665D02*
G75*
G03*
X64834484Y-49890000I1078608J-1672335D01*
G01*
X64990163Y-47288870D02*
G75*
G03*
X64990000Y-49370961I1079837J-1041130D01*
G01*
X67150000Y-49370961D02*
G75*
G03*
X67149837Y-47288870I-1080000J1040961D01*
G01*
%TO.C,SW7*%
X77000000Y-53000000D02*
X77000000Y-63000000D01*
X77000000Y-63000000D02*
X70500000Y-63000000D01*
X70500000Y-53000000D02*
X77000000Y-53000000D01*
X70500000Y-63000000D02*
X70500000Y-53000000D01*
%TO.C,SW5*%
X59250000Y-53000000D02*
X59250000Y-63000000D01*
X59250000Y-63000000D02*
X52750000Y-63000000D01*
X52750000Y-53000000D02*
X59250000Y-53000000D01*
X52750000Y-63000000D02*
X52750000Y-53000000D01*
%TO.C,R5*%
X63050000Y-43340000D02*
X63050000Y-42650000D01*
X64770000Y-33410000D02*
X61330000Y-33410000D01*
X63050000Y-32720000D02*
X63050000Y-33410000D01*
X61330000Y-33410000D02*
X61330000Y-42650000D01*
X64770000Y-42650000D02*
X64770000Y-33410000D01*
X61330000Y-42650000D02*
X64770000Y-42650000D01*
%TO.C,R4*%
X86610000Y-49240000D02*
X86610000Y-40000000D01*
X83170000Y-40000000D02*
X83170000Y-49240000D01*
X84890000Y-49930000D02*
X84890000Y-49240000D01*
X86610000Y-40000000D02*
X83170000Y-40000000D01*
X84890000Y-39310000D02*
X84890000Y-40000000D01*
X83170000Y-49240000D02*
X86610000Y-49240000D01*
D13*
%TO.C,J6*%
X89400000Y-15370000D02*
X74600000Y-15370000D01*
X74600000Y-15370000D02*
X74600000Y-29070000D01*
X89400000Y-29070000D02*
X74600000Y-29070000D01*
X89400000Y-29070000D02*
X89400000Y-15370000D01*
D12*
%TO.C,SW6*%
X68000000Y-63000000D02*
X61500000Y-63000000D01*
X61500000Y-63000000D02*
X61500000Y-53000000D01*
X61500000Y-53000000D02*
X68000000Y-53000000D01*
X68000000Y-53000000D02*
X68000000Y-63000000D01*
%TO.C,R3*%
X74970000Y-40110000D02*
X74970000Y-49350000D01*
X76690000Y-39420000D02*
X76690000Y-40110000D01*
X74970000Y-49350000D02*
X78410000Y-49350000D01*
X78410000Y-40110000D02*
X74970000Y-40110000D01*
X76690000Y-50040000D02*
X76690000Y-49350000D01*
X78410000Y-49350000D02*
X78410000Y-40110000D01*
%TO.C,R7*%
X58590000Y-43580000D02*
X58260000Y-43580000D01*
X58260000Y-50120000D02*
X58590000Y-50120000D01*
X56180000Y-50120000D02*
X55850000Y-50120000D01*
X58590000Y-50120000D02*
X58590000Y-43580000D01*
X55850000Y-50120000D02*
X55850000Y-43580000D01*
X55850000Y-43580000D02*
X56180000Y-43580000D01*
%TO.C,D1*%
X58350000Y-34280000D02*
X56110000Y-34280000D01*
X56110000Y-37800000D02*
X58350000Y-37800000D01*
X58350000Y-33560000D02*
X56110000Y-33560000D01*
X56110000Y-33560000D02*
X56110000Y-37800000D01*
X57230000Y-32910000D02*
X57230000Y-33560000D01*
X58350000Y-34400000D02*
X56110000Y-34400000D01*
X58350000Y-37800000D02*
X58350000Y-33560000D01*
X57230000Y-38450000D02*
X57230000Y-37800000D01*
X58350000Y-34160000D02*
X56110000Y-34160000D01*
%TO.C,SW1*%
X59250000Y-64000000D02*
X59250000Y-74000000D01*
X52750000Y-64000000D02*
X59250000Y-64000000D01*
X52750000Y-74000000D02*
X52750000Y-64000000D01*
X59250000Y-74000000D02*
X52750000Y-74000000D01*
%TO.C,SW4*%
X86000000Y-64000000D02*
X86000000Y-74000000D01*
X79500000Y-74000000D02*
X79500000Y-64000000D01*
X86000000Y-74000000D02*
X79500000Y-74000000D01*
X79500000Y-64000000D02*
X86000000Y-64000000D01*
%TO.C,SW9*%
X78500000Y-36610000D02*
X78500000Y-30110000D01*
X78500000Y-30110000D02*
X88500000Y-30110000D01*
X88500000Y-30110000D02*
X88500000Y-36610000D01*
X88500000Y-36610000D02*
X78500000Y-36610000D01*
%TD*%
D14*
%TO.C,J3*%
X57500000Y-27880000D03*
X54960000Y-27880000D03*
%TD*%
%TO.C,J6*%
X82000000Y-27750000D03*
X79460000Y-27750000D03*
%TD*%
M02*
