M48
; DRILL file {KiCad (6.0.11)} date Mon Apr  3 18:22:17 2023
; FORMAT={-:-/ absolute / inch / decimal}
; #@! TF.CreationDate,2023-04-03T18:22:17-05:00
; #@! TF.GenerationSoftware,Kicad,Pcbnew,(6.0.11)
; #@! TF.FileFunction,Plated,1,2,PTH
FMAT,2
INCH
; #@! TA.AperFunction,Plated,PTH,ViaDrill
T1C0.0157
; #@! TA.AperFunction,Plated,PTH,ComponentDrill
T2C0.0300
; #@! TA.AperFunction,Plated,PTH,ComponentDrill
T3C0.0315
; #@! TA.AperFunction,Plated,PTH,ComponentDrill
T4C0.0354
; #@! TA.AperFunction,Plated,PTH,ComponentDrill
T5C0.0598
; #@! TA.AperFunction,Plated,PTH,ComponentDrill
T6C0.0827
%
G90
G05
T1
X2.1906Y-2.9528
X2.3803Y-3.0315
X2.535Y-3.1496
X2.6803Y-3.2677
X2.7339Y-3.3858
X2.7409Y-3.5039
X2.7524Y-3.622
X2.7559Y-3.7795
T2
X2.1358Y-2.185
X2.1358Y-2.2835
X2.1358Y-2.3819
X2.1358Y-2.6181
X2.1358Y-2.7165
X2.1358Y-2.815
X2.2736Y-2.185
X2.2736Y-2.2835
X2.2736Y-2.3819
X2.2736Y-2.6181
X2.2736Y-2.7165
X2.2736Y-2.815
X2.4803Y-2.185
X2.4803Y-2.2835
X2.4803Y-2.3819
X2.4803Y-2.6181
X2.4803Y-2.7165
X2.4803Y-2.815
X2.6181Y-2.185
X2.6181Y-2.2835
X2.6181Y-2.3819
X2.6181Y-2.6181
X2.6181Y-2.7165
X2.6181Y-2.815
X2.8346Y-2.185
X2.8346Y-2.2835
X2.8346Y-2.3819
X2.8346Y-2.6181
X2.8346Y-2.7165
X2.8346Y-2.815
X2.9724Y-2.185
X2.9724Y-2.2835
X2.9724Y-2.3819
X2.9724Y-2.6181
X2.9724Y-2.7165
X2.9724Y-2.815
X3.0276Y-1.2437
X3.0276Y-1.3815
X3.126Y-1.2437
X3.126Y-1.3815
X3.189Y-2.185
X3.189Y-2.2835
X3.189Y-2.3819
X3.189Y-2.6181
X3.189Y-2.7165
X3.189Y-2.815
X3.2244Y-1.2437
X3.2244Y-1.3815
X3.3268Y-2.185
X3.3268Y-2.2835
X3.3268Y-2.3819
X3.3268Y-2.6181
X3.3268Y-2.7165
X3.3268Y-2.815
T3
X2.2642Y-1.6567
X2.2642Y-1.9567
X2.2665Y-1.248
X2.2665Y-1.548
X2.4307Y-1.8626
X2.4307Y-1.961
X2.4823Y-1.2472
X2.4823Y-1.7472
X2.6528Y-1.2484
X2.6528Y-1.7484
X2.8157Y-1.2488
X2.8157Y-1.3472
X2.8559Y-1.511
X2.8559Y-2.011
X3.0193Y-1.511
X3.0193Y-2.011
X3.1815Y-1.5067
X3.1815Y-2.0067
X3.3421Y-1.5067
X3.3421Y-2.0067
T4
X2.2839Y-1.1055
X2.3839Y-1.1055
X2.6012Y-1.8528
X2.6012Y-1.9528
X3.0142Y-1.0925
X3.1142Y-1.0925
T5
X2.2739Y-0.9981
X2.4739Y-0.9981
X3.0042Y-0.9851
X3.2042Y-0.9851
T6
X2.1839Y-0.9055
X2.5839Y-0.9055
X2.9142Y-0.8925
X3.3142Y-0.8925
T0
M30
