%TF.GenerationSoftware,KiCad,Pcbnew,(6.0.11)*%
%TF.CreationDate,2023-04-03T18:22:16-05:00*%
%TF.ProjectId,TMatchPCB,544d6174-6368-4504-9342-2e6b69636164,rev?*%
%TF.SameCoordinates,Original*%
%TF.FileFunction,Soldermask,Bot*%
%TF.FilePolarity,Negative*%
%FSLAX46Y46*%
G04 Gerber Fmt 4.6, Leading zero omitted, Abs format (unit mm)*
G04 Created by KiCad (PCBNEW (6.0.11)) date 2023-04-03 18:22:16*
%MOMM*%
%LPD*%
G01*
G04 APERTURE LIST*
%ADD10C,1.600000*%
%ADD11O,1.600000X1.600000*%
%ADD12C,1.524000*%
%ADD13C,2.500000*%
%ADD14C,1.500000*%
%ADD15R,3.000000X3.000000*%
%ADD16C,3.000000*%
%ADD17R,1.800000X1.800000*%
%ADD18C,1.800000*%
%ADD19R,1.600000X1.600000*%
G04 APERTURE END LIST*
D10*
%TO.C,R2*%
X80810000Y-50970000D03*
D11*
X80810000Y-38270000D03*
%TD*%
D10*
%TO.C,R1*%
X72540000Y-38380000D03*
D11*
X72540000Y-51080000D03*
%TD*%
D10*
%TO.C,R6*%
X67380000Y-31710000D03*
D11*
X67380000Y-44410000D03*
%TD*%
D10*
%TO.C,C1*%
X71520000Y-31720000D03*
X71520000Y-34220000D03*
%TD*%
D12*
%TO.C,SW3*%
X72000000Y-66500000D03*
X72000000Y-69000000D03*
X72000000Y-71500000D03*
X75500000Y-66500000D03*
X75500000Y-69000000D03*
X75500000Y-71500000D03*
%TD*%
D13*
%TO.C,J3*%
X55470000Y-23000000D03*
X65630000Y-23000000D03*
D14*
X60550000Y-28080000D03*
D15*
X62836000Y-25352000D03*
D16*
X57756000Y-25352000D03*
D14*
X58010000Y-28080000D03*
%TD*%
D12*
%TO.C,SW8*%
X81000000Y-55500000D03*
X81000000Y-58000000D03*
X81000000Y-60500000D03*
X84500000Y-55500000D03*
X84500000Y-58000000D03*
X84500000Y-60500000D03*
%TD*%
%TO.C,SW2*%
X63000000Y-66500000D03*
X63000000Y-69000000D03*
X63000000Y-71500000D03*
X66500000Y-66500000D03*
X66500000Y-69000000D03*
X66500000Y-71500000D03*
%TD*%
D17*
%TO.C,D2*%
X66070000Y-49600000D03*
D18*
X66070000Y-47060000D03*
%TD*%
D12*
%TO.C,SW7*%
X72000000Y-55500000D03*
X72000000Y-58000000D03*
X72000000Y-60500000D03*
X75500000Y-55500000D03*
X75500000Y-58000000D03*
X75500000Y-60500000D03*
%TD*%
%TO.C,SW5*%
X54250000Y-55500000D03*
X54250000Y-58000000D03*
X54250000Y-60500000D03*
X57750000Y-55500000D03*
X57750000Y-58000000D03*
X57750000Y-60500000D03*
%TD*%
D10*
%TO.C,R5*%
X63050000Y-31680000D03*
D11*
X63050000Y-44380000D03*
%TD*%
D10*
%TO.C,R4*%
X84890000Y-50970000D03*
D11*
X84890000Y-38270000D03*
%TD*%
D13*
%TO.C,J6*%
X84180000Y-22670000D03*
X74020000Y-22670000D03*
D15*
X81386000Y-25022000D03*
D14*
X79100000Y-27750000D03*
D16*
X76306000Y-25022000D03*
D14*
X76560000Y-27750000D03*
%TD*%
D10*
%TO.C,C2*%
X61740000Y-49810000D03*
X61740000Y-47310000D03*
%TD*%
D12*
%TO.C,SW6*%
X63000000Y-55500000D03*
X63000000Y-58000000D03*
X63000000Y-60500000D03*
X66500000Y-55500000D03*
X66500000Y-58000000D03*
X66500000Y-60500000D03*
%TD*%
D10*
%TO.C,R3*%
X76690000Y-38380000D03*
D11*
X76690000Y-51080000D03*
%TD*%
D10*
%TO.C,R7*%
X57570000Y-31700000D03*
D11*
X57570000Y-39320000D03*
%TD*%
D19*
%TO.C,D1*%
X57510000Y-42080000D03*
D11*
X57510000Y-49700000D03*
%TD*%
D12*
%TO.C,SW1*%
X54250000Y-66500000D03*
X54250000Y-69000000D03*
X54250000Y-71500000D03*
X57750000Y-66500000D03*
X57750000Y-69000000D03*
X57750000Y-71500000D03*
%TD*%
%TO.C,SW4*%
X81000000Y-66500000D03*
X81000000Y-69000000D03*
X81000000Y-71500000D03*
X84500000Y-66500000D03*
X84500000Y-69000000D03*
X84500000Y-71500000D03*
%TD*%
%TO.C,SW9*%
X76900000Y-35090000D03*
X79400000Y-35090000D03*
X81900000Y-35090000D03*
X76900000Y-31590000D03*
X79400000Y-31590000D03*
X81900000Y-31590000D03*
%TD*%
M02*
