%TF.GenerationSoftware,KiCad,Pcbnew,(6.0.11)*%
%TF.CreationDate,2023-06-08T14:01:20-05:00*%
%TF.ProjectId,TMatchPCB,544d6174-6368-4504-9342-2e6b69636164,rev?*%
%TF.SameCoordinates,Original*%
%TF.FileFunction,Legend,Top*%
%TF.FilePolarity,Positive*%
%FSLAX46Y46*%
G04 Gerber Fmt 4.6, Leading zero omitted, Abs format (unit mm)*
G04 Created by KiCad (PCBNEW (6.0.11)) date 2023-06-08 14:01:20*
%MOMM*%
%LPD*%
G01*
G04 APERTURE LIST*
%ADD10C,0.150000*%
%ADD11C,0.200000*%
%ADD12C,0.120000*%
%ADD13C,0.300000*%
%ADD14C,1.500000*%
G04 APERTURE END LIST*
D10*
X85547619Y-45452380D02*
X85738095Y-45452380D01*
X85833333Y-45500000D01*
X85928571Y-45595238D01*
X85976190Y-45785714D01*
X85976190Y-46119047D01*
X85928571Y-46309523D01*
X85833333Y-46404761D01*
X85738095Y-46452380D01*
X85547619Y-46452380D01*
X85452380Y-46404761D01*
X85357142Y-46309523D01*
X85309523Y-46119047D01*
X85309523Y-45785714D01*
X85357142Y-45595238D01*
X85452380Y-45500000D01*
X85547619Y-45452380D01*
X86738095Y-45928571D02*
X86404761Y-45928571D01*
X86404761Y-46452380D02*
X86404761Y-45452380D01*
X86880952Y-45452380D01*
X87595238Y-45928571D02*
X87261904Y-45928571D01*
X87261904Y-46452380D02*
X87261904Y-45452380D01*
X87738095Y-45452380D01*
X77547619Y-45452380D02*
X77738095Y-45452380D01*
X77833333Y-45500000D01*
X77928571Y-45595238D01*
X77976190Y-45785714D01*
X77976190Y-46119047D01*
X77928571Y-46309523D01*
X77833333Y-46404761D01*
X77738095Y-46452380D01*
X77547619Y-46452380D01*
X77452380Y-46404761D01*
X77357142Y-46309523D01*
X77309523Y-46119047D01*
X77309523Y-45785714D01*
X77357142Y-45595238D01*
X77452380Y-45500000D01*
X77547619Y-45452380D01*
X78738095Y-45928571D02*
X78404761Y-45928571D01*
X78404761Y-46452380D02*
X78404761Y-45452380D01*
X78880952Y-45452380D01*
X79595238Y-45928571D02*
X79261904Y-45928571D01*
X79261904Y-46452380D02*
X79261904Y-45452380D01*
X79738095Y-45452380D01*
X69547619Y-45452380D02*
X69738095Y-45452380D01*
X69833333Y-45500000D01*
X69928571Y-45595238D01*
X69976190Y-45785714D01*
X69976190Y-46119047D01*
X69928571Y-46309523D01*
X69833333Y-46404761D01*
X69738095Y-46452380D01*
X69547619Y-46452380D01*
X69452380Y-46404761D01*
X69357142Y-46309523D01*
X69309523Y-46119047D01*
X69309523Y-45785714D01*
X69357142Y-45595238D01*
X69452380Y-45500000D01*
X69547619Y-45452380D01*
X70738095Y-45928571D02*
X70404761Y-45928571D01*
X70404761Y-46452380D02*
X70404761Y-45452380D01*
X70880952Y-45452380D01*
X71595238Y-45928571D02*
X71261904Y-45928571D01*
X71261904Y-46452380D02*
X71261904Y-45452380D01*
X71738095Y-45452380D01*
X61047619Y-45452380D02*
X61238095Y-45452380D01*
X61333333Y-45500000D01*
X61428571Y-45595238D01*
X61476190Y-45785714D01*
X61476190Y-46119047D01*
X61428571Y-46309523D01*
X61333333Y-46404761D01*
X61238095Y-46452380D01*
X61047619Y-46452380D01*
X60952380Y-46404761D01*
X60857142Y-46309523D01*
X60809523Y-46119047D01*
X60809523Y-45785714D01*
X60857142Y-45595238D01*
X60952380Y-45500000D01*
X61047619Y-45452380D01*
X62238095Y-45928571D02*
X61904761Y-45928571D01*
X61904761Y-46452380D02*
X61904761Y-45452380D01*
X62380952Y-45452380D01*
X63095238Y-45928571D02*
X62761904Y-45928571D01*
X62761904Y-46452380D02*
X62761904Y-45452380D01*
X63238095Y-45452380D01*
X86380952Y-68952380D02*
X86571428Y-68952380D01*
X86666666Y-69000000D01*
X86761904Y-69095238D01*
X86809523Y-69285714D01*
X86809523Y-69619047D01*
X86761904Y-69809523D01*
X86666666Y-69904761D01*
X86571428Y-69952380D01*
X86380952Y-69952380D01*
X86285714Y-69904761D01*
X86190476Y-69809523D01*
X86142857Y-69619047D01*
X86142857Y-69285714D01*
X86190476Y-69095238D01*
X86285714Y-69000000D01*
X86380952Y-68952380D01*
X87238095Y-69952380D02*
X87238095Y-68952380D01*
X87809523Y-69952380D01*
X87809523Y-68952380D01*
X77965952Y-68952380D02*
X78156428Y-68952380D01*
X78251666Y-69000000D01*
X78346904Y-69095238D01*
X78394523Y-69285714D01*
X78394523Y-69619047D01*
X78346904Y-69809523D01*
X78251666Y-69904761D01*
X78156428Y-69952380D01*
X77965952Y-69952380D01*
X77870714Y-69904761D01*
X77775476Y-69809523D01*
X77727857Y-69619047D01*
X77727857Y-69285714D01*
X77775476Y-69095238D01*
X77870714Y-69000000D01*
X77965952Y-68952380D01*
X78823095Y-69952380D02*
X78823095Y-68952380D01*
X79394523Y-69952380D01*
X79394523Y-68952380D01*
X69710952Y-68952380D02*
X69901428Y-68952380D01*
X69996666Y-69000000D01*
X70091904Y-69095238D01*
X70139523Y-69285714D01*
X70139523Y-69619047D01*
X70091904Y-69809523D01*
X69996666Y-69904761D01*
X69901428Y-69952380D01*
X69710952Y-69952380D01*
X69615714Y-69904761D01*
X69520476Y-69809523D01*
X69472857Y-69619047D01*
X69472857Y-69285714D01*
X69520476Y-69095238D01*
X69615714Y-69000000D01*
X69710952Y-68952380D01*
X70568095Y-69952380D02*
X70568095Y-68952380D01*
X71139523Y-69952380D01*
X71139523Y-68952380D01*
X61328952Y-68952380D02*
X61519428Y-68952380D01*
X61614666Y-69000000D01*
X61709904Y-69095238D01*
X61757523Y-69285714D01*
X61757523Y-69619047D01*
X61709904Y-69809523D01*
X61614666Y-69904761D01*
X61519428Y-69952380D01*
X61328952Y-69952380D01*
X61233714Y-69904761D01*
X61138476Y-69809523D01*
X61090857Y-69619047D01*
X61090857Y-69285714D01*
X61138476Y-69095238D01*
X61233714Y-69000000D01*
X61328952Y-68952380D01*
X62186095Y-69952380D02*
X62186095Y-68952380D01*
X62757523Y-69952380D01*
X62757523Y-68952380D01*
X53200952Y-68952380D02*
X53391428Y-68952380D01*
X53486666Y-69000000D01*
X53581904Y-69095238D01*
X53629523Y-69285714D01*
X53629523Y-69619047D01*
X53581904Y-69809523D01*
X53486666Y-69904761D01*
X53391428Y-69952380D01*
X53200952Y-69952380D01*
X53105714Y-69904761D01*
X53010476Y-69809523D01*
X52962857Y-69619047D01*
X52962857Y-69285714D01*
X53010476Y-69095238D01*
X53105714Y-69000000D01*
X53200952Y-68952380D01*
X54058095Y-69952380D02*
X54058095Y-68952380D01*
X54629523Y-69952380D01*
X54629523Y-68952380D01*
X52547619Y-45452380D02*
X52738095Y-45452380D01*
X52833333Y-45500000D01*
X52928571Y-45595238D01*
X52976190Y-45785714D01*
X52976190Y-46119047D01*
X52928571Y-46309523D01*
X52833333Y-46404761D01*
X52738095Y-46452380D01*
X52547619Y-46452380D01*
X52452380Y-46404761D01*
X52357142Y-46309523D01*
X52309523Y-46119047D01*
X52309523Y-45785714D01*
X52357142Y-45595238D01*
X52452380Y-45500000D01*
X52547619Y-45452380D01*
X53738095Y-45928571D02*
X53404761Y-45928571D01*
X53404761Y-46452380D02*
X53404761Y-45452380D01*
X53880952Y-45452380D01*
X54595238Y-45928571D02*
X54261904Y-45928571D01*
X54261904Y-46452380D02*
X54261904Y-45452380D01*
X54738095Y-45452380D01*
X66460666Y-27071428D02*
X66460666Y-26595238D01*
X66746380Y-27166666D02*
X65746380Y-26833333D01*
X66746380Y-26500000D01*
X66746380Y-26166666D02*
X65746380Y-26166666D01*
X66746380Y-25595238D01*
X65746380Y-25595238D01*
X65746380Y-25261904D02*
X65746380Y-24690476D01*
X66746380Y-24976190D02*
X65746380Y-24976190D01*
X66222571Y-24357142D02*
X66222571Y-24023809D01*
X66746380Y-23880952D02*
X66746380Y-24357142D01*
X65746380Y-24357142D01*
X65746380Y-23880952D01*
X66746380Y-23452380D02*
X65746380Y-23452380D01*
X66746380Y-22880952D01*
X65746380Y-22880952D01*
X66746380Y-22404761D02*
X65746380Y-22404761D01*
X66746380Y-21833333D01*
X65746380Y-21833333D01*
X66460666Y-21404761D02*
X66460666Y-20928571D01*
X66746380Y-21500000D02*
X65746380Y-21166666D01*
X66746380Y-20833333D01*
X89428571Y-34217142D02*
X89476190Y-34074285D01*
X89523809Y-34026666D01*
X89619047Y-33979047D01*
X89761904Y-33979047D01*
X89857142Y-34026666D01*
X89904761Y-34074285D01*
X89952380Y-34169523D01*
X89952380Y-34550476D01*
X88952380Y-34550476D01*
X88952380Y-34217142D01*
X89000000Y-34121904D01*
X89047619Y-34074285D01*
X89142857Y-34026666D01*
X89238095Y-34026666D01*
X89333333Y-34074285D01*
X89380952Y-34121904D01*
X89428571Y-34217142D01*
X89428571Y-34550476D01*
X89476190Y-33360000D02*
X89952380Y-33360000D01*
X88952380Y-33693333D02*
X89476190Y-33360000D01*
X88952380Y-33026666D01*
X89952380Y-32693333D02*
X88952380Y-32693333D01*
X88952380Y-32312380D01*
X89000000Y-32217142D01*
X89047619Y-32169523D01*
X89142857Y-32121904D01*
X89285714Y-32121904D01*
X89380952Y-32169523D01*
X89428571Y-32217142D01*
X89476190Y-32312380D01*
X89476190Y-32693333D01*
X91638380Y-61370190D02*
X90638380Y-61370190D01*
X90638380Y-60989238D01*
X90686000Y-60893999D01*
X90733619Y-60846380D01*
X90828857Y-60798761D01*
X90971714Y-60798761D01*
X91066952Y-60846380D01*
X91114571Y-60893999D01*
X91162190Y-60989238D01*
X91162190Y-61370190D01*
X91543142Y-59798761D02*
X91590761Y-59846380D01*
X91638380Y-59989238D01*
X91638380Y-60084476D01*
X91590761Y-60227333D01*
X91495523Y-60322571D01*
X91400285Y-60370190D01*
X91209809Y-60417809D01*
X91066952Y-60417809D01*
X90876476Y-60370190D01*
X90781238Y-60322571D01*
X90686000Y-60227333D01*
X90638380Y-60084476D01*
X90638380Y-59989238D01*
X90686000Y-59846380D01*
X90733619Y-59798761D01*
X91114571Y-59036857D02*
X91162190Y-58893999D01*
X91209809Y-58846380D01*
X91305047Y-58798761D01*
X91447904Y-58798761D01*
X91543142Y-58846380D01*
X91590761Y-58893999D01*
X91638380Y-58989238D01*
X91638380Y-59370190D01*
X90638380Y-59370190D01*
X90638380Y-59036857D01*
X90686000Y-58941619D01*
X90733619Y-58893999D01*
X90828857Y-58846380D01*
X90924095Y-58846380D01*
X91019333Y-58893999D01*
X91066952Y-58941619D01*
X91114571Y-59036857D01*
X91114571Y-59370190D01*
X90638380Y-57751142D02*
X90638380Y-57179714D01*
X91638380Y-57465428D02*
X90638380Y-57465428D01*
X91638380Y-56084476D02*
X90638380Y-56084476D01*
X91352666Y-55751142D01*
X90638380Y-55417809D01*
X91638380Y-55417809D01*
X91352666Y-54989238D02*
X91352666Y-54513047D01*
X91638380Y-55084476D02*
X90638380Y-54751142D01*
X91638380Y-54417809D01*
X90638380Y-54227333D02*
X90638380Y-53655904D01*
X91638380Y-53941619D02*
X90638380Y-53941619D01*
X91543142Y-52751142D02*
X91590761Y-52798761D01*
X91638380Y-52941619D01*
X91638380Y-53036857D01*
X91590761Y-53179714D01*
X91495523Y-53274952D01*
X91400285Y-53322571D01*
X91209809Y-53370190D01*
X91066952Y-53370190D01*
X90876476Y-53322571D01*
X90781238Y-53274952D01*
X90686000Y-53179714D01*
X90638380Y-53036857D01*
X90638380Y-52941619D01*
X90686000Y-52798761D01*
X90733619Y-52751142D01*
X91638380Y-52322571D02*
X90638380Y-52322571D01*
X91114571Y-52322571D02*
X91114571Y-51751142D01*
X91638380Y-51751142D02*
X90638380Y-51751142D01*
X91114571Y-50179714D02*
X91162190Y-50036857D01*
X91209809Y-49989238D01*
X91305047Y-49941619D01*
X91447904Y-49941619D01*
X91543142Y-49989238D01*
X91590761Y-50036857D01*
X91638380Y-50132095D01*
X91638380Y-50513047D01*
X90638380Y-50513047D01*
X90638380Y-50179714D01*
X90686000Y-50084476D01*
X90733619Y-50036857D01*
X90828857Y-49989238D01*
X90924095Y-49989238D01*
X91019333Y-50036857D01*
X91066952Y-50084476D01*
X91114571Y-50179714D01*
X91114571Y-50513047D01*
X91162190Y-49322571D02*
X91638380Y-49322571D01*
X90638380Y-49655904D02*
X91162190Y-49322571D01*
X90638380Y-48989238D01*
X91638380Y-47893999D02*
X90638380Y-47893999D01*
X90638380Y-47655904D01*
X90686000Y-47513047D01*
X90781238Y-47417809D01*
X90876476Y-47370190D01*
X91066952Y-47322571D01*
X91209809Y-47322571D01*
X91400285Y-47370190D01*
X91495523Y-47417809D01*
X91590761Y-47513047D01*
X91638380Y-47655904D01*
X91638380Y-47893999D01*
X91352666Y-46941619D02*
X91352666Y-46465428D01*
X91638380Y-47036857D02*
X90638380Y-46703523D01*
X91638380Y-46370190D01*
X91638380Y-46036857D02*
X90638380Y-46036857D01*
X91638380Y-45465428D01*
X90638380Y-45465428D01*
X91638380Y-44989238D02*
X90638380Y-44989238D01*
X91114571Y-44513047D02*
X91114571Y-44179714D01*
X91638380Y-44036857D02*
X91638380Y-44513047D01*
X90638380Y-44513047D01*
X90638380Y-44036857D01*
X91638380Y-43132095D02*
X91638380Y-43608285D01*
X90638380Y-43608285D01*
X91638380Y-42036857D02*
X90638380Y-42036857D01*
X91352666Y-41703523D01*
X90638380Y-41370190D01*
X91638380Y-41370190D01*
X91352666Y-40941619D02*
X91352666Y-40465428D01*
X91638380Y-41036857D02*
X90638380Y-40703523D01*
X91638380Y-40370190D01*
X91638380Y-39465428D02*
X91162190Y-39798761D01*
X91638380Y-40036857D02*
X90638380Y-40036857D01*
X90638380Y-39655904D01*
X90686000Y-39560666D01*
X90733619Y-39513047D01*
X90828857Y-39465428D01*
X90971714Y-39465428D01*
X91066952Y-39513047D01*
X91114571Y-39560666D01*
X91162190Y-39655904D01*
X91162190Y-40036857D01*
X91638380Y-39036857D02*
X90638380Y-39036857D01*
X91638380Y-38465428D02*
X91066952Y-38894000D01*
X90638380Y-38465428D02*
X91209809Y-39036857D01*
X91590761Y-38084476D02*
X91638380Y-37941619D01*
X91638380Y-37703523D01*
X91590761Y-37608285D01*
X91543142Y-37560666D01*
X91447904Y-37513047D01*
X91352666Y-37513047D01*
X91257428Y-37560666D01*
X91209809Y-37608285D01*
X91162190Y-37703523D01*
X91114571Y-37894000D01*
X91066952Y-37989238D01*
X91019333Y-38036857D01*
X90924095Y-38084476D01*
X90828857Y-38084476D01*
X90733619Y-38036857D01*
X90686000Y-37989238D01*
X90638380Y-37894000D01*
X90638380Y-37655904D01*
X90686000Y-37513047D01*
X91638380Y-36322571D02*
X90638380Y-36322571D01*
X91638380Y-35751142D02*
X91066952Y-36179714D01*
X90638380Y-35751142D02*
X91209809Y-36322571D01*
X90638380Y-35417809D02*
X91638380Y-35179714D01*
X90924095Y-34989238D01*
X91638380Y-34798761D01*
X90638380Y-34560666D01*
X90971714Y-33751142D02*
X91638380Y-33751142D01*
X90590761Y-33989238D02*
X91305047Y-34227333D01*
X91305047Y-33608285D01*
X90638380Y-33370190D02*
X90638380Y-32798761D01*
X91638380Y-33084476D02*
X90638380Y-33084476D01*
X91638380Y-32465428D02*
X90638380Y-32465428D01*
X91543142Y-30655904D02*
X91590761Y-30703523D01*
X91638380Y-30846380D01*
X91638380Y-30941619D01*
X91590761Y-31084476D01*
X91495523Y-31179714D01*
X91400285Y-31227333D01*
X91209809Y-31274952D01*
X91066952Y-31274952D01*
X90876476Y-31227333D01*
X90781238Y-31179714D01*
X90686000Y-31084476D01*
X90638380Y-30941619D01*
X90638380Y-30846380D01*
X90686000Y-30703523D01*
X90733619Y-30655904D01*
X91543142Y-29655904D02*
X91590761Y-29703523D01*
X91638380Y-29846380D01*
X91638380Y-29941619D01*
X91590761Y-30084476D01*
X91495523Y-30179714D01*
X91400285Y-30227333D01*
X91209809Y-30274952D01*
X91066952Y-30274952D01*
X90876476Y-30227333D01*
X90781238Y-30179714D01*
X90686000Y-30084476D01*
X90638380Y-29941619D01*
X90638380Y-29846380D01*
X90686000Y-29703523D01*
X90733619Y-29655904D01*
X91257428Y-29227333D02*
X91257428Y-28465428D01*
X91114571Y-27655904D02*
X91162190Y-27513047D01*
X91209809Y-27465428D01*
X91305047Y-27417809D01*
X91447904Y-27417809D01*
X91543142Y-27465428D01*
X91590761Y-27513047D01*
X91638380Y-27608285D01*
X91638380Y-27989238D01*
X90638380Y-27989238D01*
X90638380Y-27655904D01*
X90686000Y-27560666D01*
X90733619Y-27513047D01*
X90828857Y-27465428D01*
X90924095Y-27465428D01*
X91019333Y-27513047D01*
X91066952Y-27560666D01*
X91114571Y-27655904D01*
X91114571Y-27989238D01*
X91162190Y-26798761D02*
X91638380Y-26798761D01*
X90638380Y-27132095D02*
X91162190Y-26798761D01*
X90638380Y-26465428D01*
X91257428Y-26132095D02*
X91257428Y-25370190D01*
X91590761Y-24941619D02*
X91638380Y-24798761D01*
X91638380Y-24560666D01*
X91590761Y-24465428D01*
X91543142Y-24417809D01*
X91447904Y-24370190D01*
X91352666Y-24370190D01*
X91257428Y-24417809D01*
X91209809Y-24465428D01*
X91162190Y-24560666D01*
X91114571Y-24751142D01*
X91066952Y-24846380D01*
X91019333Y-24894000D01*
X90924095Y-24941619D01*
X90828857Y-24941619D01*
X90733619Y-24894000D01*
X90686000Y-24846380D01*
X90638380Y-24751142D01*
X90638380Y-24513047D01*
X90686000Y-24370190D01*
X91352666Y-23989238D02*
X91352666Y-23513047D01*
X91638380Y-24084476D02*
X90638380Y-23751142D01*
X91638380Y-23417809D01*
X90971714Y-21894000D02*
X91638380Y-21894000D01*
X90590761Y-22132095D02*
X91305047Y-22370190D01*
X91305047Y-21751142D01*
X91543142Y-21370190D02*
X91590761Y-21322571D01*
X91638380Y-21370190D01*
X91590761Y-21417809D01*
X91543142Y-21370190D01*
X91638380Y-21370190D01*
X90638380Y-20703523D02*
X90638380Y-20608285D01*
X90686000Y-20513047D01*
X90733619Y-20465428D01*
X90828857Y-20417809D01*
X91019333Y-20370190D01*
X91257428Y-20370190D01*
X91447904Y-20417809D01*
X91543142Y-20465428D01*
X91590761Y-20513047D01*
X91638380Y-20608285D01*
X91638380Y-20703523D01*
X91590761Y-20798761D01*
X91543142Y-20846380D01*
X91447904Y-20893999D01*
X91257428Y-20941619D01*
X91019333Y-20941619D01*
X90828857Y-20893999D01*
X90733619Y-20846380D01*
X90686000Y-20798761D01*
X90638380Y-20703523D01*
X49728380Y-52808000D02*
X48728380Y-52808000D01*
X49728380Y-52331809D02*
X48728380Y-52331809D01*
X49728380Y-51760380D01*
X48728380Y-51760380D01*
X49728380Y-51284190D02*
X48728380Y-51284190D01*
X48728380Y-51046095D01*
X48776000Y-50903238D01*
X48871238Y-50808000D01*
X48966476Y-50760380D01*
X49156952Y-50712761D01*
X49299809Y-50712761D01*
X49490285Y-50760380D01*
X49585523Y-50808000D01*
X49680761Y-50903238D01*
X49728380Y-51046095D01*
X49728380Y-51284190D01*
X48823619Y-50331809D02*
X48776000Y-50284190D01*
X48728380Y-50188952D01*
X48728380Y-49950857D01*
X48776000Y-49855619D01*
X48823619Y-49808000D01*
X48918857Y-49760380D01*
X49014095Y-49760380D01*
X49156952Y-49808000D01*
X49728380Y-50379428D01*
X49728380Y-49760380D01*
X66492380Y-65254000D02*
X65492380Y-65254000D01*
X66492380Y-64777809D02*
X65492380Y-64777809D01*
X66492380Y-64206380D01*
X65492380Y-64206380D01*
X66492380Y-63730190D02*
X65492380Y-63730190D01*
X65492380Y-63492095D01*
X65540000Y-63349238D01*
X65635238Y-63254000D01*
X65730476Y-63206380D01*
X65920952Y-63158761D01*
X66063809Y-63158761D01*
X66254285Y-63206380D01*
X66349523Y-63254000D01*
X66444761Y-63349238D01*
X66492380Y-63492095D01*
X66492380Y-63730190D01*
X65492380Y-62254000D02*
X65492380Y-62730190D01*
X65968571Y-62777809D01*
X65920952Y-62730190D01*
X65873333Y-62634952D01*
X65873333Y-62396857D01*
X65920952Y-62301619D01*
X65968571Y-62254000D01*
X66063809Y-62206380D01*
X66301904Y-62206380D01*
X66397142Y-62254000D01*
X66444761Y-62301619D01*
X66492380Y-62396857D01*
X66492380Y-62634952D01*
X66444761Y-62730190D01*
X66397142Y-62777809D01*
X83256380Y-65127000D02*
X82256380Y-65127000D01*
X83256380Y-64650809D02*
X82256380Y-64650809D01*
X83256380Y-64079380D01*
X82256380Y-64079380D01*
X83256380Y-63603190D02*
X82256380Y-63603190D01*
X82256380Y-63365095D01*
X82304000Y-63222238D01*
X82399238Y-63127000D01*
X82494476Y-63079380D01*
X82684952Y-63031761D01*
X82827809Y-63031761D01*
X83018285Y-63079380D01*
X83113523Y-63127000D01*
X83208761Y-63222238D01*
X83256380Y-63365095D01*
X83256380Y-63603190D01*
X83256380Y-62555571D02*
X83256380Y-62365095D01*
X83208761Y-62269857D01*
X83161142Y-62222238D01*
X83018285Y-62127000D01*
X82827809Y-62079380D01*
X82446857Y-62079380D01*
X82351619Y-62127000D01*
X82304000Y-62174619D01*
X82256380Y-62269857D01*
X82256380Y-62460333D01*
X82304000Y-62555571D01*
X82351619Y-62603190D01*
X82446857Y-62650809D01*
X82684952Y-62650809D01*
X82780190Y-62603190D01*
X82827809Y-62555571D01*
X82875428Y-62460333D01*
X82875428Y-62269857D01*
X82827809Y-62174619D01*
X82780190Y-62127000D01*
X82684952Y-62079380D01*
X58364380Y-65508000D02*
X57364380Y-65508000D01*
X58364380Y-65031809D02*
X57364380Y-65031809D01*
X58364380Y-64460380D01*
X57364380Y-64460380D01*
X58364380Y-63984190D02*
X57364380Y-63984190D01*
X57364380Y-63746095D01*
X57412000Y-63603238D01*
X57507238Y-63508000D01*
X57602476Y-63460380D01*
X57792952Y-63412761D01*
X57935809Y-63412761D01*
X58126285Y-63460380D01*
X58221523Y-63508000D01*
X58316761Y-63603238D01*
X58364380Y-63746095D01*
X58364380Y-63984190D01*
X57364380Y-63079428D02*
X57364380Y-62460380D01*
X57745333Y-62793714D01*
X57745333Y-62650857D01*
X57792952Y-62555619D01*
X57840571Y-62508000D01*
X57935809Y-62460380D01*
X58173904Y-62460380D01*
X58269142Y-62508000D01*
X58316761Y-62555619D01*
X58364380Y-62650857D01*
X58364380Y-62936571D01*
X58316761Y-63031809D01*
X58269142Y-63079428D01*
X58364380Y-52808000D02*
X57364380Y-52808000D01*
X58364380Y-52331809D02*
X57364380Y-52331809D01*
X58364380Y-51760380D01*
X57364380Y-51760380D01*
X58364380Y-51284190D02*
X57364380Y-51284190D01*
X57364380Y-51046095D01*
X57412000Y-50903238D01*
X57507238Y-50808000D01*
X57602476Y-50760380D01*
X57792952Y-50712761D01*
X57935809Y-50712761D01*
X58126285Y-50760380D01*
X58221523Y-50808000D01*
X58316761Y-50903238D01*
X58364380Y-51046095D01*
X58364380Y-51284190D01*
X57697714Y-49855619D02*
X58364380Y-49855619D01*
X57316761Y-50093714D02*
X58031047Y-50331809D01*
X58031047Y-49712761D01*
X75128380Y-52808000D02*
X74128380Y-52808000D01*
X75128380Y-52331809D02*
X74128380Y-52331809D01*
X75128380Y-51760380D01*
X74128380Y-51760380D01*
X75128380Y-51284190D02*
X74128380Y-51284190D01*
X74128380Y-51046095D01*
X74176000Y-50903238D01*
X74271238Y-50808000D01*
X74366476Y-50760380D01*
X74556952Y-50712761D01*
X74699809Y-50712761D01*
X74890285Y-50760380D01*
X74985523Y-50808000D01*
X75080761Y-50903238D01*
X75128380Y-51046095D01*
X75128380Y-51284190D01*
X74556952Y-50141333D02*
X74509333Y-50236571D01*
X74461714Y-50284190D01*
X74366476Y-50331809D01*
X74318857Y-50331809D01*
X74223619Y-50284190D01*
X74176000Y-50236571D01*
X74128380Y-50141333D01*
X74128380Y-49950857D01*
X74176000Y-49855619D01*
X74223619Y-49808000D01*
X74318857Y-49760380D01*
X74366476Y-49760380D01*
X74461714Y-49808000D01*
X74509333Y-49855619D01*
X74556952Y-49950857D01*
X74556952Y-50141333D01*
X74604571Y-50236571D01*
X74652190Y-50284190D01*
X74747428Y-50331809D01*
X74937904Y-50331809D01*
X75033142Y-50284190D01*
X75080761Y-50236571D01*
X75128380Y-50141333D01*
X75128380Y-49950857D01*
X75080761Y-49855619D01*
X75033142Y-49808000D01*
X74937904Y-49760380D01*
X74747428Y-49760380D01*
X74652190Y-49808000D01*
X74604571Y-49855619D01*
X74556952Y-49950857D01*
X66619380Y-52808000D02*
X65619380Y-52808000D01*
X66619380Y-52331809D02*
X65619380Y-52331809D01*
X66619380Y-51760380D01*
X65619380Y-51760380D01*
X66619380Y-51284190D02*
X65619380Y-51284190D01*
X65619380Y-51046095D01*
X65667000Y-50903238D01*
X65762238Y-50808000D01*
X65857476Y-50760380D01*
X66047952Y-50712761D01*
X66190809Y-50712761D01*
X66381285Y-50760380D01*
X66476523Y-50808000D01*
X66571761Y-50903238D01*
X66619380Y-51046095D01*
X66619380Y-51284190D01*
X65619380Y-49855619D02*
X65619380Y-50046095D01*
X65667000Y-50141333D01*
X65714619Y-50188952D01*
X65857476Y-50284190D01*
X66047952Y-50331809D01*
X66428904Y-50331809D01*
X66524142Y-50284190D01*
X66571761Y-50236571D01*
X66619380Y-50141333D01*
X66619380Y-49950857D01*
X66571761Y-49855619D01*
X66524142Y-49808000D01*
X66428904Y-49760380D01*
X66190809Y-49760380D01*
X66095571Y-49808000D01*
X66047952Y-49855619D01*
X66000333Y-49950857D01*
X66000333Y-50141333D01*
X66047952Y-50236571D01*
X66095571Y-50284190D01*
X66190809Y-50331809D01*
X49982380Y-65254000D02*
X48982380Y-65254000D01*
X49982380Y-64777809D02*
X48982380Y-64777809D01*
X49982380Y-64206380D01*
X48982380Y-64206380D01*
X49982380Y-63730190D02*
X48982380Y-63730190D01*
X48982380Y-63492095D01*
X49030000Y-63349238D01*
X49125238Y-63254000D01*
X49220476Y-63206380D01*
X49410952Y-63158761D01*
X49553809Y-63158761D01*
X49744285Y-63206380D01*
X49839523Y-63254000D01*
X49934761Y-63349238D01*
X49982380Y-63492095D01*
X49982380Y-63730190D01*
X49982380Y-62206380D02*
X49982380Y-62777809D01*
X49982380Y-62492095D02*
X48982380Y-62492095D01*
X49125238Y-62587333D01*
X49220476Y-62682571D01*
X49268095Y-62777809D01*
X83256380Y-53030190D02*
X82256380Y-53030190D01*
X83256380Y-52554000D02*
X82256380Y-52554000D01*
X83256380Y-51982571D01*
X82256380Y-51982571D01*
X83256380Y-51506380D02*
X82256380Y-51506380D01*
X82256380Y-51268285D01*
X82304000Y-51125428D01*
X82399238Y-51030190D01*
X82494476Y-50982571D01*
X82684952Y-50934952D01*
X82827809Y-50934952D01*
X83018285Y-50982571D01*
X83113523Y-51030190D01*
X83208761Y-51125428D01*
X83256380Y-51268285D01*
X83256380Y-51506380D01*
X83256380Y-49982571D02*
X83256380Y-50554000D01*
X83256380Y-50268285D02*
X82256380Y-50268285D01*
X82399238Y-50363523D01*
X82494476Y-50458761D01*
X82542095Y-50554000D01*
X82256380Y-49363523D02*
X82256380Y-49268285D01*
X82304000Y-49173047D01*
X82351619Y-49125428D01*
X82446857Y-49077809D01*
X82637333Y-49030190D01*
X82875428Y-49030190D01*
X83065904Y-49077809D01*
X83161142Y-49125428D01*
X83208761Y-49173047D01*
X83256380Y-49268285D01*
X83256380Y-49363523D01*
X83208761Y-49458761D01*
X83161142Y-49506380D01*
X83065904Y-49554000D01*
X82875428Y-49601619D01*
X82637333Y-49601619D01*
X82446857Y-49554000D01*
X82351619Y-49506380D01*
X82304000Y-49458761D01*
X82256380Y-49363523D01*
X75001380Y-65254000D02*
X74001380Y-65254000D01*
X75001380Y-64777809D02*
X74001380Y-64777809D01*
X75001380Y-64206380D01*
X74001380Y-64206380D01*
X75001380Y-63730190D02*
X74001380Y-63730190D01*
X74001380Y-63492095D01*
X74049000Y-63349238D01*
X74144238Y-63254000D01*
X74239476Y-63206380D01*
X74429952Y-63158761D01*
X74572809Y-63158761D01*
X74763285Y-63206380D01*
X74858523Y-63254000D01*
X74953761Y-63349238D01*
X75001380Y-63492095D01*
X75001380Y-63730190D01*
X74001380Y-62825428D02*
X74001380Y-62158761D01*
X75001380Y-62587333D01*
X77952380Y-34910476D02*
X76952380Y-34910476D01*
X77666666Y-34577142D01*
X76952380Y-34243809D01*
X77952380Y-34243809D01*
X77428571Y-33767619D02*
X77428571Y-33434285D01*
X77952380Y-33291428D02*
X77952380Y-33767619D01*
X76952380Y-33767619D01*
X76952380Y-33291428D01*
X77666666Y-32910476D02*
X77666666Y-32434285D01*
X77952380Y-33005714D02*
X76952380Y-32672380D01*
X77952380Y-32339047D01*
X77904761Y-32053333D02*
X77952380Y-31910476D01*
X77952380Y-31672380D01*
X77904761Y-31577142D01*
X77857142Y-31529523D01*
X77761904Y-31481904D01*
X77666666Y-31481904D01*
X77571428Y-31529523D01*
X77523809Y-31577142D01*
X77476190Y-31672380D01*
X77428571Y-31862857D01*
X77380952Y-31958095D01*
X77333333Y-32005714D01*
X77238095Y-32053333D01*
X77142857Y-32053333D01*
X77047619Y-32005714D01*
X77000000Y-31958095D01*
X76952380Y-31862857D01*
X76952380Y-31624761D01*
X77000000Y-31481904D01*
X72604380Y-29677714D02*
X72604380Y-29106285D01*
X73604380Y-29392000D02*
X72604380Y-29392000D01*
X73604380Y-28201523D02*
X73128190Y-28534857D01*
X73604380Y-28772952D02*
X72604380Y-28772952D01*
X72604380Y-28392000D01*
X72652000Y-28296761D01*
X72699619Y-28249142D01*
X72794857Y-28201523D01*
X72937714Y-28201523D01*
X73032952Y-28249142D01*
X73080571Y-28296761D01*
X73128190Y-28392000D01*
X73128190Y-28772952D01*
X73318666Y-27820571D02*
X73318666Y-27344380D01*
X73604380Y-27915809D02*
X72604380Y-27582476D01*
X73604380Y-27249142D01*
X73604380Y-26915809D02*
X72604380Y-26915809D01*
X73604380Y-26344380D01*
X72604380Y-26344380D01*
X73556761Y-25915809D02*
X73604380Y-25772952D01*
X73604380Y-25534857D01*
X73556761Y-25439619D01*
X73509142Y-25392000D01*
X73413904Y-25344380D01*
X73318666Y-25344380D01*
X73223428Y-25392000D01*
X73175809Y-25439619D01*
X73128190Y-25534857D01*
X73080571Y-25725333D01*
X73032952Y-25820571D01*
X72985333Y-25868190D01*
X72890095Y-25915809D01*
X72794857Y-25915809D01*
X72699619Y-25868190D01*
X72652000Y-25820571D01*
X72604380Y-25725333D01*
X72604380Y-25487238D01*
X72652000Y-25344380D01*
X73509142Y-24344380D02*
X73556761Y-24392000D01*
X73604380Y-24534857D01*
X73604380Y-24630095D01*
X73556761Y-24772952D01*
X73461523Y-24868190D01*
X73366285Y-24915809D01*
X73175809Y-24963428D01*
X73032952Y-24963428D01*
X72842476Y-24915809D01*
X72747238Y-24868190D01*
X72652000Y-24772952D01*
X72604380Y-24630095D01*
X72604380Y-24534857D01*
X72652000Y-24392000D01*
X72699619Y-24344380D01*
X73080571Y-23915809D02*
X73080571Y-23582476D01*
X73604380Y-23439619D02*
X73604380Y-23915809D01*
X72604380Y-23915809D01*
X72604380Y-23439619D01*
X73604380Y-23011047D02*
X72604380Y-23011047D01*
X72604380Y-22677714D02*
X73604380Y-22344380D01*
X72604380Y-22011047D01*
X73080571Y-21677714D02*
X73080571Y-21344380D01*
X73604380Y-21201523D02*
X73604380Y-21677714D01*
X72604380Y-21677714D01*
X72604380Y-21201523D01*
X73604380Y-20201523D02*
X73128190Y-20534857D01*
X73604380Y-20772952D02*
X72604380Y-20772952D01*
X72604380Y-20392000D01*
X72652000Y-20296761D01*
X72699619Y-20249142D01*
X72794857Y-20201523D01*
X72937714Y-20201523D01*
X73032952Y-20249142D01*
X73080571Y-20296761D01*
X73128190Y-20392000D01*
X73128190Y-20772952D01*
%TO.C,R2*%
X81621333Y-39314380D02*
X81288000Y-38838190D01*
X81049904Y-39314380D02*
X81049904Y-38314380D01*
X81430857Y-38314380D01*
X81526095Y-38362000D01*
X81573714Y-38409619D01*
X81621333Y-38504857D01*
X81621333Y-38647714D01*
X81573714Y-38742952D01*
X81526095Y-38790571D01*
X81430857Y-38838190D01*
X81049904Y-38838190D01*
X82002285Y-38409619D02*
X82049904Y-38362000D01*
X82145142Y-38314380D01*
X82383238Y-38314380D01*
X82478476Y-38362000D01*
X82526095Y-38409619D01*
X82573714Y-38504857D01*
X82573714Y-38600095D01*
X82526095Y-38742952D01*
X81954666Y-39314380D01*
X82573714Y-39314380D01*
%TO.C,R1*%
X68524380Y-37504666D02*
X68048190Y-37838000D01*
X68524380Y-38076095D02*
X67524380Y-38076095D01*
X67524380Y-37695142D01*
X67572000Y-37599904D01*
X67619619Y-37552285D01*
X67714857Y-37504666D01*
X67857714Y-37504666D01*
X67952952Y-37552285D01*
X68000571Y-37599904D01*
X68048190Y-37695142D01*
X68048190Y-38076095D01*
X68524380Y-36552285D02*
X68524380Y-37123714D01*
X68524380Y-36838000D02*
X67524380Y-36838000D01*
X67667238Y-36933238D01*
X67762476Y-37028476D01*
X67810095Y-37123714D01*
%TO.C,R6*%
X58043333Y-32692380D02*
X57710000Y-32216190D01*
X57471904Y-32692380D02*
X57471904Y-31692380D01*
X57852857Y-31692380D01*
X57948095Y-31740000D01*
X57995714Y-31787619D01*
X58043333Y-31882857D01*
X58043333Y-32025714D01*
X57995714Y-32120952D01*
X57948095Y-32168571D01*
X57852857Y-32216190D01*
X57471904Y-32216190D01*
X58900476Y-31692380D02*
X58710000Y-31692380D01*
X58614761Y-31740000D01*
X58567142Y-31787619D01*
X58471904Y-31930476D01*
X58424285Y-32120952D01*
X58424285Y-32501904D01*
X58471904Y-32597142D01*
X58519523Y-32644761D01*
X58614761Y-32692380D01*
X58805238Y-32692380D01*
X58900476Y-32644761D01*
X58948095Y-32597142D01*
X58995714Y-32501904D01*
X58995714Y-32263809D01*
X58948095Y-32168571D01*
X58900476Y-32120952D01*
X58805238Y-32073333D01*
X58614761Y-32073333D01*
X58519523Y-32120952D01*
X58471904Y-32168571D01*
X58424285Y-32263809D01*
%TO.C,SW3*%
X69675238Y-62420666D02*
X69627619Y-62563523D01*
X69627619Y-62801619D01*
X69675238Y-62896857D01*
X69722857Y-62944476D01*
X69818095Y-62992095D01*
X69913333Y-62992095D01*
X70008571Y-62944476D01*
X70056190Y-62896857D01*
X70103809Y-62801619D01*
X70151428Y-62611142D01*
X70199047Y-62515904D01*
X70246666Y-62468285D01*
X70341904Y-62420666D01*
X70437142Y-62420666D01*
X70532380Y-62468285D01*
X70580000Y-62515904D01*
X70627619Y-62611142D01*
X70627619Y-62849238D01*
X70580000Y-62992095D01*
X70627619Y-63325428D02*
X69627619Y-63563523D01*
X70341904Y-63754000D01*
X69627619Y-63944476D01*
X70627619Y-64182571D01*
X70627619Y-64468285D02*
X70627619Y-65087333D01*
X70246666Y-64754000D01*
X70246666Y-64896857D01*
X70199047Y-64992095D01*
X70151428Y-65039714D01*
X70056190Y-65087333D01*
X69818095Y-65087333D01*
X69722857Y-65039714D01*
X69675238Y-64992095D01*
X69627619Y-64896857D01*
X69627619Y-64611142D01*
X69675238Y-64515904D01*
X69722857Y-64468285D01*
D11*
%TO.C,J3*%
X57166666Y-22064380D02*
X57166666Y-22778666D01*
X57119047Y-22921523D01*
X57023809Y-23016761D01*
X56880952Y-23064380D01*
X56785714Y-23064380D01*
X57547619Y-22064380D02*
X58166666Y-22064380D01*
X57833333Y-22445333D01*
X57976190Y-22445333D01*
X58071428Y-22492952D01*
X58119047Y-22540571D01*
X58166666Y-22635809D01*
X58166666Y-22873904D01*
X58119047Y-22969142D01*
X58071428Y-23016761D01*
X57976190Y-23064380D01*
X57690476Y-23064380D01*
X57595238Y-23016761D01*
X57547619Y-22969142D01*
D10*
%TO.C,SW11*%
X81690476Y-34154761D02*
X81833333Y-34202380D01*
X82071428Y-34202380D01*
X82166666Y-34154761D01*
X82214285Y-34107142D01*
X82261904Y-34011904D01*
X82261904Y-33916666D01*
X82214285Y-33821428D01*
X82166666Y-33773809D01*
X82071428Y-33726190D01*
X81880952Y-33678571D01*
X81785714Y-33630952D01*
X81738095Y-33583333D01*
X81690476Y-33488095D01*
X81690476Y-33392857D01*
X81738095Y-33297619D01*
X81785714Y-33250000D01*
X81880952Y-33202380D01*
X82119047Y-33202380D01*
X82261904Y-33250000D01*
X82595238Y-33202380D02*
X82833333Y-34202380D01*
X83023809Y-33488095D01*
X83214285Y-34202380D01*
X83452380Y-33202380D01*
X84357142Y-34202380D02*
X83785714Y-34202380D01*
X84071428Y-34202380D02*
X84071428Y-33202380D01*
X83976190Y-33345238D01*
X83880952Y-33440476D01*
X83785714Y-33488095D01*
X85309523Y-34202380D02*
X84738095Y-34202380D01*
X85023809Y-34202380D02*
X85023809Y-33202380D01*
X84928571Y-33345238D01*
X84833333Y-33440476D01*
X84738095Y-33488095D01*
%TO.C,SW10*%
X86058238Y-50006476D02*
X86010619Y-50149333D01*
X86010619Y-50387428D01*
X86058238Y-50482666D01*
X86105857Y-50530285D01*
X86201095Y-50577904D01*
X86296333Y-50577904D01*
X86391571Y-50530285D01*
X86439190Y-50482666D01*
X86486809Y-50387428D01*
X86534428Y-50196952D01*
X86582047Y-50101714D01*
X86629666Y-50054095D01*
X86724904Y-50006476D01*
X86820142Y-50006476D01*
X86915380Y-50054095D01*
X86963000Y-50101714D01*
X87010619Y-50196952D01*
X87010619Y-50435047D01*
X86963000Y-50577904D01*
X87010619Y-50911238D02*
X86010619Y-51149333D01*
X86724904Y-51339809D01*
X86010619Y-51530285D01*
X87010619Y-51768380D01*
X86010619Y-52673142D02*
X86010619Y-52101714D01*
X86010619Y-52387428D02*
X87010619Y-52387428D01*
X86867761Y-52292190D01*
X86772523Y-52196952D01*
X86724904Y-52101714D01*
X87010619Y-53292190D02*
X87010619Y-53387428D01*
X86963000Y-53482666D01*
X86915380Y-53530285D01*
X86820142Y-53577904D01*
X86629666Y-53625523D01*
X86391571Y-53625523D01*
X86201095Y-53577904D01*
X86105857Y-53530285D01*
X86058238Y-53482666D01*
X86010619Y-53387428D01*
X86010619Y-53292190D01*
X86058238Y-53196952D01*
X86105857Y-53149333D01*
X86201095Y-53101714D01*
X86391571Y-53054095D01*
X86629666Y-53054095D01*
X86820142Y-53101714D01*
X86915380Y-53149333D01*
X86963000Y-53196952D01*
X87010619Y-53292190D01*
%TO.C,SW8*%
X77930238Y-50482666D02*
X77882619Y-50625523D01*
X77882619Y-50863619D01*
X77930238Y-50958857D01*
X77977857Y-51006476D01*
X78073095Y-51054095D01*
X78168333Y-51054095D01*
X78263571Y-51006476D01*
X78311190Y-50958857D01*
X78358809Y-50863619D01*
X78406428Y-50673142D01*
X78454047Y-50577904D01*
X78501666Y-50530285D01*
X78596904Y-50482666D01*
X78692142Y-50482666D01*
X78787380Y-50530285D01*
X78835000Y-50577904D01*
X78882619Y-50673142D01*
X78882619Y-50911238D01*
X78835000Y-51054095D01*
X78882619Y-51387428D02*
X77882619Y-51625523D01*
X78596904Y-51816000D01*
X77882619Y-52006476D01*
X78882619Y-52244571D01*
X78454047Y-52768380D02*
X78501666Y-52673142D01*
X78549285Y-52625523D01*
X78644523Y-52577904D01*
X78692142Y-52577904D01*
X78787380Y-52625523D01*
X78835000Y-52673142D01*
X78882619Y-52768380D01*
X78882619Y-52958857D01*
X78835000Y-53054095D01*
X78787380Y-53101714D01*
X78692142Y-53149333D01*
X78644523Y-53149333D01*
X78549285Y-53101714D01*
X78501666Y-53054095D01*
X78454047Y-52958857D01*
X78454047Y-52768380D01*
X78406428Y-52673142D01*
X78358809Y-52625523D01*
X78263571Y-52577904D01*
X78073095Y-52577904D01*
X77977857Y-52625523D01*
X77930238Y-52673142D01*
X77882619Y-52768380D01*
X77882619Y-52958857D01*
X77930238Y-53054095D01*
X77977857Y-53101714D01*
X78073095Y-53149333D01*
X78263571Y-53149333D01*
X78358809Y-53101714D01*
X78406428Y-53054095D01*
X78454047Y-52958857D01*
%TO.C,SW2*%
X61293238Y-62420666D02*
X61245619Y-62563523D01*
X61245619Y-62801619D01*
X61293238Y-62896857D01*
X61340857Y-62944476D01*
X61436095Y-62992095D01*
X61531333Y-62992095D01*
X61626571Y-62944476D01*
X61674190Y-62896857D01*
X61721809Y-62801619D01*
X61769428Y-62611142D01*
X61817047Y-62515904D01*
X61864666Y-62468285D01*
X61959904Y-62420666D01*
X62055142Y-62420666D01*
X62150380Y-62468285D01*
X62198000Y-62515904D01*
X62245619Y-62611142D01*
X62245619Y-62849238D01*
X62198000Y-62992095D01*
X62245619Y-63325428D02*
X61245619Y-63563523D01*
X61959904Y-63754000D01*
X61245619Y-63944476D01*
X62245619Y-64182571D01*
X62150380Y-64515904D02*
X62198000Y-64563523D01*
X62245619Y-64658761D01*
X62245619Y-64896857D01*
X62198000Y-64992095D01*
X62150380Y-65039714D01*
X62055142Y-65087333D01*
X61959904Y-65087333D01*
X61817047Y-65039714D01*
X61245619Y-64468285D01*
X61245619Y-65087333D01*
%TO.C,D2*%
X62471904Y-39322380D02*
X62471904Y-38322380D01*
X62710000Y-38322380D01*
X62852857Y-38370000D01*
X62948095Y-38465238D01*
X62995714Y-38560476D01*
X63043333Y-38750952D01*
X63043333Y-38893809D01*
X62995714Y-39084285D01*
X62948095Y-39179523D01*
X62852857Y-39274761D01*
X62710000Y-39322380D01*
X62471904Y-39322380D01*
X63424285Y-38417619D02*
X63471904Y-38370000D01*
X63567142Y-38322380D01*
X63805238Y-38322380D01*
X63900476Y-38370000D01*
X63948095Y-38417619D01*
X63995714Y-38512857D01*
X63995714Y-38608095D01*
X63948095Y-38750952D01*
X63376666Y-39322380D01*
X63995714Y-39322380D01*
%TO.C,SW7*%
X69675238Y-50482666D02*
X69627619Y-50625523D01*
X69627619Y-50863619D01*
X69675238Y-50958857D01*
X69722857Y-51006476D01*
X69818095Y-51054095D01*
X69913333Y-51054095D01*
X70008571Y-51006476D01*
X70056190Y-50958857D01*
X70103809Y-50863619D01*
X70151428Y-50673142D01*
X70199047Y-50577904D01*
X70246666Y-50530285D01*
X70341904Y-50482666D01*
X70437142Y-50482666D01*
X70532380Y-50530285D01*
X70580000Y-50577904D01*
X70627619Y-50673142D01*
X70627619Y-50911238D01*
X70580000Y-51054095D01*
X70627619Y-51387428D02*
X69627619Y-51625523D01*
X70341904Y-51816000D01*
X69627619Y-52006476D01*
X70627619Y-52244571D01*
X70627619Y-52530285D02*
X70627619Y-53196952D01*
X69627619Y-52768380D01*
%TO.C,SW5*%
X53165238Y-50482666D02*
X53117619Y-50625523D01*
X53117619Y-50863619D01*
X53165238Y-50958857D01*
X53212857Y-51006476D01*
X53308095Y-51054095D01*
X53403333Y-51054095D01*
X53498571Y-51006476D01*
X53546190Y-50958857D01*
X53593809Y-50863619D01*
X53641428Y-50673142D01*
X53689047Y-50577904D01*
X53736666Y-50530285D01*
X53831904Y-50482666D01*
X53927142Y-50482666D01*
X54022380Y-50530285D01*
X54070000Y-50577904D01*
X54117619Y-50673142D01*
X54117619Y-50911238D01*
X54070000Y-51054095D01*
X54117619Y-51387428D02*
X53117619Y-51625523D01*
X53831904Y-51816000D01*
X53117619Y-52006476D01*
X54117619Y-52244571D01*
X54117619Y-53101714D02*
X54117619Y-52625523D01*
X53641428Y-52577904D01*
X53689047Y-52625523D01*
X53736666Y-52720761D01*
X53736666Y-52958857D01*
X53689047Y-53054095D01*
X53641428Y-53101714D01*
X53546190Y-53149333D01*
X53308095Y-53149333D01*
X53212857Y-53101714D01*
X53165238Y-53054095D01*
X53117619Y-52958857D01*
X53117619Y-52720761D01*
X53165238Y-52625523D01*
X53212857Y-52577904D01*
%TO.C,R5*%
X57999333Y-36774380D02*
X57666000Y-36298190D01*
X57427904Y-36774380D02*
X57427904Y-35774380D01*
X57808857Y-35774380D01*
X57904095Y-35822000D01*
X57951714Y-35869619D01*
X57999333Y-35964857D01*
X57999333Y-36107714D01*
X57951714Y-36202952D01*
X57904095Y-36250571D01*
X57808857Y-36298190D01*
X57427904Y-36298190D01*
X58904095Y-35774380D02*
X58427904Y-35774380D01*
X58380285Y-36250571D01*
X58427904Y-36202952D01*
X58523142Y-36155333D01*
X58761238Y-36155333D01*
X58856476Y-36202952D01*
X58904095Y-36250571D01*
X58951714Y-36345809D01*
X58951714Y-36583904D01*
X58904095Y-36679142D01*
X58856476Y-36726761D01*
X58761238Y-36774380D01*
X58523142Y-36774380D01*
X58427904Y-36726761D01*
X58380285Y-36679142D01*
%TO.C,R4*%
X81367333Y-43378380D02*
X81034000Y-42902190D01*
X80795904Y-43378380D02*
X80795904Y-42378380D01*
X81176857Y-42378380D01*
X81272095Y-42426000D01*
X81319714Y-42473619D01*
X81367333Y-42568857D01*
X81367333Y-42711714D01*
X81319714Y-42806952D01*
X81272095Y-42854571D01*
X81176857Y-42902190D01*
X80795904Y-42902190D01*
X82224476Y-42711714D02*
X82224476Y-43378380D01*
X81986380Y-42330761D02*
X81748285Y-43045047D01*
X82367333Y-43045047D01*
D11*
%TO.C,J6*%
X81666666Y-21934380D02*
X81666666Y-22648666D01*
X81619047Y-22791523D01*
X81523809Y-22886761D01*
X81380952Y-22934380D01*
X81285714Y-22934380D01*
X82571428Y-21934380D02*
X82380952Y-21934380D01*
X82285714Y-21982000D01*
X82238095Y-22029619D01*
X82142857Y-22172476D01*
X82095238Y-22362952D01*
X82095238Y-22743904D01*
X82142857Y-22839142D01*
X82190476Y-22886761D01*
X82285714Y-22934380D01*
X82476190Y-22934380D01*
X82571428Y-22886761D01*
X82619047Y-22839142D01*
X82666666Y-22743904D01*
X82666666Y-22505809D01*
X82619047Y-22410571D01*
X82571428Y-22362952D01*
X82476190Y-22315333D01*
X82285714Y-22315333D01*
X82190476Y-22362952D01*
X82142857Y-22410571D01*
X82095238Y-22505809D01*
D10*
%TO.C,SW6*%
X61293238Y-50482666D02*
X61245619Y-50625523D01*
X61245619Y-50863619D01*
X61293238Y-50958857D01*
X61340857Y-51006476D01*
X61436095Y-51054095D01*
X61531333Y-51054095D01*
X61626571Y-51006476D01*
X61674190Y-50958857D01*
X61721809Y-50863619D01*
X61769428Y-50673142D01*
X61817047Y-50577904D01*
X61864666Y-50530285D01*
X61959904Y-50482666D01*
X62055142Y-50482666D01*
X62150380Y-50530285D01*
X62198000Y-50577904D01*
X62245619Y-50673142D01*
X62245619Y-50911238D01*
X62198000Y-51054095D01*
X62245619Y-51387428D02*
X61245619Y-51625523D01*
X61959904Y-51816000D01*
X61245619Y-52006476D01*
X62245619Y-52244571D01*
X62245619Y-53054095D02*
X62245619Y-52863619D01*
X62198000Y-52768380D01*
X62150380Y-52720761D01*
X62007523Y-52625523D01*
X61817047Y-52577904D01*
X61436095Y-52577904D01*
X61340857Y-52625523D01*
X61293238Y-52673142D01*
X61245619Y-52768380D01*
X61245619Y-52958857D01*
X61293238Y-53054095D01*
X61340857Y-53101714D01*
X61436095Y-53149333D01*
X61674190Y-53149333D01*
X61769428Y-53101714D01*
X61817047Y-53054095D01*
X61864666Y-52958857D01*
X61864666Y-52768380D01*
X61817047Y-52673142D01*
X61769428Y-52625523D01*
X61674190Y-52577904D01*
%TO.C,R3*%
X72588380Y-37504666D02*
X72112190Y-37838000D01*
X72588380Y-38076095D02*
X71588380Y-38076095D01*
X71588380Y-37695142D01*
X71636000Y-37599904D01*
X71683619Y-37552285D01*
X71778857Y-37504666D01*
X71921714Y-37504666D01*
X72016952Y-37552285D01*
X72064571Y-37599904D01*
X72112190Y-37695142D01*
X72112190Y-38076095D01*
X71588380Y-37171333D02*
X71588380Y-36552285D01*
X71969333Y-36885619D01*
X71969333Y-36742761D01*
X72016952Y-36647523D01*
X72064571Y-36599904D01*
X72159809Y-36552285D01*
X72397904Y-36552285D01*
X72493142Y-36599904D01*
X72540761Y-36647523D01*
X72588380Y-36742761D01*
X72588380Y-37028476D01*
X72540761Y-37123714D01*
X72493142Y-37171333D01*
%TO.C,R7*%
X55489333Y-43348380D02*
X55156000Y-42872190D01*
X54917904Y-43348380D02*
X54917904Y-42348380D01*
X55298857Y-42348380D01*
X55394095Y-42396000D01*
X55441714Y-42443619D01*
X55489333Y-42538857D01*
X55489333Y-42681714D01*
X55441714Y-42776952D01*
X55394095Y-42824571D01*
X55298857Y-42872190D01*
X54917904Y-42872190D01*
X55822666Y-42348380D02*
X56489333Y-42348380D01*
X56060761Y-43348380D01*
%TO.C,D1*%
X54887904Y-40076380D02*
X54887904Y-39076380D01*
X55126000Y-39076380D01*
X55268857Y-39124000D01*
X55364095Y-39219238D01*
X55411714Y-39314476D01*
X55459333Y-39504952D01*
X55459333Y-39647809D01*
X55411714Y-39838285D01*
X55364095Y-39933523D01*
X55268857Y-40028761D01*
X55126000Y-40076380D01*
X54887904Y-40076380D01*
X56411714Y-40076380D02*
X55840285Y-40076380D01*
X56126000Y-40076380D02*
X56126000Y-39076380D01*
X56030761Y-39219238D01*
X55935523Y-39314476D01*
X55840285Y-39362095D01*
%TO.C,SW1*%
X53165238Y-62420666D02*
X53117619Y-62563523D01*
X53117619Y-62801619D01*
X53165238Y-62896857D01*
X53212857Y-62944476D01*
X53308095Y-62992095D01*
X53403333Y-62992095D01*
X53498571Y-62944476D01*
X53546190Y-62896857D01*
X53593809Y-62801619D01*
X53641428Y-62611142D01*
X53689047Y-62515904D01*
X53736666Y-62468285D01*
X53831904Y-62420666D01*
X53927142Y-62420666D01*
X54022380Y-62468285D01*
X54070000Y-62515904D01*
X54117619Y-62611142D01*
X54117619Y-62849238D01*
X54070000Y-62992095D01*
X54117619Y-63325428D02*
X53117619Y-63563523D01*
X53831904Y-63754000D01*
X53117619Y-63944476D01*
X54117619Y-64182571D01*
X53117619Y-65087333D02*
X53117619Y-64515904D01*
X53117619Y-64801619D02*
X54117619Y-64801619D01*
X53974761Y-64706380D01*
X53879523Y-64611142D01*
X53831904Y-64515904D01*
%TO.C,SW4*%
X77930238Y-62293666D02*
X77882619Y-62436523D01*
X77882619Y-62674619D01*
X77930238Y-62769857D01*
X77977857Y-62817476D01*
X78073095Y-62865095D01*
X78168333Y-62865095D01*
X78263571Y-62817476D01*
X78311190Y-62769857D01*
X78358809Y-62674619D01*
X78406428Y-62484142D01*
X78454047Y-62388904D01*
X78501666Y-62341285D01*
X78596904Y-62293666D01*
X78692142Y-62293666D01*
X78787380Y-62341285D01*
X78835000Y-62388904D01*
X78882619Y-62484142D01*
X78882619Y-62722238D01*
X78835000Y-62865095D01*
X78882619Y-63198428D02*
X77882619Y-63436523D01*
X78596904Y-63627000D01*
X77882619Y-63817476D01*
X78882619Y-64055571D01*
X78549285Y-64865095D02*
X77882619Y-64865095D01*
X78930238Y-64627000D02*
X78215952Y-64388904D01*
X78215952Y-65007952D01*
%TO.C,SW9*%
X86185238Y-62166666D02*
X86137619Y-62309523D01*
X86137619Y-62547619D01*
X86185238Y-62642857D01*
X86232857Y-62690476D01*
X86328095Y-62738095D01*
X86423333Y-62738095D01*
X86518571Y-62690476D01*
X86566190Y-62642857D01*
X86613809Y-62547619D01*
X86661428Y-62357142D01*
X86709047Y-62261904D01*
X86756666Y-62214285D01*
X86851904Y-62166666D01*
X86947142Y-62166666D01*
X87042380Y-62214285D01*
X87090000Y-62261904D01*
X87137619Y-62357142D01*
X87137619Y-62595238D01*
X87090000Y-62738095D01*
X87137619Y-63071428D02*
X86137619Y-63309523D01*
X86851904Y-63500000D01*
X86137619Y-63690476D01*
X87137619Y-63928571D01*
X86137619Y-64357142D02*
X86137619Y-64547619D01*
X86185238Y-64642857D01*
X86232857Y-64690476D01*
X86375714Y-64785714D01*
X86566190Y-64833333D01*
X86947142Y-64833333D01*
X87042380Y-64785714D01*
X87090000Y-64738095D01*
X87137619Y-64642857D01*
X87137619Y-64452380D01*
X87090000Y-64357142D01*
X87042380Y-64309523D01*
X86947142Y-64261904D01*
X86709047Y-64261904D01*
X86613809Y-64309523D01*
X86566190Y-64357142D01*
X86518571Y-64452380D01*
X86518571Y-64642857D01*
X86566190Y-64738095D01*
X86613809Y-64785714D01*
X86709047Y-64833333D01*
D12*
%TO.C,R2*%
X86408000Y-37142000D02*
X77168000Y-37142000D01*
X86408000Y-40582000D02*
X86408000Y-37142000D01*
X77168000Y-37142000D02*
X77168000Y-40582000D01*
X77168000Y-40582000D02*
X86408000Y-40582000D01*
X87098000Y-38862000D02*
X86408000Y-38862000D01*
X76478000Y-38862000D02*
X77168000Y-38862000D01*
%TO.C,R1*%
X66352000Y-32718000D02*
X66352000Y-41958000D01*
X66352000Y-41958000D02*
X69792000Y-41958000D01*
X68072000Y-42648000D02*
X68072000Y-41958000D01*
X68072000Y-32028000D02*
X68072000Y-32718000D01*
X69792000Y-41958000D02*
X69792000Y-32718000D01*
X69792000Y-32718000D02*
X66352000Y-32718000D01*
%TO.C,R6*%
X52900000Y-32240000D02*
X53590000Y-32240000D01*
X62830000Y-33960000D02*
X62830000Y-30520000D01*
X53590000Y-33960000D02*
X62830000Y-33960000D01*
X63520000Y-32240000D02*
X62830000Y-32240000D01*
X53590000Y-30520000D02*
X53590000Y-33960000D01*
X62830000Y-30520000D02*
X53590000Y-30520000D01*
%TO.C,SW3*%
X67080000Y-68754000D02*
X67080000Y-58754000D01*
X73580000Y-58754000D02*
X73580000Y-68754000D01*
X67080000Y-58754000D02*
X73580000Y-58754000D01*
X73580000Y-68754000D02*
X67080000Y-68754000D01*
D13*
%TO.C,J3*%
X50100000Y-15500000D02*
X50100000Y-29200000D01*
X64900000Y-15500000D02*
X50100000Y-15500000D01*
X64900000Y-29200000D02*
X64900000Y-15500000D01*
X64900000Y-29200000D02*
X50100000Y-29200000D01*
D12*
%TO.C,SW11*%
X78500000Y-30250000D02*
X88500000Y-30250000D01*
X88500000Y-30250000D02*
X88500000Y-36750000D01*
X78500000Y-36750000D02*
X78500000Y-30250000D01*
X88500000Y-36750000D02*
X78500000Y-36750000D01*
%TO.C,SW10*%
X89963000Y-56816000D02*
X83463000Y-56816000D01*
X83463000Y-56816000D02*
X83463000Y-46816000D01*
X89963000Y-46816000D02*
X89963000Y-56816000D01*
X83463000Y-46816000D02*
X89963000Y-46816000D01*
%TO.C,SW8*%
X81835000Y-46816000D02*
X81835000Y-56816000D01*
X75335000Y-46816000D02*
X81835000Y-46816000D01*
X75335000Y-56816000D02*
X75335000Y-46816000D01*
X81835000Y-56816000D02*
X75335000Y-56816000D01*
%TO.C,SW2*%
X65198000Y-68754000D02*
X58698000Y-68754000D01*
X58698000Y-68754000D02*
X58698000Y-58754000D01*
X58698000Y-58754000D02*
X65198000Y-58754000D01*
X65198000Y-58754000D02*
X65198000Y-68754000D01*
%TO.C,D2*%
X62010000Y-43470000D02*
X62166000Y-43470000D01*
X64326000Y-43470000D02*
X64482000Y-43470000D01*
X64481516Y-43470000D02*
G75*
G03*
X64324608Y-40237665I-1235516J1560000D01*
G01*
X62167392Y-40237665D02*
G75*
G03*
X62010484Y-43470000I1078608J-1672335D01*
G01*
X62166163Y-40868870D02*
G75*
G03*
X62166000Y-42950961I1079837J-1041130D01*
G01*
X64326000Y-42950961D02*
G75*
G03*
X64325837Y-40868870I-1080000J1040961D01*
G01*
%TO.C,SW7*%
X73580000Y-56816000D02*
X67080000Y-56816000D01*
X67080000Y-56816000D02*
X67080000Y-46816000D01*
X73580000Y-46816000D02*
X73580000Y-56816000D01*
X67080000Y-46816000D02*
X73580000Y-46816000D01*
%TO.C,SW5*%
X57070000Y-46816000D02*
X57070000Y-56816000D01*
X57070000Y-56816000D02*
X50570000Y-56816000D01*
X50570000Y-56816000D02*
X50570000Y-46816000D01*
X50570000Y-46816000D02*
X57070000Y-46816000D01*
%TO.C,R5*%
X63476000Y-36322000D02*
X62786000Y-36322000D01*
X53546000Y-34602000D02*
X53546000Y-38042000D01*
X52856000Y-36322000D02*
X53546000Y-36322000D01*
X53546000Y-38042000D02*
X62786000Y-38042000D01*
X62786000Y-34602000D02*
X53546000Y-34602000D01*
X62786000Y-38042000D02*
X62786000Y-34602000D01*
%TO.C,R4*%
X76914000Y-44646000D02*
X86154000Y-44646000D01*
X86154000Y-41206000D02*
X76914000Y-41206000D01*
X76224000Y-42926000D02*
X76914000Y-42926000D01*
X86154000Y-44646000D02*
X86154000Y-41206000D01*
X86844000Y-42926000D02*
X86154000Y-42926000D01*
X76914000Y-41206000D02*
X76914000Y-44646000D01*
D13*
%TO.C,J6*%
X89400000Y-15370000D02*
X74600000Y-15370000D01*
X74600000Y-15370000D02*
X74600000Y-29070000D01*
X89400000Y-29070000D02*
X74600000Y-29070000D01*
X89400000Y-29070000D02*
X89400000Y-15370000D01*
D12*
%TO.C,SW6*%
X65198000Y-46816000D02*
X65198000Y-56816000D01*
X58698000Y-46816000D02*
X65198000Y-46816000D01*
X58698000Y-56816000D02*
X58698000Y-46816000D01*
X65198000Y-56816000D02*
X58698000Y-56816000D01*
%TO.C,R3*%
X70416000Y-32718000D02*
X70416000Y-41958000D01*
X72136000Y-32028000D02*
X72136000Y-32718000D01*
X70416000Y-41958000D02*
X73856000Y-41958000D01*
X73856000Y-32718000D02*
X70416000Y-32718000D01*
X72136000Y-42648000D02*
X72136000Y-41958000D01*
X73856000Y-41958000D02*
X73856000Y-32718000D01*
%TO.C,R7*%
X58896000Y-44296000D02*
X58896000Y-43966000D01*
X52356000Y-43966000D02*
X52356000Y-44296000D01*
X52356000Y-41886000D02*
X52356000Y-41556000D01*
X52356000Y-44296000D02*
X58896000Y-44296000D01*
X52356000Y-41556000D02*
X58896000Y-41556000D01*
X58896000Y-41556000D02*
X58896000Y-41886000D01*
%TO.C,D1*%
X54226000Y-38504000D02*
X54226000Y-40744000D01*
X57746000Y-40744000D02*
X57746000Y-38504000D01*
X53506000Y-38504000D02*
X53506000Y-40744000D01*
X53506000Y-40744000D02*
X57746000Y-40744000D01*
X52856000Y-39624000D02*
X53506000Y-39624000D01*
X54346000Y-38504000D02*
X54346000Y-40744000D01*
X57746000Y-38504000D02*
X53506000Y-38504000D01*
X58396000Y-39624000D02*
X57746000Y-39624000D01*
X54106000Y-38504000D02*
X54106000Y-40744000D01*
%TO.C,SW1*%
X57070000Y-58754000D02*
X57070000Y-68754000D01*
X50570000Y-68754000D02*
X50570000Y-58754000D01*
X57070000Y-68754000D02*
X50570000Y-68754000D01*
X50570000Y-58754000D02*
X57070000Y-58754000D01*
%TO.C,SW4*%
X75335000Y-58627000D02*
X81835000Y-58627000D01*
X81835000Y-58627000D02*
X81835000Y-68627000D01*
X81835000Y-68627000D02*
X75335000Y-68627000D01*
X75335000Y-68627000D02*
X75335000Y-58627000D01*
%TO.C,SW9*%
X90090000Y-58500000D02*
X90090000Y-68500000D01*
X83590000Y-58500000D02*
X90090000Y-58500000D01*
X90090000Y-68500000D02*
X83590000Y-68500000D01*
X83590000Y-68500000D02*
X83590000Y-58500000D01*
%TD*%
D14*
%TO.C,J3*%
X57500000Y-27880000D03*
X54960000Y-27880000D03*
%TD*%
%TO.C,J6*%
X82000000Y-27750000D03*
X79460000Y-27750000D03*
%TD*%
M02*
