M48
; DRILL file {KiCad (6.0.11)} date Sat Apr  8 23:23:59 2023
; FORMAT={-:-/ absolute / inch / decimal}
; #@! TF.CreationDate,2023-04-08T23:23:59-05:00
; #@! TF.GenerationSoftware,Kicad,Pcbnew,(6.0.11)
; #@! TF.FileFunction,Plated,1,2,PTH
FMAT,2
INCH
; #@! TA.AperFunction,Plated,PTH,ViaDrill
T1C0.0157
; #@! TA.AperFunction,Plated,PTH,ComponentDrill
T2C0.0300
; #@! TA.AperFunction,Plated,PTH,ComponentDrill
T3C0.0315
; #@! TA.AperFunction,Plated,PTH,ComponentDrill
T4C0.0354
; #@! TA.AperFunction,Plated,PTH,ComponentDrill
T5C0.0598
; #@! TA.AperFunction,Plated,PTH,ComponentDrill
T6C0.0827
%
G90
G05
T1
X2.126Y-2.9331
X2.3776Y-2.9724
X2.4518Y-3.0118
X2.7206Y-3.0906
X2.75Y-3.78
X2.7907Y-3.1693
X3.0443Y-3.4843
X3.0513Y-3.2087
X3.12Y-3.3268
T2
X2.0472Y-2.1816
X2.0472Y-2.28
X2.0472Y-2.3784
X2.0472Y-2.6181
X2.0472Y-2.7165
X2.0472Y-2.815
X2.185Y-2.1816
X2.185Y-2.28
X2.185Y-2.3784
X2.185Y-2.6181
X2.185Y-2.7165
X2.185Y-2.815
X2.38Y-2.185
X2.38Y-2.2835
X2.38Y-2.3819
X2.38Y-2.6181
X2.38Y-2.7165
X2.38Y-2.815
X2.5178Y-2.185
X2.5178Y-2.2835
X2.5178Y-2.3819
X2.5178Y-2.6181
X2.5178Y-2.7165
X2.5178Y-2.815
X2.72Y-2.185
X2.72Y-2.2835
X2.72Y-2.3819
X2.72Y-2.6181
X2.72Y-2.7165
X2.72Y-2.815
X2.8578Y-2.185
X2.8578Y-2.2835
X2.8578Y-2.3819
X2.8578Y-2.6181
X2.8578Y-2.7165
X2.8578Y-2.815
X3.05Y-2.185
X3.05Y-2.2835
X3.05Y-2.3819
X3.05Y-2.6181
X3.05Y-2.7165
X3.05Y-2.815
X3.1878Y-2.185
X3.1878Y-2.2835
X3.1878Y-2.3819
X3.1878Y-2.6181
X3.1878Y-2.7165
X3.1878Y-2.815
X3.189Y-1.25
X3.189Y-1.3878
X3.2874Y-1.25
X3.2874Y-1.3878
X3.38Y-2.1816
X3.38Y-2.28
X3.38Y-2.3784
X3.38Y-2.6216
X3.38Y-2.72
X3.38Y-2.8184
X3.3858Y-1.25
X3.3858Y-1.3878
X3.5178Y-2.1816
X3.5178Y-2.28
X3.5178Y-2.3784
X3.5178Y-2.6216
X3.5178Y-2.72
X3.5178Y-2.8184
T3
X2.2528Y-1.6945
X2.2528Y-1.9945
X2.2531Y-1.2547
X2.2531Y-1.5547
X2.4823Y-1.2472
X2.4823Y-1.7472
X2.6528Y-1.2484
X2.6528Y-1.7484
X2.8559Y-1.511
X2.8559Y-2.011
X3.0193Y-1.511
X3.0193Y-2.011
X3.1815Y-1.5067
X3.1815Y-2.0067
X3.3421Y-1.5067
X3.3421Y-2.0067
T4
X2.1638Y-1.0976
X2.2638Y-1.0976
X2.6012Y-1.8528
X2.6012Y-1.9528
X3.1283Y-1.0925
X3.2283Y-1.0925
T5
X2.1538Y-0.9902
X2.3538Y-0.9902
X3.1183Y-0.9851
X3.3183Y-0.9851
T6
X2.0638Y-0.8976
X2.4638Y-0.8976
X3.0283Y-0.8925
X3.4283Y-0.8925
T0
M30
