%TF.GenerationSoftware,KiCad,Pcbnew,(6.0.11)*%
%TF.CreationDate,2023-04-08T23:23:57-05:00*%
%TF.ProjectId,TMatchPCB,544d6174-6368-4504-9342-2e6b69636164,rev?*%
%TF.SameCoordinates,Original*%
%TF.FileFunction,Copper,L2,Bot*%
%TF.FilePolarity,Positive*%
%FSLAX46Y46*%
G04 Gerber Fmt 4.6, Leading zero omitted, Abs format (unit mm)*
G04 Created by KiCad (PCBNEW (6.0.11)) date 2023-04-08 23:23:57*
%MOMM*%
%LPD*%
G01*
G04 APERTURE LIST*
%TA.AperFunction,ComponentPad*%
%ADD10C,1.524000*%
%TD*%
%TA.AperFunction,ComponentPad*%
%ADD11C,1.600000*%
%TD*%
%TA.AperFunction,ComponentPad*%
%ADD12O,1.600000X1.600000*%
%TD*%
%TA.AperFunction,ComponentPad*%
%ADD13C,2.500000*%
%TD*%
%TA.AperFunction,ComponentPad*%
%ADD14C,1.500000*%
%TD*%
%TA.AperFunction,ComponentPad*%
%ADD15R,3.000000X3.000000*%
%TD*%
%TA.AperFunction,ComponentPad*%
%ADD16C,3.000000*%
%TD*%
%TA.AperFunction,ComponentPad*%
%ADD17R,1.800000X1.800000*%
%TD*%
%TA.AperFunction,ComponentPad*%
%ADD18C,1.800000*%
%TD*%
%TA.AperFunction,WasherPad*%
%ADD19R,25.000000X3.200000*%
%TD*%
%TA.AperFunction,ComponentPad*%
%ADD20R,1.600000X1.600000*%
%TD*%
%TA.AperFunction,ViaPad*%
%ADD21C,0.800000*%
%TD*%
%TA.AperFunction,Conductor*%
%ADD22C,0.500000*%
%TD*%
G04 APERTURE END LIST*
D10*
%TO.P,SW11,1,A*%
%TO.N,Net-(D1-Pad1)*%
X81000000Y-35250000D03*
%TO.P,SW11,2,B*%
%TO.N,Net-(J5-Pad1)*%
X83500000Y-35250000D03*
%TO.P,SW11,3,C*%
%TO.N,Net-(SW11-Pad3)*%
X86000000Y-35250000D03*
%TO.P,SW11,4,A*%
%TO.N,Net-(R1-Pad1)*%
X81000000Y-31750000D03*
%TO.P,SW11,5,B*%
%TO.N,Net-(J6-Pad1)*%
X83500000Y-31750000D03*
%TO.P,SW11,6,C*%
%TO.N,Net-(SW11-Pad3)*%
X86000000Y-31750000D03*
%TD*%
%TO.P,SW10,1*%
%TO.N,N/C*%
X85852000Y-55412000D03*
%TO.P,SW10,2,2*%
%TO.N,GND*%
X85852000Y-57912000D03*
%TO.P,SW10,3,3*%
%TO.N,Net-(J1-Pad1)*%
X85852000Y-60412000D03*
%TO.P,SW10,4*%
%TO.N,N/C*%
X89352000Y-55412000D03*
%TO.P,SW10,5*%
X89352000Y-57912000D03*
%TO.P,SW10,6*%
X89352000Y-60412000D03*
%TD*%
D11*
%TO.P,R2,1*%
%TO.N,Net-(D1-Pad2)*%
X80810000Y-50970000D03*
D12*
%TO.P,R2,2*%
%TO.N,GND*%
X80810000Y-38270000D03*
%TD*%
D11*
%TO.P,R1,1*%
%TO.N,Net-(R1-Pad1)*%
X72540000Y-38380000D03*
D12*
%TO.P,R1,2*%
%TO.N,Net-(D1-Pad2)*%
X72540000Y-51080000D03*
%TD*%
D11*
%TO.P,R6,1*%
%TO.N,Net-(D1-Pad1)*%
X67380000Y-31710000D03*
D12*
%TO.P,R6,2*%
%TO.N,Net-(R1-Pad1)*%
X67380000Y-44410000D03*
%TD*%
D10*
%TO.P,SW3,1*%
%TO.N,N/C*%
X69088000Y-66500000D03*
%TO.P,SW3,2,2*%
%TO.N,GND*%
X69088000Y-69000000D03*
%TO.P,SW3,3,3*%
%TO.N,Net-(J1-Pad1)*%
X69088000Y-71500000D03*
%TO.P,SW3,4*%
%TO.N,N/C*%
X72588000Y-66500000D03*
%TO.P,SW3,5*%
X72588000Y-69000000D03*
%TO.P,SW3,6*%
X72588000Y-71500000D03*
%TD*%
D13*
%TO.P,J3,*%
%TO.N,*%
X52420000Y-22800000D03*
X62580000Y-22800000D03*
D14*
%TO.P,J3,1,In*%
%TO.N,Net-(J3-Pad1)*%
X57500000Y-27880000D03*
D15*
X59786000Y-25152000D03*
D16*
%TO.P,J3,2,Ext*%
%TO.N,GND*%
X54706000Y-25152000D03*
D14*
X54960000Y-27880000D03*
%TD*%
D10*
%TO.P,SW8,1*%
%TO.N,N/C*%
X77470000Y-55500000D03*
%TO.P,SW8,2,2*%
%TO.N,GND*%
X77470000Y-58000000D03*
%TO.P,SW8,3,3*%
%TO.N,Net-(J1-Pad1)*%
X77470000Y-60500000D03*
%TO.P,SW8,4*%
%TO.N,N/C*%
X80970000Y-55500000D03*
%TO.P,SW8,5*%
X80970000Y-58000000D03*
%TO.P,SW8,6*%
X80970000Y-60500000D03*
%TD*%
%TO.P,SW2,1*%
%TO.N,N/C*%
X60452000Y-66500000D03*
%TO.P,SW2,2,2*%
%TO.N,GND*%
X60452000Y-69000000D03*
%TO.P,SW2,3,3*%
%TO.N,Net-(J1-Pad1)*%
X60452000Y-71500000D03*
%TO.P,SW2,4*%
%TO.N,N/C*%
X63952000Y-66500000D03*
%TO.P,SW2,5*%
X63952000Y-69000000D03*
%TO.P,SW2,6*%
X63952000Y-71500000D03*
%TD*%
D17*
%TO.P,D2,1,K*%
%TO.N,Net-(D2-Pad1)*%
X66070000Y-49600000D03*
D18*
%TO.P,D2,2,A*%
%TO.N,Net-(D1-Pad1)*%
X66070000Y-47060000D03*
%TD*%
D10*
%TO.P,SW7,1*%
%TO.N,N/C*%
X69088000Y-55500000D03*
%TO.P,SW7,2,2*%
%TO.N,GND*%
X69088000Y-58000000D03*
%TO.P,SW7,3,3*%
%TO.N,Net-(J1-Pad1)*%
X69088000Y-60500000D03*
%TO.P,SW7,4*%
%TO.N,N/C*%
X72588000Y-55500000D03*
%TO.P,SW7,5*%
X72588000Y-58000000D03*
%TO.P,SW7,6*%
X72588000Y-60500000D03*
%TD*%
%TO.P,SW5,1*%
%TO.N,N/C*%
X52000000Y-55412000D03*
%TO.P,SW5,2,2*%
%TO.N,GND*%
X52000000Y-57912000D03*
%TO.P,SW5,3,3*%
%TO.N,Net-(J1-Pad1)*%
X52000000Y-60412000D03*
%TO.P,SW5,4*%
%TO.N,N/C*%
X55500000Y-55412000D03*
%TO.P,SW5,5*%
X55500000Y-57912000D03*
%TO.P,SW5,6*%
X55500000Y-60412000D03*
%TD*%
D11*
%TO.P,R5,1*%
%TO.N,Net-(D1-Pad1)*%
X63050000Y-31680000D03*
D12*
%TO.P,R5,2*%
%TO.N,Net-(R1-Pad1)*%
X63050000Y-44380000D03*
%TD*%
D11*
%TO.P,R4,1*%
%TO.N,Net-(D1-Pad2)*%
X84890000Y-50970000D03*
D12*
%TO.P,R4,2*%
%TO.N,GND*%
X84890000Y-38270000D03*
%TD*%
D13*
%TO.P,J6,*%
%TO.N,*%
X87080000Y-22670000D03*
X76920000Y-22670000D03*
D15*
%TO.P,J6,1,In*%
%TO.N,Net-(J6-Pad1)*%
X84286000Y-25022000D03*
D14*
X82000000Y-27750000D03*
D16*
%TO.P,J6,2,Ext*%
%TO.N,GND*%
X79206000Y-25022000D03*
D14*
X79460000Y-27750000D03*
%TD*%
D19*
%TO.P,H1,*%
%TO.N,*%
X34770000Y-70090000D03*
%TD*%
%TO.P,H2,*%
%TO.N,*%
X105540000Y-70180000D03*
%TD*%
D10*
%TO.P,SW6,1*%
%TO.N,N/C*%
X60452000Y-55500000D03*
%TO.P,SW6,2,2*%
%TO.N,GND*%
X60452000Y-58000000D03*
%TO.P,SW6,3,3*%
%TO.N,Net-(J1-Pad1)*%
X60452000Y-60500000D03*
%TO.P,SW6,4*%
%TO.N,N/C*%
X63952000Y-55500000D03*
%TO.P,SW6,5*%
X63952000Y-58000000D03*
%TO.P,SW6,6*%
X63952000Y-60500000D03*
%TD*%
D11*
%TO.P,R3,1*%
%TO.N,Net-(R1-Pad1)*%
X76690000Y-38380000D03*
D12*
%TO.P,R3,2*%
%TO.N,Net-(D1-Pad2)*%
X76690000Y-51080000D03*
%TD*%
D11*
%TO.P,R7,1*%
%TO.N,Net-(D1-Pad2)*%
X57220000Y-50660000D03*
D12*
%TO.P,R7,2*%
%TO.N,Net-(D2-Pad1)*%
X57220000Y-43040000D03*
%TD*%
D20*
%TO.P,D1,1,K*%
%TO.N,Net-(D1-Pad1)*%
X57230000Y-31870000D03*
D12*
%TO.P,D1,2,A*%
%TO.N,Net-(R1-Pad2)*%
X57230000Y-39490000D03*
%TD*%
D10*
%TO.P,SW1,1*%
%TO.N,N/C*%
X52000000Y-66500000D03*
%TO.P,SW1,2,2*%
%TO.N,GND*%
X52000000Y-69000000D03*
%TO.P,SW1,3,3*%
%TO.N,Net-(J1-Pad1)*%
X52000000Y-71500000D03*
%TO.P,SW1,4*%
%TO.N,N/C*%
X55500000Y-66500000D03*
%TO.P,SW1,5*%
X55500000Y-69000000D03*
%TO.P,SW1,6*%
X55500000Y-71500000D03*
%TD*%
%TO.P,SW4,1*%
%TO.N,N/C*%
X77470000Y-66500000D03*
%TO.P,SW4,2,2*%
%TO.N,GND*%
X77470000Y-69000000D03*
%TO.P,SW4,3,3*%
%TO.N,Net-(J1-Pad1)*%
X77470000Y-71500000D03*
%TO.P,SW4,4*%
%TO.N,N/C*%
X80970000Y-66500000D03*
%TO.P,SW4,5*%
X80970000Y-69000000D03*
%TO.P,SW4,6*%
X80970000Y-71500000D03*
%TD*%
%TO.P,SW9,1*%
%TO.N,N/C*%
X85852000Y-66588000D03*
%TO.P,SW9,2,2*%
%TO.N,GND*%
X85852000Y-69088000D03*
%TO.P,SW9,3,3*%
%TO.N,Net-(J1-Pad1)*%
X85852000Y-71588000D03*
%TO.P,SW9,4*%
%TO.N,N/C*%
X89352000Y-66588000D03*
%TO.P,SW9,5*%
X89352000Y-69088000D03*
%TO.P,SW9,6*%
X89352000Y-71588000D03*
%TD*%
D21*
%TO.N,Net-(J1-Pad1)*%
X69850000Y-96012000D03*
X77324000Y-88500000D03*
X79248000Y-84500000D03*
X77504000Y-81500000D03*
X70884000Y-80500000D03*
X69102000Y-78500000D03*
X62276000Y-76500000D03*
X60390000Y-75500000D03*
X54000000Y-74500000D03*
%TD*%
D22*
%TO.N,Net-(J1-Pad1)*%
X70866000Y-62278000D02*
X69088000Y-60500000D01*
X70866000Y-80482000D02*
X70866000Y-62278000D01*
X70884000Y-80500000D02*
X70866000Y-80482000D01*
X79248000Y-62278000D02*
X77470000Y-60500000D01*
X79248000Y-84500000D02*
X79248000Y-62278000D01*
X87630000Y-62190000D02*
X85852000Y-60412000D01*
X87630000Y-80518000D02*
X87630000Y-62190000D01*
X72136000Y-96012000D02*
X87630000Y-80518000D01*
X69850000Y-96012000D02*
X72136000Y-96012000D01*
X77362000Y-88500000D02*
X85852000Y-80010000D01*
X77324000Y-88500000D02*
X77362000Y-88500000D01*
X85852000Y-80010000D02*
X85852000Y-71588000D01*
X77470000Y-81466000D02*
X77470000Y-71500000D01*
X77504000Y-81500000D02*
X77470000Y-81466000D01*
X69088000Y-78486000D02*
X69088000Y-71500000D01*
X69102000Y-78500000D02*
X69088000Y-78486000D01*
X62230000Y-76454000D02*
X62230000Y-62278000D01*
X62230000Y-62278000D02*
X60452000Y-60500000D01*
X62276000Y-76500000D02*
X62230000Y-76454000D01*
X60452000Y-71500000D02*
X60452000Y-75438000D01*
X60452000Y-75438000D02*
X60390000Y-75500000D01*
X53690000Y-62102000D02*
X52000000Y-60412000D01*
X53690000Y-73840000D02*
X53690000Y-62102000D01*
X54000000Y-74500000D02*
X54000000Y-74150000D01*
X54000000Y-74150000D02*
X53690000Y-73840000D01*
%TO.N,Net-(J3-Pad1)*%
X57500000Y-27880000D02*
X57500000Y-27438000D01*
X57500000Y-27438000D02*
X59786000Y-25152000D01*
%TO.N,Net-(J6-Pad1)*%
X82000000Y-27750000D02*
X83750000Y-27750000D01*
X83750000Y-27750000D02*
X84286000Y-28286000D01*
X84286000Y-30824000D02*
X83500000Y-31610000D01*
X84286000Y-28286000D02*
X84286000Y-30824000D01*
X84286000Y-25022000D02*
X84286000Y-28286000D01*
%TO.N,Net-(D1-Pad2)*%
X71830000Y-51790000D02*
X58420000Y-51790000D01*
X57290000Y-50660000D02*
X57220000Y-50660000D01*
X76660000Y-51110000D02*
X72570000Y-51110000D01*
X76690000Y-51080000D02*
X76660000Y-51110000D01*
X58420000Y-51790000D02*
X57290000Y-50660000D01*
X72540000Y-51080000D02*
X71830000Y-51790000D01*
X80810000Y-50970000D02*
X80770000Y-51010000D01*
X80830000Y-50950000D02*
X80810000Y-50970000D01*
X76760000Y-51010000D02*
X76690000Y-51080000D01*
X84890000Y-50970000D02*
X84870000Y-50950000D01*
X72570000Y-51110000D02*
X72540000Y-51080000D01*
X80770000Y-51010000D02*
X76760000Y-51010000D01*
X84870000Y-50950000D02*
X80830000Y-50950000D01*
%TO.N,Net-(D2-Pad1)*%
X57220000Y-43040000D02*
X57220000Y-44700000D01*
X62120000Y-49600000D02*
X66070000Y-49600000D01*
X57220000Y-44700000D02*
X62120000Y-49600000D01*
%TO.N,Net-(R1-Pad1)*%
X63150000Y-44280000D02*
X63050000Y-44380000D01*
X76690000Y-38380000D02*
X76670000Y-38400000D01*
X71100000Y-38380000D02*
X67380000Y-42100000D01*
X67380000Y-44410000D02*
X67250000Y-44280000D01*
X67250000Y-44280000D02*
X63150000Y-44280000D01*
X67380000Y-42100000D02*
X67380000Y-44410000D01*
X76670000Y-38400000D02*
X72560000Y-38400000D01*
X72560000Y-38400000D02*
X72540000Y-38380000D01*
X72540000Y-38380000D02*
X71100000Y-38380000D01*
%TO.N,Net-(SW11-Pad3)*%
X86000000Y-31610000D02*
X86000000Y-35110000D01*
%TO.N,Net-(D1-Pad1)*%
X67380000Y-31710000D02*
X67250000Y-31580000D01*
X63050000Y-31680000D02*
X60200000Y-34530000D01*
X63050000Y-31680000D02*
X57420000Y-31680000D01*
X81000000Y-35110000D02*
X70380000Y-35110000D01*
X60200000Y-34530000D02*
X60200000Y-44920000D01*
X70380000Y-35110000D02*
X67380000Y-32110000D01*
X67250000Y-31580000D02*
X63150000Y-31580000D01*
X57420000Y-31680000D02*
X57230000Y-31870000D01*
X62210000Y-47060000D02*
X66070000Y-47060000D01*
X60200000Y-44920000D02*
X62210000Y-46930000D01*
X63150000Y-31580000D02*
X63050000Y-31680000D01*
X62210000Y-46930000D02*
X62210000Y-47060000D01*
X67380000Y-32110000D02*
X67380000Y-31710000D01*
%TD*%
M02*
