%TF.GenerationSoftware,KiCad,Pcbnew,(6.0.11)*%
%TF.CreationDate,2023-04-08T23:23:57-05:00*%
%TF.ProjectId,TMatchPCB,544d6174-6368-4504-9342-2e6b69636164,rev?*%
%TF.SameCoordinates,Original*%
%TF.FileFunction,Legend,Bot*%
%TF.FilePolarity,Positive*%
%FSLAX46Y46*%
G04 Gerber Fmt 4.6, Leading zero omitted, Abs format (unit mm)*
G04 Created by KiCad (PCBNEW (6.0.11)) date 2023-04-08 23:23:57*
%MOMM*%
%LPD*%
G01*
G04 APERTURE LIST*
%ADD10C,0.150000*%
G04 APERTURE END LIST*
D10*
X112000000Y-20000000D02*
X112000000Y-120000000D01*
X116000000Y-20000000D02*
X116000000Y-120000000D01*
X100000000Y-20000000D02*
X100000000Y-120000000D01*
X106000000Y-120000000D02*
X106000000Y-20000000D01*
X98000000Y-120000000D02*
X98000000Y-20000000D01*
X114000000Y-120000000D02*
X114000000Y-20000000D01*
X96000000Y-20000000D02*
X96000000Y-120000000D01*
X42000000Y-20000000D02*
X44000000Y-20000000D01*
X46000000Y-120000000D02*
X46000000Y-20000000D01*
X24000000Y-20000000D02*
X24000000Y-120000000D01*
X108000000Y-20000000D02*
X108000000Y-120000000D01*
X42000000Y-120000000D02*
X42000000Y-20000000D01*
X44000000Y-20000000D02*
X44000000Y-120000000D01*
X28000000Y-20000000D02*
X28000000Y-120000000D01*
X102000000Y-120000000D02*
X102000000Y-20000000D01*
X118000000Y-120000000D02*
X118000000Y-20000000D01*
X32000000Y-20000000D02*
X32000000Y-120000000D01*
X40000000Y-20000000D02*
X40000000Y-120000000D01*
X34000000Y-120000000D02*
X34000000Y-20000000D01*
X36000000Y-20000000D02*
X36000000Y-120000000D01*
X110000000Y-120000000D02*
X110000000Y-20000000D01*
X38000000Y-120000000D02*
X38000000Y-20000000D01*
X104000000Y-20000000D02*
X104000000Y-120000000D01*
X94000000Y-120000000D02*
X94000000Y-20000000D01*
X26000000Y-120000000D02*
X26000000Y-20000000D01*
X22000000Y-120000000D02*
X22000000Y-20000000D01*
X30000000Y-120000000D02*
X30000000Y-20000000D01*
X106809523Y-20452380D02*
X107000000Y-20452380D01*
X107095238Y-20500000D01*
X107142857Y-20547619D01*
X107238095Y-20690476D01*
X107285714Y-20880952D01*
X107285714Y-21261904D01*
X107238095Y-21357142D01*
X107190476Y-21404761D01*
X107095238Y-21452380D01*
X106904761Y-21452380D01*
X106809523Y-21404761D01*
X106761904Y-21357142D01*
X106714285Y-21261904D01*
X106714285Y-21023809D01*
X106761904Y-20928571D01*
X106809523Y-20880952D01*
X106904761Y-20833333D01*
X107095238Y-20833333D01*
X107190476Y-20880952D01*
X107238095Y-20928571D01*
X107285714Y-21023809D01*
X119047619Y-20452380D02*
X118952380Y-20452380D01*
X118857142Y-20500000D01*
X118809523Y-20547619D01*
X118761904Y-20642857D01*
X118714285Y-20833333D01*
X118714285Y-21071428D01*
X118761904Y-21261904D01*
X118809523Y-21357142D01*
X118857142Y-21404761D01*
X118952380Y-21452380D01*
X119047619Y-21452380D01*
X119142857Y-21404761D01*
X119190476Y-21357142D01*
X119238095Y-21261904D01*
X119285714Y-21071428D01*
X119285714Y-20833333D01*
X119238095Y-20642857D01*
X119190476Y-20547619D01*
X119142857Y-20500000D01*
X119047619Y-20452380D01*
X39190476Y-21452380D02*
X39000000Y-21452380D01*
X38904761Y-21404761D01*
X38857142Y-21357142D01*
X38761904Y-21214285D01*
X38714285Y-21023809D01*
X38714285Y-20642857D01*
X38761904Y-20547619D01*
X38809523Y-20500000D01*
X38904761Y-20452380D01*
X39095238Y-20452380D01*
X39190476Y-20500000D01*
X39238095Y-20547619D01*
X39285714Y-20642857D01*
X39285714Y-20880952D01*
X39238095Y-20976190D01*
X39190476Y-21023809D01*
X39095238Y-21071428D01*
X38904761Y-21071428D01*
X38809523Y-21023809D01*
X38761904Y-20976190D01*
X38714285Y-20880952D01*
X101190476Y-119452380D02*
X101000000Y-119452380D01*
X100904761Y-119404761D01*
X100857142Y-119357142D01*
X100761904Y-119214285D01*
X100714285Y-119023809D01*
X100714285Y-118642857D01*
X100761904Y-118547619D01*
X100809523Y-118500000D01*
X100904761Y-118452380D01*
X101095238Y-118452380D01*
X101190476Y-118500000D01*
X101238095Y-118547619D01*
X101285714Y-118642857D01*
X101285714Y-118880952D01*
X101238095Y-118976190D01*
X101190476Y-119023809D01*
X101095238Y-119071428D01*
X100904761Y-119071428D01*
X100809523Y-119023809D01*
X100761904Y-118976190D01*
X100714285Y-118880952D01*
X21047619Y-20452380D02*
X20952380Y-20452380D01*
X20857142Y-20500000D01*
X20809523Y-20547619D01*
X20761904Y-20642857D01*
X20714285Y-20833333D01*
X20714285Y-21071428D01*
X20761904Y-21261904D01*
X20809523Y-21357142D01*
X20857142Y-21404761D01*
X20952380Y-21452380D01*
X21047619Y-21452380D01*
X21142857Y-21404761D01*
X21190476Y-21357142D01*
X21238095Y-21261904D01*
X21285714Y-21071428D01*
X21285714Y-20833333D01*
X21238095Y-20642857D01*
X21190476Y-20547619D01*
X21142857Y-20500000D01*
X21047619Y-20452380D01*
X113333333Y-20452380D02*
X112714285Y-20452380D01*
X113047619Y-20833333D01*
X112904761Y-20833333D01*
X112809523Y-20880952D01*
X112761904Y-20928571D01*
X112714285Y-21023809D01*
X112714285Y-21261904D01*
X112761904Y-21357142D01*
X112809523Y-21404761D01*
X112904761Y-21452380D01*
X113190476Y-21452380D01*
X113285714Y-21404761D01*
X113333333Y-21357142D01*
X119047619Y-118452380D02*
X118952380Y-118452380D01*
X118857142Y-118500000D01*
X118809523Y-118547619D01*
X118761904Y-118642857D01*
X118714285Y-118833333D01*
X118714285Y-119071428D01*
X118761904Y-119261904D01*
X118809523Y-119357142D01*
X118857142Y-119404761D01*
X118952380Y-119452380D01*
X119047619Y-119452380D01*
X119142857Y-119404761D01*
X119190476Y-119357142D01*
X119238095Y-119261904D01*
X119285714Y-119071428D01*
X119285714Y-118833333D01*
X119238095Y-118642857D01*
X119190476Y-118547619D01*
X119142857Y-118500000D01*
X119047619Y-118452380D01*
X115285714Y-118547619D02*
X115238095Y-118500000D01*
X115142857Y-118452380D01*
X114904761Y-118452380D01*
X114809523Y-118500000D01*
X114761904Y-118547619D01*
X114714285Y-118642857D01*
X114714285Y-118738095D01*
X114761904Y-118880952D01*
X115333333Y-119452380D01*
X114714285Y-119452380D01*
X30761904Y-118452380D02*
X31238095Y-118452380D01*
X31285714Y-118928571D01*
X31238095Y-118880952D01*
X31142857Y-118833333D01*
X30904761Y-118833333D01*
X30809523Y-118880952D01*
X30761904Y-118928571D01*
X30714285Y-119023809D01*
X30714285Y-119261904D01*
X30761904Y-119357142D01*
X30809523Y-119404761D01*
X30904761Y-119452380D01*
X31142857Y-119452380D01*
X31238095Y-119404761D01*
X31285714Y-119357142D01*
X25285714Y-20547619D02*
X25238095Y-20500000D01*
X25142857Y-20452380D01*
X24904761Y-20452380D01*
X24809523Y-20500000D01*
X24761904Y-20547619D01*
X24714285Y-20642857D01*
X24714285Y-20738095D01*
X24761904Y-20880952D01*
X25333333Y-21452380D01*
X24714285Y-21452380D01*
X45190476Y-21452380D02*
X45761904Y-21452380D01*
X45476190Y-21452380D02*
X45476190Y-20452380D01*
X45571428Y-20595238D01*
X45666666Y-20690476D01*
X45761904Y-20738095D01*
X44809523Y-20547619D02*
X44761904Y-20500000D01*
X44666666Y-20452380D01*
X44428571Y-20452380D01*
X44333333Y-20500000D01*
X44285714Y-20547619D01*
X44238095Y-20642857D01*
X44238095Y-20738095D01*
X44285714Y-20880952D01*
X44857142Y-21452380D01*
X44238095Y-21452380D01*
X41190476Y-21452380D02*
X41761904Y-21452380D01*
X41476190Y-21452380D02*
X41476190Y-20452380D01*
X41571428Y-20595238D01*
X41666666Y-20690476D01*
X41761904Y-20738095D01*
X40571428Y-20452380D02*
X40476190Y-20452380D01*
X40380952Y-20500000D01*
X40333333Y-20547619D01*
X40285714Y-20642857D01*
X40238095Y-20833333D01*
X40238095Y-21071428D01*
X40285714Y-21261904D01*
X40333333Y-21357142D01*
X40380952Y-21404761D01*
X40476190Y-21452380D01*
X40571428Y-21452380D01*
X40666666Y-21404761D01*
X40714285Y-21357142D01*
X40761904Y-21261904D01*
X40809523Y-21071428D01*
X40809523Y-20833333D01*
X40761904Y-20642857D01*
X40714285Y-20547619D01*
X40666666Y-20500000D01*
X40571428Y-20452380D01*
X99190476Y-119452380D02*
X99761904Y-119452380D01*
X99476190Y-119452380D02*
X99476190Y-118452380D01*
X99571428Y-118595238D01*
X99666666Y-118690476D01*
X99761904Y-118738095D01*
X98571428Y-118452380D02*
X98476190Y-118452380D01*
X98380952Y-118500000D01*
X98333333Y-118547619D01*
X98285714Y-118642857D01*
X98238095Y-118833333D01*
X98238095Y-119071428D01*
X98285714Y-119261904D01*
X98333333Y-119357142D01*
X98380952Y-119404761D01*
X98476190Y-119452380D01*
X98571428Y-119452380D01*
X98666666Y-119404761D01*
X98714285Y-119357142D01*
X98761904Y-119261904D01*
X98809523Y-119071428D01*
X98809523Y-118833333D01*
X98761904Y-118642857D01*
X98714285Y-118547619D01*
X98666666Y-118500000D01*
X98571428Y-118452380D01*
X113333333Y-118452380D02*
X112714285Y-118452380D01*
X113047619Y-118833333D01*
X112904761Y-118833333D01*
X112809523Y-118880952D01*
X112761904Y-118928571D01*
X112714285Y-119023809D01*
X112714285Y-119261904D01*
X112761904Y-119357142D01*
X112809523Y-119404761D01*
X112904761Y-119452380D01*
X113190476Y-119452380D01*
X113285714Y-119404761D01*
X113333333Y-119357142D01*
X106809523Y-118452380D02*
X107000000Y-118452380D01*
X107095238Y-118500000D01*
X107142857Y-118547619D01*
X107238095Y-118690476D01*
X107285714Y-118880952D01*
X107285714Y-119261904D01*
X107238095Y-119357142D01*
X107190476Y-119404761D01*
X107095238Y-119452380D01*
X106904761Y-119452380D01*
X106809523Y-119404761D01*
X106761904Y-119357142D01*
X106714285Y-119261904D01*
X106714285Y-119023809D01*
X106761904Y-118928571D01*
X106809523Y-118880952D01*
X106904761Y-118833333D01*
X107095238Y-118833333D01*
X107190476Y-118880952D01*
X107238095Y-118928571D01*
X107285714Y-119023809D01*
X116714285Y-119452380D02*
X117285714Y-119452380D01*
X117000000Y-119452380D02*
X117000000Y-118452380D01*
X117095238Y-118595238D01*
X117190476Y-118690476D01*
X117285714Y-118738095D01*
X95190476Y-119452380D02*
X95761904Y-119452380D01*
X95476190Y-119452380D02*
X95476190Y-118452380D01*
X95571428Y-118595238D01*
X95666666Y-118690476D01*
X95761904Y-118738095D01*
X94809523Y-118547619D02*
X94761904Y-118500000D01*
X94666666Y-118452380D01*
X94428571Y-118452380D01*
X94333333Y-118500000D01*
X94285714Y-118547619D01*
X94238095Y-118642857D01*
X94238095Y-118738095D01*
X94285714Y-118880952D01*
X94857142Y-119452380D01*
X94238095Y-119452380D01*
X28809523Y-20785714D02*
X28809523Y-21452380D01*
X29047619Y-20404761D02*
X29285714Y-21119047D01*
X28666666Y-21119047D01*
X37095238Y-118880952D02*
X37190476Y-118833333D01*
X37238095Y-118785714D01*
X37285714Y-118690476D01*
X37285714Y-118642857D01*
X37238095Y-118547619D01*
X37190476Y-118500000D01*
X37095238Y-118452380D01*
X36904761Y-118452380D01*
X36809523Y-118500000D01*
X36761904Y-118547619D01*
X36714285Y-118642857D01*
X36714285Y-118690476D01*
X36761904Y-118785714D01*
X36809523Y-118833333D01*
X36904761Y-118880952D01*
X37095238Y-118880952D01*
X37190476Y-118928571D01*
X37238095Y-118976190D01*
X37285714Y-119071428D01*
X37285714Y-119261904D01*
X37238095Y-119357142D01*
X37190476Y-119404761D01*
X37095238Y-119452380D01*
X36904761Y-119452380D01*
X36809523Y-119404761D01*
X36761904Y-119357142D01*
X36714285Y-119261904D01*
X36714285Y-119071428D01*
X36761904Y-118976190D01*
X36809523Y-118928571D01*
X36904761Y-118880952D01*
X97190476Y-21452380D02*
X97761904Y-21452380D01*
X97476190Y-21452380D02*
X97476190Y-20452380D01*
X97571428Y-20595238D01*
X97666666Y-20690476D01*
X97761904Y-20738095D01*
X96238095Y-21452380D02*
X96809523Y-21452380D01*
X96523809Y-21452380D02*
X96523809Y-20452380D01*
X96619047Y-20595238D01*
X96714285Y-20690476D01*
X96809523Y-20738095D01*
X97190476Y-119452380D02*
X97761904Y-119452380D01*
X97476190Y-119452380D02*
X97476190Y-118452380D01*
X97571428Y-118595238D01*
X97666666Y-118690476D01*
X97761904Y-118738095D01*
X96238095Y-119452380D02*
X96809523Y-119452380D01*
X96523809Y-119452380D02*
X96523809Y-118452380D01*
X96619047Y-118595238D01*
X96714285Y-118690476D01*
X96809523Y-118738095D01*
X39190476Y-119452380D02*
X39000000Y-119452380D01*
X38904761Y-119404761D01*
X38857142Y-119357142D01*
X38761904Y-119214285D01*
X38714285Y-119023809D01*
X38714285Y-118642857D01*
X38761904Y-118547619D01*
X38809523Y-118500000D01*
X38904761Y-118452380D01*
X39095238Y-118452380D01*
X39190476Y-118500000D01*
X39238095Y-118547619D01*
X39285714Y-118642857D01*
X39285714Y-118880952D01*
X39238095Y-118976190D01*
X39190476Y-119023809D01*
X39095238Y-119071428D01*
X38904761Y-119071428D01*
X38809523Y-119023809D01*
X38761904Y-118976190D01*
X38714285Y-118880952D01*
X30761904Y-20452380D02*
X31238095Y-20452380D01*
X31285714Y-20928571D01*
X31238095Y-20880952D01*
X31142857Y-20833333D01*
X30904761Y-20833333D01*
X30809523Y-20880952D01*
X30761904Y-20928571D01*
X30714285Y-21023809D01*
X30714285Y-21261904D01*
X30761904Y-21357142D01*
X30809523Y-21404761D01*
X30904761Y-21452380D01*
X31142857Y-21452380D01*
X31238095Y-21404761D01*
X31285714Y-21357142D01*
X99190476Y-21452380D02*
X99761904Y-21452380D01*
X99476190Y-21452380D02*
X99476190Y-20452380D01*
X99571428Y-20595238D01*
X99666666Y-20690476D01*
X99761904Y-20738095D01*
X98571428Y-20452380D02*
X98476190Y-20452380D01*
X98380952Y-20500000D01*
X98333333Y-20547619D01*
X98285714Y-20642857D01*
X98238095Y-20833333D01*
X98238095Y-21071428D01*
X98285714Y-21261904D01*
X98333333Y-21357142D01*
X98380952Y-21404761D01*
X98476190Y-21452380D01*
X98571428Y-21452380D01*
X98666666Y-21404761D01*
X98714285Y-21357142D01*
X98761904Y-21261904D01*
X98809523Y-21071428D01*
X98809523Y-20833333D01*
X98761904Y-20642857D01*
X98714285Y-20547619D01*
X98666666Y-20500000D01*
X98571428Y-20452380D01*
X105333333Y-118452380D02*
X104666666Y-118452380D01*
X105095238Y-119452380D01*
X43190476Y-119452380D02*
X43761904Y-119452380D01*
X43476190Y-119452380D02*
X43476190Y-118452380D01*
X43571428Y-118595238D01*
X43666666Y-118690476D01*
X43761904Y-118738095D01*
X42238095Y-119452380D02*
X42809523Y-119452380D01*
X42523809Y-119452380D02*
X42523809Y-118452380D01*
X42619047Y-118595238D01*
X42714285Y-118690476D01*
X42809523Y-118738095D01*
X27333333Y-118452380D02*
X26714285Y-118452380D01*
X27047619Y-118833333D01*
X26904761Y-118833333D01*
X26809523Y-118880952D01*
X26761904Y-118928571D01*
X26714285Y-119023809D01*
X26714285Y-119261904D01*
X26761904Y-119357142D01*
X26809523Y-119404761D01*
X26904761Y-119452380D01*
X27190476Y-119452380D01*
X27285714Y-119404761D01*
X27333333Y-119357142D01*
X110809523Y-20785714D02*
X110809523Y-21452380D01*
X111047619Y-20404761D02*
X111285714Y-21119047D01*
X110666666Y-21119047D01*
X22714285Y-119452380D02*
X23285714Y-119452380D01*
X23000000Y-119452380D02*
X23000000Y-118452380D01*
X23095238Y-118595238D01*
X23190476Y-118690476D01*
X23285714Y-118738095D01*
X108761904Y-118452380D02*
X109238095Y-118452380D01*
X109285714Y-118928571D01*
X109238095Y-118880952D01*
X109142857Y-118833333D01*
X108904761Y-118833333D01*
X108809523Y-118880952D01*
X108761904Y-118928571D01*
X108714285Y-119023809D01*
X108714285Y-119261904D01*
X108761904Y-119357142D01*
X108809523Y-119404761D01*
X108904761Y-119452380D01*
X109142857Y-119452380D01*
X109238095Y-119404761D01*
X109285714Y-119357142D01*
X95190476Y-21452380D02*
X95761904Y-21452380D01*
X95476190Y-21452380D02*
X95476190Y-20452380D01*
X95571428Y-20595238D01*
X95666666Y-20690476D01*
X95761904Y-20738095D01*
X94809523Y-20547619D02*
X94761904Y-20500000D01*
X94666666Y-20452380D01*
X94428571Y-20452380D01*
X94333333Y-20500000D01*
X94285714Y-20547619D01*
X94238095Y-20642857D01*
X94238095Y-20738095D01*
X94285714Y-20880952D01*
X94857142Y-21452380D01*
X94238095Y-21452380D01*
X32809523Y-118452380D02*
X33000000Y-118452380D01*
X33095238Y-118500000D01*
X33142857Y-118547619D01*
X33238095Y-118690476D01*
X33285714Y-118880952D01*
X33285714Y-119261904D01*
X33238095Y-119357142D01*
X33190476Y-119404761D01*
X33095238Y-119452380D01*
X32904761Y-119452380D01*
X32809523Y-119404761D01*
X32761904Y-119357142D01*
X32714285Y-119261904D01*
X32714285Y-119023809D01*
X32761904Y-118928571D01*
X32809523Y-118880952D01*
X32904761Y-118833333D01*
X33095238Y-118833333D01*
X33190476Y-118880952D01*
X33238095Y-118928571D01*
X33285714Y-119023809D01*
X22714285Y-21452380D02*
X23285714Y-21452380D01*
X23000000Y-21452380D02*
X23000000Y-20452380D01*
X23095238Y-20595238D01*
X23190476Y-20690476D01*
X23285714Y-20738095D01*
X43190476Y-21452380D02*
X43761904Y-21452380D01*
X43476190Y-21452380D02*
X43476190Y-20452380D01*
X43571428Y-20595238D01*
X43666666Y-20690476D01*
X43761904Y-20738095D01*
X42238095Y-21452380D02*
X42809523Y-21452380D01*
X42523809Y-21452380D02*
X42523809Y-20452380D01*
X42619047Y-20595238D01*
X42714285Y-20690476D01*
X42809523Y-20738095D01*
X28809523Y-118785714D02*
X28809523Y-119452380D01*
X29047619Y-118404761D02*
X29285714Y-119119047D01*
X28666666Y-119119047D01*
X101190476Y-21452380D02*
X101000000Y-21452380D01*
X100904761Y-21404761D01*
X100857142Y-21357142D01*
X100761904Y-21214285D01*
X100714285Y-21023809D01*
X100714285Y-20642857D01*
X100761904Y-20547619D01*
X100809523Y-20500000D01*
X100904761Y-20452380D01*
X101095238Y-20452380D01*
X101190476Y-20500000D01*
X101238095Y-20547619D01*
X101285714Y-20642857D01*
X101285714Y-20880952D01*
X101238095Y-20976190D01*
X101190476Y-21023809D01*
X101095238Y-21071428D01*
X100904761Y-21071428D01*
X100809523Y-21023809D01*
X100761904Y-20976190D01*
X100714285Y-20880952D01*
X115285714Y-20547619D02*
X115238095Y-20500000D01*
X115142857Y-20452380D01*
X114904761Y-20452380D01*
X114809523Y-20500000D01*
X114761904Y-20547619D01*
X114714285Y-20642857D01*
X114714285Y-20738095D01*
X114761904Y-20880952D01*
X115333333Y-21452380D01*
X114714285Y-21452380D01*
X103095238Y-20880952D02*
X103190476Y-20833333D01*
X103238095Y-20785714D01*
X103285714Y-20690476D01*
X103285714Y-20642857D01*
X103238095Y-20547619D01*
X103190476Y-20500000D01*
X103095238Y-20452380D01*
X102904761Y-20452380D01*
X102809523Y-20500000D01*
X102761904Y-20547619D01*
X102714285Y-20642857D01*
X102714285Y-20690476D01*
X102761904Y-20785714D01*
X102809523Y-20833333D01*
X102904761Y-20880952D01*
X103095238Y-20880952D01*
X103190476Y-20928571D01*
X103238095Y-20976190D01*
X103285714Y-21071428D01*
X103285714Y-21261904D01*
X103238095Y-21357142D01*
X103190476Y-21404761D01*
X103095238Y-21452380D01*
X102904761Y-21452380D01*
X102809523Y-21404761D01*
X102761904Y-21357142D01*
X102714285Y-21261904D01*
X102714285Y-21071428D01*
X102761904Y-20976190D01*
X102809523Y-20928571D01*
X102904761Y-20880952D01*
X108761904Y-20452380D02*
X109238095Y-20452380D01*
X109285714Y-20928571D01*
X109238095Y-20880952D01*
X109142857Y-20833333D01*
X108904761Y-20833333D01*
X108809523Y-20880952D01*
X108761904Y-20928571D01*
X108714285Y-21023809D01*
X108714285Y-21261904D01*
X108761904Y-21357142D01*
X108809523Y-21404761D01*
X108904761Y-21452380D01*
X109142857Y-21452380D01*
X109238095Y-21404761D01*
X109285714Y-21357142D01*
X35333333Y-20452380D02*
X34666666Y-20452380D01*
X35095238Y-21452380D01*
X116714285Y-21452380D02*
X117285714Y-21452380D01*
X117000000Y-21452380D02*
X117000000Y-20452380D01*
X117095238Y-20595238D01*
X117190476Y-20690476D01*
X117285714Y-20738095D01*
X110809523Y-118785714D02*
X110809523Y-119452380D01*
X111047619Y-118404761D02*
X111285714Y-119119047D01*
X110666666Y-119119047D01*
X27333333Y-20452380D02*
X26714285Y-20452380D01*
X27047619Y-20833333D01*
X26904761Y-20833333D01*
X26809523Y-20880952D01*
X26761904Y-20928571D01*
X26714285Y-21023809D01*
X26714285Y-21261904D01*
X26761904Y-21357142D01*
X26809523Y-21404761D01*
X26904761Y-21452380D01*
X27190476Y-21452380D01*
X27285714Y-21404761D01*
X27333333Y-21357142D01*
X37095238Y-20880952D02*
X37190476Y-20833333D01*
X37238095Y-20785714D01*
X37285714Y-20690476D01*
X37285714Y-20642857D01*
X37238095Y-20547619D01*
X37190476Y-20500000D01*
X37095238Y-20452380D01*
X36904761Y-20452380D01*
X36809523Y-20500000D01*
X36761904Y-20547619D01*
X36714285Y-20642857D01*
X36714285Y-20690476D01*
X36761904Y-20785714D01*
X36809523Y-20833333D01*
X36904761Y-20880952D01*
X37095238Y-20880952D01*
X37190476Y-20928571D01*
X37238095Y-20976190D01*
X37285714Y-21071428D01*
X37285714Y-21261904D01*
X37238095Y-21357142D01*
X37190476Y-21404761D01*
X37095238Y-21452380D01*
X36904761Y-21452380D01*
X36809523Y-21404761D01*
X36761904Y-21357142D01*
X36714285Y-21261904D01*
X36714285Y-21071428D01*
X36761904Y-20976190D01*
X36809523Y-20928571D01*
X36904761Y-20880952D01*
X25285714Y-118547619D02*
X25238095Y-118500000D01*
X25142857Y-118452380D01*
X24904761Y-118452380D01*
X24809523Y-118500000D01*
X24761904Y-118547619D01*
X24714285Y-118642857D01*
X24714285Y-118738095D01*
X24761904Y-118880952D01*
X25333333Y-119452380D01*
X24714285Y-119452380D01*
X21047619Y-118452380D02*
X20952380Y-118452380D01*
X20857142Y-118500000D01*
X20809523Y-118547619D01*
X20761904Y-118642857D01*
X20714285Y-118833333D01*
X20714285Y-119071428D01*
X20761904Y-119261904D01*
X20809523Y-119357142D01*
X20857142Y-119404761D01*
X20952380Y-119452380D01*
X21047619Y-119452380D01*
X21142857Y-119404761D01*
X21190476Y-119357142D01*
X21238095Y-119261904D01*
X21285714Y-119071428D01*
X21285714Y-118833333D01*
X21238095Y-118642857D01*
X21190476Y-118547619D01*
X21142857Y-118500000D01*
X21047619Y-118452380D01*
X45190476Y-119452380D02*
X45761904Y-119452380D01*
X45476190Y-119452380D02*
X45476190Y-118452380D01*
X45571428Y-118595238D01*
X45666666Y-118690476D01*
X45761904Y-118738095D01*
X44809523Y-118547619D02*
X44761904Y-118500000D01*
X44666666Y-118452380D01*
X44428571Y-118452380D01*
X44333333Y-118500000D01*
X44285714Y-118547619D01*
X44238095Y-118642857D01*
X44238095Y-118738095D01*
X44285714Y-118880952D01*
X44857142Y-119452380D01*
X44238095Y-119452380D01*
X32809523Y-20452380D02*
X33000000Y-20452380D01*
X33095238Y-20500000D01*
X33142857Y-20547619D01*
X33238095Y-20690476D01*
X33285714Y-20880952D01*
X33285714Y-21261904D01*
X33238095Y-21357142D01*
X33190476Y-21404761D01*
X33095238Y-21452380D01*
X32904761Y-21452380D01*
X32809523Y-21404761D01*
X32761904Y-21357142D01*
X32714285Y-21261904D01*
X32714285Y-21023809D01*
X32761904Y-20928571D01*
X32809523Y-20880952D01*
X32904761Y-20833333D01*
X33095238Y-20833333D01*
X33190476Y-20880952D01*
X33238095Y-20928571D01*
X33285714Y-21023809D01*
X103095238Y-118880952D02*
X103190476Y-118833333D01*
X103238095Y-118785714D01*
X103285714Y-118690476D01*
X103285714Y-118642857D01*
X103238095Y-118547619D01*
X103190476Y-118500000D01*
X103095238Y-118452380D01*
X102904761Y-118452380D01*
X102809523Y-118500000D01*
X102761904Y-118547619D01*
X102714285Y-118642857D01*
X102714285Y-118690476D01*
X102761904Y-118785714D01*
X102809523Y-118833333D01*
X102904761Y-118880952D01*
X103095238Y-118880952D01*
X103190476Y-118928571D01*
X103238095Y-118976190D01*
X103285714Y-119071428D01*
X103285714Y-119261904D01*
X103238095Y-119357142D01*
X103190476Y-119404761D01*
X103095238Y-119452380D01*
X102904761Y-119452380D01*
X102809523Y-119404761D01*
X102761904Y-119357142D01*
X102714285Y-119261904D01*
X102714285Y-119071428D01*
X102761904Y-118976190D01*
X102809523Y-118928571D01*
X102904761Y-118880952D01*
X41190476Y-119452380D02*
X41761904Y-119452380D01*
X41476190Y-119452380D02*
X41476190Y-118452380D01*
X41571428Y-118595238D01*
X41666666Y-118690476D01*
X41761904Y-118738095D01*
X40571428Y-118452380D02*
X40476190Y-118452380D01*
X40380952Y-118500000D01*
X40333333Y-118547619D01*
X40285714Y-118642857D01*
X40238095Y-118833333D01*
X40238095Y-119071428D01*
X40285714Y-119261904D01*
X40333333Y-119357142D01*
X40380952Y-119404761D01*
X40476190Y-119452380D01*
X40571428Y-119452380D01*
X40666666Y-119404761D01*
X40714285Y-119357142D01*
X40761904Y-119261904D01*
X40809523Y-119071428D01*
X40809523Y-118833333D01*
X40761904Y-118642857D01*
X40714285Y-118547619D01*
X40666666Y-118500000D01*
X40571428Y-118452380D01*
X35333333Y-118452380D02*
X34666666Y-118452380D01*
X35095238Y-119452380D01*
X105333333Y-20452380D02*
X104666666Y-20452380D01*
X105095238Y-21452380D01*
M02*
