M48
; DRILL file {KiCad (6.0.11)} date Thu Jun  8 14:01:21 2023
; FORMAT={-:-/ absolute / inch / decimal}
; #@! TF.CreationDate,2023-06-08T14:01:21-05:00
; #@! TF.GenerationSoftware,Kicad,Pcbnew,(6.0.11)
; #@! TF.FileFunction,Plated,1,2,PTH
FMAT,2
INCH
; #@! TA.AperFunction,Plated,PTH,ViaDrill
T1C0.0157
; #@! TA.AperFunction,Plated,PTH,ComponentDrill
T2C0.0300
; #@! TA.AperFunction,Plated,PTH,ComponentDrill
T3C0.0315
; #@! TA.AperFunction,Plated,PTH,ComponentDrill
T4C0.0354
; #@! TA.AperFunction,Plated,PTH,ComponentDrill
T5C0.0598
; #@! TA.AperFunction,Plated,PTH,ComponentDrill
T6C0.0827
%
G90
G05
T1
X1.9504Y-2.7559
X2.2787Y-2.8346
X2.3756Y-2.7953
X2.6126Y-2.9921
X2.6972Y-2.9134
X2.7559Y-3.6614
X2.9425Y-3.189
X3.0291Y-3.0709
X3.0315Y-3.3949
T2
X2.05Y-1.9416
X2.05Y-2.04
X2.05Y-2.1384
X2.05Y-2.4116
X2.05Y-2.51
X2.05Y-2.6084
X2.1878Y-1.9416
X2.1878Y-2.04
X2.1878Y-2.1384
X2.1878Y-2.4116
X2.1878Y-2.51
X2.1878Y-2.6084
X2.37Y-1.9416
X2.37Y-2.04
X2.37Y-2.1384
X2.37Y-2.4116
X2.37Y-2.51
X2.37Y-2.6084
X2.5078Y-1.9416
X2.5078Y-2.04
X2.5078Y-2.1384
X2.5078Y-2.4116
X2.5078Y-2.51
X2.5078Y-2.6084
X2.7Y-1.9416
X2.7Y-2.04
X2.7Y-2.1384
X2.7Y-2.4116
X2.7Y-2.51
X2.7Y-2.6084
X2.8378Y-1.9416
X2.8378Y-2.04
X2.8378Y-2.1384
X2.8378Y-2.4116
X2.8378Y-2.51
X2.8378Y-2.6084
X3.025Y-1.9416
X3.025Y-2.04
X3.025Y-2.1384
X3.025Y-2.4066
X3.025Y-2.505
X3.025Y-2.6034
X3.1628Y-1.9416
X3.1628Y-2.04
X3.1628Y-2.1384
X3.1628Y-2.4066
X3.1628Y-2.505
X3.1628Y-2.6034
X3.189Y-1.25
X3.189Y-1.3878
X3.2874Y-1.25
X3.2874Y-1.3878
X3.345Y-1.9416
X3.345Y-2.04
X3.345Y-2.1384
X3.35Y-2.4016
X3.35Y-2.5
X3.35Y-2.5984
X3.3858Y-1.25
X3.3858Y-1.3878
X3.4828Y-1.9416
X3.4828Y-2.04
X3.4828Y-2.1384
X3.4878Y-2.4016
X3.4878Y-2.5
X3.4878Y-2.5984
T3
X2.04Y-1.43
X2.04Y-1.56
X2.04Y-1.69
X2.0417Y-1.2693
X2.34Y-1.56
X2.34Y-1.69
X2.54Y-1.43
X2.5417Y-1.2693
X2.68Y-1.22
X2.68Y-1.72
X2.84Y-1.22
X2.84Y-1.72
X2.96Y-1.69
X2.97Y-1.53
X3.46Y-1.69
X3.47Y-1.53
T4
X2.1638Y-1.0976
X2.2638Y-1.0976
X2.49Y-1.6
X2.49Y-1.7
X3.1283Y-1.0925
X3.2283Y-1.0925
T5
X2.1538Y-0.9902
X2.3538Y-0.9902
X3.1183Y-0.9851
X3.3183Y-0.9851
T6
X2.0638Y-0.8976
X2.4638Y-0.8976
X3.0283Y-0.8925
X3.4283Y-0.8925
T0
M30
